# MagicaVoxel @ Ephtracy

# group
o 

# material
mtllib honeyapiary.mtl
usemtl palette

# normals
vn -1 0 0
vn 1 0 0
vn 0 0 1
vn 0 0 -1
vn 0 -1 0
vn 0 1 0

# texcoords
vt 0.970703 0.5
vt 0.974609 0.5
vt 0.978516 0.5
vt 0.982422 0.5
vt 0.986328 0.5
vt 0.990234 0.5

# verts
v -0.5 -0.3 0.5
v -0.5 -0.3 0.3
v -0.5 -0.3 0
v -0.5 -0.3 -0.3
v -0.5 -0.3 -0.5
v -0.5 -0.2 0.5
v -0.5 -0.2 0.3
v -0.5 -0.2 0
v -0.5 -0.2 -0.3
v -0.5 -0.2 -0.5
v -0.5 -0.1 0.5
v -0.5 -0.1 -0.5
v -0.5 0 0.5
v -0.5 0 -0.5
v -0.5 0.0999999 0.5
v -0.5 0.0999999 -0.2
v -0.5 0.0999999 -0.3
v -0.5 0.0999999 -0.5
v -0.5 0.2 0.5
v -0.5 0.2 -0.2
v -0.5 0.2 -0.3
v -0.5 0.2 -0.4
v -0.5 0.2 -0.5
v -0.5 0.3 0.5
v -0.5 0.3 -0.2
v -0.5 0.3 -0.4
v -0.5 0.3 -0.5
v -0.5 0.4 0.5
v -0.5 0.4 -0.5
v -0.5 0.5 0.5
v -0.5 0.5 -0.5
v -0.5 0.6 0.5
v -0.5 0.6 -0.5
v -0.5 0.7 0.5
v -0.5 0.7 0.1
v -0.5 0.7 0
v -0.5 0.7 -0.5
v -0.5 0.8 0.5
v -0.5 0.8 0.2
v -0.5 0.8 0.1
v -0.5 0.8 0
v -0.5 0.8 -0.1
v -0.5 0.8 -0.5
v -0.5 0.9 0.5
v -0.5 0.9 0.2
v -0.5 0.9 0.1
v -0.5 0.9 -0.1
v -0.5 0.9 -0.5
v -0.5 1 0.5
v -0.5 1 -0.5
v -0.5 1.1 0.5
v -0.5 1.1 -0.5
v -0.5 1.2 0.5
v -0.5 1.2 -0.5
v -0.4 1.2 0.4
v -0.4 1.2 0.2
v -0.4 1.2 -0.3
v -0.4 1.2 -0.4
v -0.4 1.3 0.4
v -0.4 1.3 0.2
v -0.4 1.3 -0.3
v -0.4 1.3 -0.4
v -0.1 -1.2 0.1
v -0.1 -1.2 0
v -0.1 -1.2 -0.1
v -0.1 -0.3 0.1
v -0.1 -0.3 0
v -0.1 -0.3 -0.1
v 0.1 -1.2 0.1
v 0.1 -1.2 0
v 0.1 -1.2 -0.1
v 0.1 -0.5 0.1
v 0.1 -0.5 0
v 0.1 -0.3 0.1
v 0.1 -0.3 -0.1
v 0.4 1.2 0.4
v 0.4 1.2 0.1
v 0.4 1.2 -0.4
v 0.4 1.3 0.4
v 0.4 1.3 -0.4
v 0.5 -0.3 0.5
v 0.5 -0.3 -0.3
v 0.5 -0.3 -0.5
v 0.5 -0.2 0.5
v 0.5 -0.2 -0.3
v 0.5 -0.2 -0.5
v 0.5 -0.1 0.5
v 0.5 -0.1 -0.1
v 0.5 -0.1 -0.2
v 0.5 -0.1 -0.5
v 0.5 0 0.5
v 0.5 0 0
v 0.5 0 -0.1
v 0.5 0 -0.2
v 0.5 0 -0.3
v 0.5 0 -0.5
v 0.5 0.0999999 0.5
v 0.5 0.0999999 0
v 0.5 0.0999999 -0.1
v 0.5 0.0999999 -0.3
v 0.5 0.0999999 -0.5
v 0.5 0.2 0.5
v 0.5 0.2 -0.1
v 0.5 0.2 -0.3
v 0.5 0.2 -0.5
v 0.5 0.3 0.5
v 0.5 0.3 -0.5
v 0.5 0.4 0.5
v 0.5 0.4 -0.5
v 0.5 0.5 0.5
v 0.5 0.5 -0.5
v 0.5 0.6 0.5
v 0.5 0.6 -0.5
v 0.5 0.7 0.5
v 0.5 0.7 0.4
v 0.5 0.7 0.3
v 0.5 0.7 -0.5
v 0.5 0.8 0.5
v 0.5 0.8 0.4
v 0.5 0.8 0.3
v 0.5 0.8 0.2
v 0.5 0.8 -0.5
v 0.5 0.9 0.5
v 0.5 0.9 0.4
v 0.5 0.9 0.3
v 0.5 0.9 0.2
v 0.5 0.9 -0.5
v 0.5 1 0.5
v 0.5 1 0.3
v 0.5 1 0.2
v 0.5 1 -0.5
v 0.5 1.1 0.5
v 0.5 1.1 0.4
v 0.5 1.1 0.1
v 0.5 1.1 -0.5
v 0.5 1.2 0.5
v 0.5 1.2 0.4
v 0.5 1.2 0.1
v 0.5 1.2 -0.5
v -0.5 -0.3 0.5
v -0.5 -0.2 0.5
v -0.5 -0.1 0.5
v -0.5 0 0.5
v -0.5 0.0999999 0.5
v -0.5 0.2 0.5
v -0.5 0.3 0.5
v -0.5 0.4 0.5
v -0.5 0.5 0.5
v -0.5 0.6 0.5
v -0.5 0.7 0.5
v -0.5 0.8 0.5
v -0.5 0.9 0.5
v -0.5 1 0.5
v -0.5 1.1 0.5
v -0.5 1.2 0.5
v -0.4 0 0.5
v -0.4 0.0999999 0.5
v -0.4 0.2 0.5
v -0.3 0 0.5
v -0.3 0.0999999 0.5
v -0.3 0.2 0.5
v -0.3 0.6 0.5
v -0.3 0.7 0.5
v -0.3 1.1 0.5
v -0.3 1.2 0.5
v -0.2 0.0999999 0.5
v -0.2 0.2 0.5
v -0.2 0.5 0.5
v -0.2 0.6 0.5
v -0.1 0.4 0.5
v -0.1 0.5 0.5
v -0.1 0.6 0.5
v -0.1 0.7 0.5
v 0 0.4 0.5
v 0 0.5 0.5
v 0 0.6 0.5
v 0 0.7 0.5
v 0 1.1 0.5
v 0 1.2 0.5
v 0.1 0.5 0.5
v 0.1 0.6 0.5
v 0.2 0.5 0.5
v 0.2 0.6 0.5
v 0.2 0.7 0.5
v 0.5 -0.3 0.5
v 0.5 -0.2 0.5
v 0.5 -0.1 0.5
v 0.5 0 0.5
v 0.5 0.0999999 0.5
v 0.5 0.2 0.5
v 0.5 0.3 0.5
v 0.5 0.4 0.5
v 0.5 0.5 0.5
v 0.5 0.6 0.5
v 0.5 0.7 0.5
v 0.5 0.8 0.5
v 0.5 0.9 0.5
v 0.5 1 0.5
v 0.5 1.1 0.5
v 0.5 1.2 0.5
v -0.4 1.2 0.4
v -0.4 1.3 0.4
v -0.3 1.2 0.4
v -0.3 1.3 0.4
v 0 1.2 0.4
v 0 1.3 0.4
v 0.1 1.2 0.4
v 0.1 1.3 0.4
v 0.4 1.2 0.4
v 0.4 1.3 0.4
v -0.1 -1.2 0.1
v -0.1 -0.3 0.1
v 0 -1.2 0.1
v 0 -0.5 0.1
v 0.1 -1.2 0.1
v 0.1 -0.5 0.1
v 0.1 -0.3 0.1
v -0.1 -1.2 -0.1
v -0.1 -0.3 -0.1
v 0 -1.2 -0.1
v 0 -0.3 -0.1
v 0.1 -1.2 -0.1
v 0.1 -0.3 -0.1
v -0.4 1.2 -0.4
v -0.4 1.3 -0.4
v -0.2 1.2 -0.4
v -0.2 1.3 -0.4
v 0.1 1.2 -0.4
v 0.1 1.3 -0.4
v 0.3 1.2 -0.4
v 0.3 1.3 -0.4
v 0.4 1.2 -0.4
v 0.4 1.3 -0.4
v -0.5 -0.3 -0.5
v -0.5 -0.2 -0.5
v -0.5 -0.1 -0.5
v -0.5 0 -0.5
v -0.5 0.0999999 -0.5
v -0.5 0.2 -0.5
v -0.5 0.3 -0.5
v -0.5 0.4 -0.5
v -0.5 0.5 -0.5
v -0.5 0.6 -0.5
v -0.5 0.7 -0.5
v -0.5 0.8 -0.5
v -0.5 0.9 -0.5
v -0.5 1 -0.5
v -0.5 1.1 -0.5
v -0.5 1.2 -0.5
v -0.4 0 -0.5
v -0.4 0.0999999 -0.5
v -0.4 0.2 -0.5
v -0.3 -0.3 -0.5
v -0.3 -0.2 -0.5
v -0.3 0 -0.5
v -0.3 0.0999999 -0.5
v -0.3 0.2 -0.5
v -0.2 0.0999999 -0.5
v -0.2 0.2 -0.5
v -0.1 0.5 -0.5
v -0.1 0.6 -0.5
v -0.1 0.7 -0.5
v 0 0.4 -0.5
v 0 0.5 -0.5
v 0 0.7 -0.5
v 0.1 0.4 -0.5
v 0.1 0.5 -0.5
v 0.1 0.6 -0.5
v 0.2 0.5 -0.5
v 0.2 0.6 -0.5
v 0.2 0.7 -0.5
v 0.3 -0.3 -0.5
v 0.3 -0.2 -0.5
v 0.5 -0.3 -0.5
v 0.5 -0.2 -0.5
v 0.5 -0.1 -0.5
v 0.5 0 -0.5
v 0.5 0.0999999 -0.5
v 0.5 0.2 -0.5
v 0.5 0.3 -0.5
v 0.5 0.4 -0.5
v 0.5 0.5 -0.5
v 0.5 0.6 -0.5
v 0.5 0.7 -0.5
v 0.5 0.8 -0.5
v 0.5 0.9 -0.5
v 0.5 1 -0.5
v 0.5 1.1 -0.5
v 0.5 1.2 -0.5
v -0.1 -1.2 0.1
v 0 -1.2 0.1
v 0.1 -1.2 0.1
v -0.1 -1.2 0
v 0 -1.2 0
v 0.1 -1.2 0
v -0.1 -1.2 -0.1
v 0 -1.2 -0.1
v 0.1 -1.2 -0.1
v -0.5 -0.3 0.5
v 0.5 -0.3 0.5
v -0.5 -0.3 0.3
v -0.4 -0.3 0.3
v -0.1 -0.3 0.1
v 0.1 -0.3 0.1
v -0.5 -0.3 0
v -0.4 -0.3 0
v -0.1 -0.3 0
v -0.1 -0.3 -0.1
v 0 -0.3 -0.1
v 0.1 -0.3 -0.1
v -0.5 -0.3 -0.3
v -0.4 -0.3 -0.3
v 0.4 -0.3 -0.3
v 0.5 -0.3 -0.3
v -0.4 -0.3 -0.4
v -0.3 -0.3 -0.4
v 0.3 -0.3 -0.4
v 0.4 -0.3 -0.4
v -0.5 -0.3 -0.5
v -0.3 -0.3 -0.5
v 0.3 -0.3 -0.5
v 0.5 -0.3 -0.5
v -0.5 1.2 0.5
v -0.3 1.2 0.5
v 0 1.2 0.5
v 0.5 1.2 0.5
v -0.4 1.2 0.4
v -0.3 1.2 0.4
v 0 1.2 0.4
v 0.1 1.2 0.4
v 0.4 1.2 0.4
v 0.5 1.2 0.4
v -0.4 1.2 0.2
v 0.4 1.2 0.1
v 0.5 1.2 0.1
v -0.4 1.2 -0.3
v -0.4 1.2 -0.4
v -0.2 1.2 -0.4
v 0.1 1.2 -0.4
v 0.3 1.2 -0.4
v 0.4 1.2 -0.4
v -0.5 1.2 -0.5
v 0.5 1.2 -0.5
v -0.4 1.3 0.4
v -0.3 1.3 0.4
v 0 1.3 0.4
v 0.1 1.3 0.4
v 0.4 1.3 0.4
v -0.1 1.3 0.3
v 0 1.3 0.3
v 0.1 1.3 0.3
v 0.2 1.3 0.3
v -0.4 1.3 0.2
v -0.3 1.3 0.2
v -0.2 1.3 0.2
v -0.1 1.3 0.2
v 0.2 1.3 0.2
v 0.3 1.3 0.2
v 0.1 1.3 0.1
v 0.2 1.3 0.1
v 0.2 1.3 0
v 0.3 1.3 0
v -0.2 1.3 -0.1
v 0.1 1.3 -0.1
v -0.4 1.3 -0.3
v -0.2 1.3 -0.3
v 0.1 1.3 -0.3
v 0.3 1.3 -0.3
v -0.4 1.3 -0.4
v -0.2 1.3 -0.4
v 0.1 1.3 -0.4
v 0.3 1.3 -0.4
v 0.4 1.3 -0.4

# faces
f 6/1/1 2/1/1 1/1/1
f 7/4/1 3/4/1 2/4/1
f 7/1/1 2/1/1 6/1/1
f 8/1/1 4/1/1 3/1/1
f 8/4/1 3/4/1 7/4/1
f 9/4/1 5/4/1 4/4/1
f 9/1/1 4/1/1 8/1/1
f 10/4/1 5/4/1 9/4/1
f 11/2/1 8/2/1 7/2/1
f 11/2/1 7/2/1 6/2/1
f 11/2/1 10/2/1 9/2/1
f 11/2/1 9/2/1 8/2/1
f 12/2/1 10/2/1 11/2/1
f 13/3/1 12/3/1 11/3/1
f 14/3/1 12/3/1 13/3/1
f 15/2/1 14/2/1 13/2/1
f 16/2/1 14/2/1 15/2/1
f 17/2/1 14/2/1 16/2/1
f 18/2/1 14/2/1 17/2/1
f 19/3/1 16/3/1 15/3/1
f 20/6/1 17/6/1 16/6/1
f 20/3/1 16/3/1 19/3/1
f 21/3/1 18/3/1 17/3/1
f 21/6/1 17/6/1 20/6/1
f 22/3/1 18/3/1 21/3/1
f 23/3/1 18/3/1 22/3/1
f 24/2/1 20/2/1 19/2/1
f 25/5/1 21/5/1 20/5/1
f 25/2/1 20/2/1 24/2/1
f 25/5/1 22/5/1 21/5/1
f 26/2/1 23/2/1 22/2/1
f 26/5/1 22/5/1 25/5/1
f 27/2/1 23/2/1 26/2/1
f 28/3/1 25/3/1 24/3/1
f 28/3/1 26/3/1 25/3/1
f 28/3/1 27/3/1 26/3/1
f 29/3/1 27/3/1 28/3/1
f 30/2/1 29/2/1 28/2/1
f 31/2/1 29/2/1 30/2/1
f 32/3/1 31/3/1 30/3/1
f 33/3/1 31/3/1 32/3/1
f 34/2/1 33/2/1 32/2/1
f 35/2/1 33/2/1 34/2/1
f 36/2/1 33/2/1 35/2/1
f 37/2/1 33/2/1 36/2/1
f 38/3/1 35/3/1 34/3/1
f 39/3/1 35/3/1 38/3/1
f 40/6/1 36/6/1 35/6/1
f 40/3/1 35/3/1 39/3/1
f 41/3/1 37/3/1 36/3/1
f 41/6/1 36/6/1 40/6/1
f 42/3/1 37/3/1 41/3/1
f 43/3/1 37/3/1 42/3/1
f 44/2/1 39/2/1 38/2/1
f 45/6/1 40/6/1 39/6/1
f 45/2/1 39/2/1 44/2/1
f 46/5/1 41/5/1 40/5/1
f 46/6/1 40/6/1 45/6/1
f 46/5/1 42/5/1 41/5/1
f 47/2/1 43/2/1 42/2/1
f 47/5/1 42/5/1 46/5/1
f 48/2/1 43/2/1 47/2/1
f 49/3/1 45/3/1 44/3/1
f 49/3/1 46/3/1 45/3/1
f 49/3/1 48/3/1 47/3/1
f 49/3/1 47/3/1 46/3/1
f 50/3/1 48/3/1 49/3/1
f 51/2/1 50/2/1 49/2/1
f 52/2/1 50/2/1 51/2/1
f 53/1/1 52/1/1 51/1/1
f 54/1/1 52/1/1 53/1/1
f 59/4/1 56/4/1 55/4/1
f 60/1/1 57/1/1 56/1/1
f 60/4/1 56/4/1 59/4/1
f 61/4/1 58/4/1 57/4/1
f 61/1/1 57/1/1 60/1/1
f 62/4/1 58/4/1 61/4/1
f 66/1/1 64/1/1 63/1/1
f 67/4/1 65/4/1 64/4/1
f 67/1/1 64/1/1 66/1/1
f 68/4/1 65/4/1 67/4/1
f 69/4/2 70/4/2 72/4/2
f 70/1/2 71/1/2 73/1/2
f 72/4/2 70/4/2 73/4/2
f 72/1/2 73/1/2 74/1/2
f 73/1/2 71/1/2 75/1/2
f 74/1/2 73/1/2 75/1/2
f 76/1/2 77/1/2 79/1/2
f 77/1/2 78/1/2 79/1/2
f 79/1/2 78/1/2 80/1/2
f 81/1/2 82/1/2 84/1/2
f 82/4/2 83/4/2 85/4/2
f 84/1/2 82/1/2 85/1/2
f 85/4/2 83/4/2 86/4/2
f 84/2/2 85/2/2 87/2/2
f 85/2/2 86/2/2 87/2/2
f 87/2/2 86/2/2 88/2/2
f 88/2/2 86/2/2 89/2/2
f 89/2/2 86/2/2 90/2/2
f 87/3/2 88/3/2 91/3/2
f 91/3/2 88/3/2 92/3/2
f 88/6/2 89/6/2 93/6/2
f 92/3/2 88/3/2 93/3/2
f 89/3/2 90/3/2 94/3/2
f 93/6/2 89/6/2 94/6/2
f 94/3/2 90/3/2 95/3/2
f 95/3/2 90/3/2 96/3/2
f 91/2/2 92/2/2 97/2/2
f 92/5/2 93/5/2 98/5/2
f 97/2/2 92/2/2 98/2/2
f 93/5/2 94/5/2 98/5/2
f 94/5/2 95/5/2 98/5/2
f 98/5/2 95/5/2 99/5/2
f 95/2/2 96/2/2 100/2/2
f 99/5/2 95/5/2 100/5/2
f 100/2/2 96/2/2 101/2/2
f 98/3/2 99/3/2 102/3/2
f 97/3/2 98/3/2 102/3/2
f 99/5/2 100/5/2 103/5/2
f 102/3/2 99/3/2 103/3/2
f 100/3/2 101/3/2 104/3/2
f 103/5/2 100/5/2 104/5/2
f 104/3/2 101/3/2 105/3/2
f 102/2/2 103/2/2 106/2/2
f 103/2/2 104/2/2 106/2/2
f 104/2/2 105/2/2 106/2/2
f 106/2/2 105/2/2 107/2/2
f 106/3/2 107/3/2 108/3/2
f 108/3/2 107/3/2 109/3/2
f 108/2/2 109/2/2 110/2/2
f 110/2/2 109/2/2 111/2/2
f 110/3/2 111/3/2 112/3/2
f 112/3/2 111/3/2 113/3/2
f 112/2/2 113/2/2 114/2/2
f 114/2/2 113/2/2 115/2/2
f 115/2/2 113/2/2 116/2/2
f 116/2/2 113/2/2 117/2/2
f 114/3/2 115/3/2 118/3/2
f 115/6/2 116/6/2 119/6/2
f 118/3/2 115/3/2 119/3/2
f 116/3/2 117/3/2 120/3/2
f 119/6/2 116/6/2 120/6/2
f 120/3/2 117/3/2 121/3/2
f 121/3/2 117/3/2 122/3/2
f 118/2/2 119/2/2 123/2/2
f 119/6/2 120/6/2 124/6/2
f 123/2/2 119/2/2 124/2/2
f 120/6/2 121/6/2 124/6/2
f 124/6/2 121/6/2 125/6/2
f 121/2/2 122/2/2 126/2/2
f 125/6/2 121/6/2 126/6/2
f 126/2/2 122/2/2 127/2/2
f 124/3/2 125/3/2 128/3/2
f 123/3/2 124/3/2 128/3/2
f 125/5/2 126/5/2 129/5/2
f 128/3/2 125/3/2 129/3/2
f 126/3/2 127/3/2 130/3/2
f 129/5/2 126/5/2 130/5/2
f 130/3/2 127/3/2 131/3/2
f 128/2/2 129/2/2 132/2/2
f 129/2/2 130/2/2 132/2/2
f 130/2/2 131/2/2 132/2/2
f 132/2/2 131/2/2 133/2/2
f 133/2/2 131/2/2 134/2/2
f 134/2/2 131/2/2 135/2/2
f 132/1/2 133/1/2 136/1/2
f 133/4/2 134/4/2 137/4/2
f 136/1/2 133/1/2 137/1/2
f 134/1/2 135/1/2 138/1/2
f 137/4/2 134/4/2 138/4/2
f 138/1/2 135/1/2 139/1/2
f 156/3/3 143/3/3 142/3/3
f 156/2/3 144/2/3 143/2/3
f 157/3/3 145/3/3 144/3/3
f 157/2/3 144/2/3 156/2/3
f 158/2/3 146/2/3 145/2/3
f 158/3/3 145/3/3 157/3/3
f 159/3/3 156/3/3 142/3/3
f 159/5/3 157/5/3 156/5/3
f 159/5/3 158/5/3 157/5/3
f 160/5/3 158/5/3 159/5/3
f 161/2/3 146/2/3 158/2/3
f 161/5/3 158/5/3 160/5/3
f 162/3/3 149/3/3 148/3/3
f 162/2/3 150/2/3 149/2/3
f 163/3/3 151/3/3 150/3/3
f 163/2/3 150/2/3 162/2/3
f 164/1/3 155/1/3 154/1/3
f 164/2/3 154/2/3 153/2/3
f 165/1/3 155/1/3 164/1/3
f 166/2/3 160/2/3 159/2/3
f 166/6/3 161/6/3 160/6/3
f 167/2/3 146/2/3 161/2/3
f 167/6/3 161/6/3 166/6/3
f 168/2/3 148/2/3 147/2/3
f 168/3/3 162/3/3 148/3/3
f 169/5/3 163/5/3 162/5/3
f 169/3/3 162/3/3 168/3/3
f 170/2/3 168/2/3 147/2/3
f 170/3/3 147/3/3 146/3/3
f 171/6/3 169/6/3 168/6/3
f 171/2/3 168/2/3 170/2/3
f 172/5/3 163/5/3 169/5/3
f 172/6/3 169/6/3 171/6/3
f 173/3/3 151/3/3 163/3/3
f 173/5/3 163/5/3 172/5/3
f 174/5/3 171/5/3 170/5/3
f 174/3/3 170/3/3 146/3/3
f 175/6/3 172/6/3 171/6/3
f 175/5/3 171/5/3 174/5/3
f 175/6/3 173/6/3 172/6/3
f 176/6/3 173/6/3 175/6/3
f 177/3/3 151/3/3 173/3/3
f 177/6/3 173/6/3 176/6/3
f 178/2/3 164/2/3 153/2/3
f 178/4/3 165/4/3 164/4/3
f 179/4/3 165/4/3 178/4/3
f 180/3/3 176/3/3 175/3/3
f 180/2/3 175/2/3 174/2/3
f 181/5/3 177/5/3 176/5/3
f 181/3/3 176/3/3 180/3/3
f 182/2/3 180/2/3 174/2/3
f 182/6/3 181/6/3 180/6/3
f 183/5/3 177/5/3 181/5/3
f 183/6/3 181/6/3 182/6/3
f 184/3/3 151/3/3 177/3/3
f 184/5/3 177/5/3 183/5/3
f 185/1/3 141/1/3 140/1/3
f 186/2/3 142/2/3 141/2/3
f 186/1/3 141/1/3 185/1/3
f 187/3/3 159/3/3 142/3/3
f 187/2/3 142/2/3 186/2/3
f 188/2/3 166/2/3 159/2/3
f 188/3/3 159/3/3 187/3/3
f 189/3/3 167/3/3 166/3/3
f 189/2/3 166/2/3 188/2/3
f 190/2/3 146/2/3 167/2/3
f 190/3/3 167/3/3 189/3/3
f 191/3/3 174/3/3 146/3/3
f 191/2/3 146/2/3 190/2/3
f 192/2/3 182/2/3 174/2/3
f 192/3/3 174/3/3 191/3/3
f 193/3/3 183/3/3 182/3/3
f 193/2/3 182/2/3 192/2/3
f 194/2/3 184/2/3 183/2/3
f 194/3/3 183/3/3 193/3/3
f 195/3/3 151/3/3 184/3/3
f 195/2/3 184/2/3 194/2/3
f 196/2/3 152/2/3 151/2/3
f 196/3/3 151/3/3 195/3/3
f 197/3/3 153/3/3 152/3/3
f 197/2/3 152/2/3 196/2/3
f 198/2/3 178/2/3 153/2/3
f 198/3/3 153/3/3 197/3/3
f 199/1/3 179/1/3 178/1/3
f 199/2/3 178/2/3 198/2/3
f 200/1/3 179/1/3 199/1/3
f 203/4/3 202/4/3 201/4/3
f 204/4/3 202/4/3 203/4/3
f 205/1/3 204/1/3 203/1/3
f 206/1/3 204/1/3 205/1/3
f 207/4/3 206/4/3 205/4/3
f 208/4/3 206/4/3 207/4/3
f 209/1/3 208/1/3 207/1/3
f 210/1/3 208/1/3 209/1/3
f 213/1/3 212/1/3 211/1/3
f 214/1/3 212/1/3 213/1/3
f 215/4/3 214/4/3 213/4/3
f 216/1/3 212/1/3 214/1/3
f 216/4/3 214/4/3 215/4/3
f 217/1/3 212/1/3 216/1/3
f 218/4/4 219/4/4 220/4/4
f 220/4/4 219/4/4 221/4/4
f 220/1/4 221/1/4 222/1/4
f 222/1/4 221/1/4 223/1/4
f 224/4/4 225/4/4 226/4/4
f 226/4/4 225/4/4 227/4/4
f 226/1/4 227/1/4 228/1/4
f 228/1/4 227/1/4 229/1/4
f 228/4/4 229/4/4 230/4/4
f 230/4/4 229/4/4 231/4/4
f 230/1/4 231/1/4 232/1/4
f 232/1/4 231/1/4 233/1/4
f 236/3/4 237/3/4 250/3/4
f 237/2/4 238/2/4 250/2/4
f 238/3/4 239/3/4 251/3/4
f 250/2/4 238/2/4 251/2/4
f 239/2/4 240/2/4 252/2/4
f 251/3/4 239/3/4 252/3/4
f 234/4/4 235/4/4 253/4/4
f 235/2/4 236/2/4 254/2/4
f 253/4/4 235/4/4 254/4/4
f 236/3/4 250/3/4 255/3/4
f 250/5/4 251/5/4 255/5/4
f 251/6/4 252/6/4 256/6/4
f 255/5/4 251/5/4 256/5/4
f 252/2/4 240/2/4 257/2/4
f 256/6/4 252/6/4 257/6/4
f 255/2/4 256/2/4 258/2/4
f 256/5/4 257/5/4 258/5/4
f 257/2/4 240/2/4 259/2/4
f 258/5/4 257/5/4 259/5/4
f 241/2/4 242/2/4 260/2/4
f 242/3/4 243/3/4 260/3/4
f 243/2/4 244/2/4 261/2/4
f 260/3/4 243/3/4 261/3/4
f 244/3/4 245/3/4 262/3/4
f 261/2/4 244/2/4 262/2/4
f 240/3/4 241/3/4 263/3/4
f 241/2/4 260/2/4 263/2/4
f 261/5/4 262/5/4 264/5/4
f 263/2/4 260/2/4 264/2/4
f 260/5/4 261/5/4 264/5/4
f 262/3/4 245/3/4 265/3/4
f 264/5/4 262/5/4 265/5/4
f 263/5/4 264/5/4 266/5/4
f 240/3/4 263/3/4 266/3/4
f 264/6/4 265/6/4 267/6/4
f 266/5/4 264/5/4 267/5/4
f 267/6/4 265/6/4 268/6/4
f 266/2/4 267/2/4 269/2/4
f 267/5/4 268/5/4 269/5/4
f 268/6/4 265/6/4 270/6/4
f 269/5/4 268/5/4 270/5/4
f 265/3/4 245/3/4 271/3/4
f 270/6/4 265/6/4 271/6/4
f 253/1/4 254/1/4 272/1/4
f 254/2/4 236/2/4 273/2/4
f 272/1/4 254/1/4 273/1/4
f 272/4/4 273/4/4 274/4/4
f 273/2/4 236/2/4 275/2/4
f 274/4/4 273/4/4 275/4/4
f 236/3/4 255/3/4 276/3/4
f 275/2/4 236/2/4 276/2/4
f 255/2/4 258/2/4 277/2/4
f 276/3/4 255/3/4 277/3/4
f 258/3/4 259/3/4 278/3/4
f 277/2/4 258/2/4 278/2/4
f 259/2/4 240/2/4 279/2/4
f 278/3/4 259/3/4 279/3/4
f 240/3/4 266/3/4 280/3/4
f 279/2/4 240/2/4 280/2/4
f 266/2/4 269/2/4 281/2/4
f 280/3/4 266/3/4 281/3/4
f 269/3/4 270/3/4 282/3/4
f 281/2/4 269/2/4 282/2/4
f 270/2/4 271/2/4 283/2/4
f 282/3/4 270/3/4 283/3/4
f 271/3/4 245/3/4 284/3/4
f 283/2/4 271/2/4 284/2/4
f 245/2/4 246/2/4 285/2/4
f 284/3/4 245/3/4 285/3/4
f 246/3/4 247/3/4 286/3/4
f 285/2/4 246/2/4 286/2/4
f 247/2/4 248/2/4 287/2/4
f 286/3/4 247/3/4 287/3/4
f 248/1/4 249/1/4 288/1/4
f 287/2/4 248/2/4 288/2/4
f 288/1/4 249/1/4 289/1/4
f 293/1/5 291/1/5 290/1/5
f 294/4/5 292/4/5 291/4/5
f 294/1/5 291/1/5 293/1/5
f 295/4/5 292/4/5 294/4/5
f 296/4/5 294/4/5 293/4/5
f 297/1/5 295/1/5 294/1/5
f 297/4/5 294/4/5 296/4/5
f 298/1/5 295/1/5 297/1/5
f 301/1/5 300/1/5 299/1/5
f 302/1/5 300/1/5 301/1/5
f 303/1/5 300/1/5 302/1/5
f 304/1/5 300/1/5 303/1/5
f 305/4/5 302/4/5 301/4/5
f 306/1/5 303/1/5 302/1/5
f 306/4/5 302/4/5 305/4/5
f 307/1/5 303/1/5 306/1/5
f 308/1/5 306/1/5 305/1/5
f 308/1/5 307/1/5 306/1/5
f 310/1/5 300/1/5 304/1/5
f 311/1/5 309/1/5 308/1/5
f 311/1/5 310/1/5 309/1/5
f 311/1/5 308/1/5 305/1/5
f 312/1/5 310/1/5 311/1/5
f 313/1/5 300/1/5 310/1/5
f 313/1/5 310/1/5 312/1/5
f 314/1/5 300/1/5 313/1/5
f 315/4/5 312/4/5 311/4/5
f 315/1/5 313/1/5 312/1/5
f 316/1/5 313/1/5 315/1/5
f 317/1/5 313/1/5 316/1/5
f 318/4/5 314/4/5 313/4/5
f 318/1/5 313/1/5 317/1/5
f 319/4/5 315/4/5 311/4/5
f 319/4/5 316/4/5 315/4/5
f 320/1/5 317/1/5 316/1/5
f 320/4/5 316/4/5 319/4/5
f 321/4/5 318/4/5 317/4/5
f 321/1/5 317/1/5 320/1/5
f 322/4/5 314/4/5 318/4/5
f 322/4/5 318/4/5 321/4/5
f 323/1/6 324/1/6 327/1/6
f 324/4/6 325/4/6 328/4/6
f 327/1/6 324/1/6 328/1/6
f 325/1/6 326/1/6 329/1/6
f 328/4/6 325/4/6 329/4/6
f 329/1/6 326/1/6 330/1/6
f 330/1/6 326/1/6 331/1/6
f 331/1/6 326/1/6 332/1/6
f 323/1/6 327/1/6 333/1/6
f 331/4/6 332/4/6 334/4/6
f 334/4/6 332/4/6 335/4/6
f 323/1/6 333/1/6 336/1/6
f 323/1/6 336/1/6 337/1/6
f 334/1/6 335/1/6 341/1/6
f 339/1/6 340/1/6 342/1/6
f 340/1/6 341/1/6 342/1/6
f 323/1/6 337/1/6 342/1/6
f 337/1/6 338/1/6 342/1/6
f 338/1/6 339/1/6 342/1/6
f 341/1/6 335/1/6 343/1/6
f 342/1/6 341/1/6 343/1/6
f 345/1/6 346/1/6 349/1/6
f 346/4/6 347/4/6 350/4/6
f 349/1/6 346/1/6 350/1/6
f 347/1/6 348/1/6 351/1/6
f 350/4/6 347/4/6 351/4/6
f 351/1/6 348/1/6 352/1/6
f 344/4/6 345/4/6 353/4/6
f 345/1/6 349/1/6 354/1/6
f 353/4/6 345/4/6 354/4/6
f 354/1/6 349/1/6 355/1/6
f 349/4/6 350/4/6 356/4/6
f 355/1/6 349/1/6 356/1/6
f 350/4/6 351/4/6 356/4/6
f 351/4/6 352/4/6 356/4/6
f 352/1/6 348/1/6 357/1/6
f 356/4/6 352/4/6 357/4/6
f 357/1/6 348/1/6 358/1/6
f 355/4/6 356/4/6 359/4/6
f 356/4/6 357/4/6 359/4/6
f 357/4/6 358/4/6 359/4/6
f 359/4/6 358/4/6 360/4/6
f 359/1/6 360/1/6 361/1/6
f 360/4/6 358/4/6 361/4/6
f 358/1/6 348/1/6 362/1/6
f 361/4/6 358/4/6 362/4/6
f 354/1/6 355/1/6 363/1/6
f 353/1/6 354/1/6 363/1/6
f 355/4/6 359/4/6 363/4/6
f 359/1/6 361/1/6 364/1/6
f 363/4/6 359/4/6 364/4/6
f 361/1/6 362/1/6 364/1/6
f 353/1/6 363/1/6 365/1/6
f 363/1/6 364/1/6 365/1/6
f 365/1/6 364/1/6 366/1/6
f 364/1/6 362/1/6 367/1/6
f 366/1/6 364/1/6 367/1/6
f 362/1/6 348/1/6 368/1/6
f 367/1/6 362/1/6 368/1/6
f 365/4/6 366/4/6 369/4/6
f 366/1/6 367/1/6 370/1/6
f 369/4/6 366/4/6 370/4/6
f 367/4/6 368/4/6 371/4/6
f 370/1/6 367/1/6 371/1/6
f 368/1/6 348/1/6 372/1/6
f 371/4/6 368/4/6 372/4/6
f 372/1/6 348/1/6 373/1/6
