# MagicaVoxel @ Ephtracy

# group
o 

# material
mtllib apiary.mtl
usemtl palette

# normals
vn -1 0 0
vn 1 0 0
vn 0 0 1
vn 0 0 -1
vn 0 -1 0
vn 0 1 0

# texcoords
vt 0.970703 0.5
vt 0.974609 0.5
vt 0.978516 0.5
vt 0.982422 0.5

# verts
v -0.5 -0.3 0.5
v -0.5 -0.3 0.3
v -0.5 -0.3 0
v -0.5 -0.3 -0.3
v -0.5 -0.3 -0.5
v -0.5 -0.2 0.5
v -0.5 -0.2 0.3
v -0.5 -0.2 0
v -0.5 -0.2 -0.3
v -0.5 -0.2 -0.5
v -0.5 -0.1 0.5
v -0.5 -0.1 -0.5
v -0.5 0 0.5
v -0.5 0 -0.5
v -0.5 0.0999999 0.5
v -0.5 0.0999999 -0.5
v -0.5 0.2 0.5
v -0.5 0.2 -0.5
v -0.5 0.3 0.5
v -0.5 0.3 -0.5
v -0.5 0.4 0.5
v -0.5 0.4 -0.5
v -0.5 0.5 0.5
v -0.5 0.5 -0.5
v -0.5 0.6 0.5
v -0.5 0.6 -0.5
v -0.5 0.7 0.5
v -0.5 0.7 -0.5
v -0.5 0.8 0.5
v -0.5 0.8 -0.5
v -0.5 0.9 0.5
v -0.5 0.9 -0.5
v -0.5 1 0.5
v -0.5 1 -0.5
v -0.5 1.1 0.5
v -0.5 1.1 -0.5
v -0.5 1.2 0.5
v -0.5 1.2 -0.5
v -0.4 1.2 0.4
v -0.4 1.2 0.2
v -0.4 1.2 -0.3
v -0.4 1.2 -0.4
v -0.4 1.3 0.4
v -0.4 1.3 0.2
v -0.4 1.3 -0.3
v -0.4 1.3 -0.4
v -0.1 -1.2 0.1
v -0.1 -1.2 0
v -0.1 -1.2 -0.1
v -0.1 -0.3 0.1
v -0.1 -0.3 0
v -0.1 -0.3 -0.1
v 0.1 -1.2 0.1
v 0.1 -1.2 0
v 0.1 -1.2 -0.1
v 0.1 -0.5 0.1
v 0.1 -0.5 0
v 0.1 -0.3 0.1
v 0.1 -0.3 -0.1
v 0.4 1.2 0.4
v 0.4 1.2 0.1
v 0.4 1.2 -0.4
v 0.4 1.3 0.4
v 0.4 1.3 -0.4
v 0.5 -0.3 0.5
v 0.5 -0.3 -0.3
v 0.5 -0.3 -0.5
v 0.5 -0.2 0.5
v 0.5 -0.2 -0.3
v 0.5 -0.2 -0.5
v 0.5 -0.1 0.5
v 0.5 -0.1 -0.5
v 0.5 0 0.5
v 0.5 0 -0.5
v 0.5 0.0999999 0.5
v 0.5 0.0999999 -0.5
v 0.5 0.2 0.5
v 0.5 0.2 -0.5
v 0.5 0.3 0.5
v 0.5 0.3 -0.5
v 0.5 0.4 0.5
v 0.5 0.4 -0.5
v 0.5 0.5 0.5
v 0.5 0.5 -0.5
v 0.5 0.6 0.5
v 0.5 0.6 -0.5
v 0.5 0.7 0.5
v 0.5 0.7 -0.5
v 0.5 0.8 0.5
v 0.5 0.8 -0.5
v 0.5 0.9 0.5
v 0.5 0.9 -0.5
v 0.5 1 0.5
v 0.5 1 -0.5
v 0.5 1.1 0.5
v 0.5 1.1 0.4
v 0.5 1.1 0.1
v 0.5 1.1 -0.5
v 0.5 1.2 0.5
v 0.5 1.2 0.4
v 0.5 1.2 0.1
v 0.5 1.2 -0.5
v -0.5 -0.3 0.5
v -0.5 -0.2 0.5
v -0.5 -0.1 0.5
v -0.5 0 0.5
v -0.5 0.0999999 0.5
v -0.5 0.2 0.5
v -0.5 0.3 0.5
v -0.5 0.4 0.5
v -0.5 0.5 0.5
v -0.5 0.6 0.5
v -0.5 0.7 0.5
v -0.5 0.8 0.5
v -0.5 0.9 0.5
v -0.5 1 0.5
v -0.5 1.1 0.5
v -0.5 1.2 0.5
v -0.3 1.1 0.5
v -0.3 1.2 0.5
v 0 1.1 0.5
v 0 1.2 0.5
v 0.5 -0.3 0.5
v 0.5 -0.2 0.5
v 0.5 -0.1 0.5
v 0.5 0 0.5
v 0.5 0.0999999 0.5
v 0.5 0.2 0.5
v 0.5 0.3 0.5
v 0.5 0.4 0.5
v 0.5 0.5 0.5
v 0.5 0.6 0.5
v 0.5 0.7 0.5
v 0.5 0.8 0.5
v 0.5 0.9 0.5
v 0.5 1 0.5
v 0.5 1.1 0.5
v 0.5 1.2 0.5
v -0.4 1.2 0.4
v -0.4 1.3 0.4
v -0.3 1.2 0.4
v -0.3 1.3 0.4
v 0 1.2 0.4
v 0 1.3 0.4
v 0.1 1.2 0.4
v 0.1 1.3 0.4
v 0.4 1.2 0.4
v 0.4 1.3 0.4
v -0.1 -1.2 0.1
v -0.1 -0.3 0.1
v 0 -1.2 0.1
v 0 -0.5 0.1
v 0.1 -1.2 0.1
v 0.1 -0.5 0.1
v 0.1 -0.3 0.1
v -0.1 -1.2 -0.1
v -0.1 -0.3 -0.1
v 0 -1.2 -0.1
v 0 -0.3 -0.1
v 0.1 -1.2 -0.1
v 0.1 -0.3 -0.1
v -0.4 1.2 -0.4
v -0.4 1.3 -0.4
v -0.2 1.2 -0.4
v -0.2 1.3 -0.4
v 0.1 1.2 -0.4
v 0.1 1.3 -0.4
v 0.3 1.2 -0.4
v 0.3 1.3 -0.4
v 0.4 1.2 -0.4
v 0.4 1.3 -0.4
v -0.5 -0.3 -0.5
v -0.5 -0.2 -0.5
v -0.5 -0.1 -0.5
v -0.5 0 -0.5
v -0.5 0.0999999 -0.5
v -0.5 0.2 -0.5
v -0.5 0.3 -0.5
v -0.5 0.4 -0.5
v -0.5 0.5 -0.5
v -0.5 0.6 -0.5
v -0.5 0.7 -0.5
v -0.5 0.8 -0.5
v -0.5 0.9 -0.5
v -0.5 1 -0.5
v -0.5 1.1 -0.5
v -0.5 1.2 -0.5
v -0.3 -0.3 -0.5
v -0.3 -0.2 -0.5
v 0.3 -0.3 -0.5
v 0.3 -0.2 -0.5
v 0.5 -0.3 -0.5
v 0.5 -0.2 -0.5
v 0.5 -0.1 -0.5
v 0.5 0 -0.5
v 0.5 0.0999999 -0.5
v 0.5 0.2 -0.5
v 0.5 0.3 -0.5
v 0.5 0.4 -0.5
v 0.5 0.5 -0.5
v 0.5 0.6 -0.5
v 0.5 0.7 -0.5
v 0.5 0.8 -0.5
v 0.5 0.9 -0.5
v 0.5 1 -0.5
v 0.5 1.1 -0.5
v 0.5 1.2 -0.5
v -0.1 -1.2 0.1
v 0 -1.2 0.1
v 0.1 -1.2 0.1
v -0.1 -1.2 0
v 0 -1.2 0
v 0.1 -1.2 0
v -0.1 -1.2 -0.1
v 0 -1.2 -0.1
v 0.1 -1.2 -0.1
v -0.5 -0.3 0.5
v 0.5 -0.3 0.5
v -0.5 -0.3 0.3
v -0.4 -0.3 0.3
v -0.1 -0.3 0.1
v 0.1 -0.3 0.1
v -0.5 -0.3 0
v -0.4 -0.3 0
v -0.1 -0.3 0
v -0.1 -0.3 -0.1
v 0 -0.3 -0.1
v 0.1 -0.3 -0.1
v -0.5 -0.3 -0.3
v -0.4 -0.3 -0.3
v 0.4 -0.3 -0.3
v 0.5 -0.3 -0.3
v -0.4 -0.3 -0.4
v -0.3 -0.3 -0.4
v 0.3 -0.3 -0.4
v 0.4 -0.3 -0.4
v -0.5 -0.3 -0.5
v -0.3 -0.3 -0.5
v 0.3 -0.3 -0.5
v 0.5 -0.3 -0.5
v -0.5 1.2 0.5
v -0.3 1.2 0.5
v 0 1.2 0.5
v 0.5 1.2 0.5
v -0.4 1.2 0.4
v -0.3 1.2 0.4
v 0 1.2 0.4
v 0.1 1.2 0.4
v 0.4 1.2 0.4
v 0.5 1.2 0.4
v -0.4 1.2 0.2
v 0.4 1.2 0.1
v 0.5 1.2 0.1
v -0.4 1.2 -0.3
v -0.4 1.2 -0.4
v -0.2 1.2 -0.4
v 0.1 1.2 -0.4
v 0.3 1.2 -0.4
v 0.4 1.2 -0.4
v -0.5 1.2 -0.5
v 0.5 1.2 -0.5
v -0.4 1.3 0.4
v -0.3 1.3 0.4
v 0 1.3 0.4
v 0.1 1.3 0.4
v 0.4 1.3 0.4
v -0.1 1.3 0.3
v 0 1.3 0.3
v 0.1 1.3 0.3
v 0.2 1.3 0.3
v -0.4 1.3 0.2
v -0.3 1.3 0.2
v -0.2 1.3 0.2
v -0.1 1.3 0.2
v 0.2 1.3 0.2
v 0.3 1.3 0.2
v 0.1 1.3 0.1
v 0.2 1.3 0.1
v 0.2 1.3 0
v 0.3 1.3 0
v -0.2 1.3 -0.1
v 0.1 1.3 -0.1
v -0.4 1.3 -0.3
v -0.2 1.3 -0.3
v 0.1 1.3 -0.3
v 0.3 1.3 -0.3
v -0.4 1.3 -0.4
v -0.2 1.3 -0.4
v 0.1 1.3 -0.4
v 0.3 1.3 -0.4
v 0.4 1.3 -0.4

# faces
f 6/1/1 2/1/1 1/1/1
f 7/4/1 3/4/1 2/4/1
f 7/1/1 2/1/1 6/1/1
f 8/1/1 4/1/1 3/1/1
f 8/4/1 3/4/1 7/4/1
f 9/4/1 5/4/1 4/4/1
f 9/1/1 4/1/1 8/1/1
f 10/4/1 5/4/1 9/4/1
f 11/2/1 8/2/1 7/2/1
f 11/2/1 7/2/1 6/2/1
f 11/2/1 10/2/1 9/2/1
f 11/2/1 9/2/1 8/2/1
f 12/2/1 10/2/1 11/2/1
f 13/3/1 12/3/1 11/3/1
f 14/3/1 12/3/1 13/3/1
f 15/2/1 14/2/1 13/2/1
f 16/2/1 14/2/1 15/2/1
f 17/3/1 16/3/1 15/3/1
f 18/3/1 16/3/1 17/3/1
f 19/2/1 18/2/1 17/2/1
f 20/2/1 18/2/1 19/2/1
f 21/3/1 20/3/1 19/3/1
f 22/3/1 20/3/1 21/3/1
f 23/2/1 22/2/1 21/2/1
f 24/2/1 22/2/1 23/2/1
f 25/3/1 24/3/1 23/3/1
f 26/3/1 24/3/1 25/3/1
f 27/2/1 26/2/1 25/2/1
f 28/2/1 26/2/1 27/2/1
f 29/3/1 28/3/1 27/3/1
f 30/3/1 28/3/1 29/3/1
f 31/2/1 30/2/1 29/2/1
f 32/2/1 30/2/1 31/2/1
f 33/3/1 32/3/1 31/3/1
f 34/3/1 32/3/1 33/3/1
f 35/2/1 34/2/1 33/2/1
f 36/2/1 34/2/1 35/2/1
f 37/1/1 36/1/1 35/1/1
f 38/1/1 36/1/1 37/1/1
f 43/4/1 40/4/1 39/4/1
f 44/1/1 41/1/1 40/1/1
f 44/4/1 40/4/1 43/4/1
f 45/4/1 42/4/1 41/4/1
f 45/1/1 41/1/1 44/1/1
f 46/4/1 42/4/1 45/4/1
f 50/1/1 48/1/1 47/1/1
f 51/4/1 49/4/1 48/4/1
f 51/1/1 48/1/1 50/1/1
f 52/4/1 49/4/1 51/4/1
f 53/4/2 54/4/2 56/4/2
f 54/1/2 55/1/2 57/1/2
f 56/4/2 54/4/2 57/4/2
f 56/1/2 57/1/2 58/1/2
f 57/1/2 55/1/2 59/1/2
f 58/1/2 57/1/2 59/1/2
f 60/1/2 61/1/2 63/1/2
f 61/1/2 62/1/2 63/1/2
f 63/1/2 62/1/2 64/1/2
f 65/1/2 66/1/2 68/1/2
f 66/4/2 67/4/2 69/4/2
f 68/1/2 66/1/2 69/1/2
f 69/4/2 67/4/2 70/4/2
f 68/2/2 69/2/2 71/2/2
f 69/2/2 70/2/2 71/2/2
f 71/2/2 70/2/2 72/2/2
f 71/3/2 72/3/2 73/3/2
f 73/3/2 72/3/2 74/3/2
f 73/2/2 74/2/2 75/2/2
f 75/2/2 74/2/2 76/2/2
f 75/3/2 76/3/2 77/3/2
f 77/3/2 76/3/2 78/3/2
f 77/2/2 78/2/2 79/2/2
f 79/2/2 78/2/2 80/2/2
f 79/3/2 80/3/2 81/3/2
f 81/3/2 80/3/2 82/3/2
f 81/2/2 82/2/2 83/2/2
f 83/2/2 82/2/2 84/2/2
f 83/3/2 84/3/2 85/3/2
f 85/3/2 84/3/2 86/3/2
f 85/2/2 86/2/2 87/2/2
f 87/2/2 86/2/2 88/2/2
f 87/3/2 88/3/2 89/3/2
f 89/3/2 88/3/2 90/3/2
f 89/2/2 90/2/2 91/2/2
f 91/2/2 90/2/2 92/2/2
f 91/3/2 92/3/2 93/3/2
f 93/3/2 92/3/2 94/3/2
f 93/2/2 94/2/2 95/2/2
f 95/2/2 94/2/2 96/2/2
f 96/2/2 94/2/2 97/2/2
f 97/2/2 94/2/2 98/2/2
f 95/1/2 96/1/2 99/1/2
f 96/4/2 97/4/2 100/4/2
f 99/1/2 96/1/2 100/1/2
f 97/1/2 98/1/2 101/1/2
f 100/4/2 97/4/2 101/4/2
f 101/1/2 98/1/2 102/1/2
f 119/2/3 117/2/3 116/2/3
f 119/1/3 118/1/3 117/1/3
f 120/1/3 118/1/3 119/1/3
f 121/2/3 119/2/3 116/2/3
f 121/4/3 120/4/3 119/4/3
f 122/4/3 120/4/3 121/4/3
f 123/1/3 104/1/3 103/1/3
f 124/2/3 105/2/3 104/2/3
f 124/1/3 104/1/3 123/1/3
f 125/3/3 106/3/3 105/3/3
f 125/2/3 105/2/3 124/2/3
f 126/2/3 107/2/3 106/2/3
f 126/3/3 106/3/3 125/3/3
f 127/3/3 108/3/3 107/3/3
f 127/2/3 107/2/3 126/2/3
f 128/2/3 109/2/3 108/2/3
f 128/3/3 108/3/3 127/3/3
f 129/3/3 110/3/3 109/3/3
f 129/2/3 109/2/3 128/2/3
f 130/2/3 111/2/3 110/2/3
f 130/3/3 110/3/3 129/3/3
f 131/3/3 112/3/3 111/3/3
f 131/2/3 111/2/3 130/2/3
f 132/2/3 113/2/3 112/2/3
f 132/3/3 112/3/3 131/3/3
f 133/3/3 114/3/3 113/3/3
f 133/2/3 113/2/3 132/2/3
f 134/2/3 115/2/3 114/2/3
f 134/3/3 114/3/3 133/3/3
f 135/3/3 116/3/3 115/3/3
f 135/2/3 115/2/3 134/2/3
f 136/2/3 121/2/3 116/2/3
f 136/3/3 116/3/3 135/3/3
f 137/1/3 122/1/3 121/1/3
f 137/2/3 121/2/3 136/2/3
f 138/1/3 122/1/3 137/1/3
f 141/4/3 140/4/3 139/4/3
f 142/4/3 140/4/3 141/4/3
f 143/1/3 142/1/3 141/1/3
f 144/1/3 142/1/3 143/1/3
f 145/4/3 144/4/3 143/4/3
f 146/4/3 144/4/3 145/4/3
f 147/1/3 146/1/3 145/1/3
f 148/1/3 146/1/3 147/1/3
f 151/1/3 150/1/3 149/1/3
f 152/1/3 150/1/3 151/1/3
f 153/4/3 152/4/3 151/4/3
f 154/1/3 150/1/3 152/1/3
f 154/4/3 152/4/3 153/4/3
f 155/1/3 150/1/3 154/1/3
f 156/4/4 157/4/4 158/4/4
f 158/4/4 157/4/4 159/4/4
f 158/1/4 159/1/4 160/1/4
f 160/1/4 159/1/4 161/1/4
f 162/4/4 163/4/4 164/4/4
f 164/4/4 163/4/4 165/4/4
f 164/1/4 165/1/4 166/1/4
f 166/1/4 165/1/4 167/1/4
f 166/4/4 167/4/4 168/4/4
f 168/4/4 167/4/4 169/4/4
f 168/1/4 169/1/4 170/1/4
f 170/1/4 169/1/4 171/1/4
f 172/4/4 173/4/4 188/4/4
f 173/2/4 174/2/4 189/2/4
f 188/4/4 173/4/4 189/4/4
f 188/1/4 189/1/4 190/1/4
f 189/2/4 174/2/4 191/2/4
f 190/1/4 189/1/4 191/1/4
f 190/4/4 191/4/4 192/4/4
f 191/2/4 174/2/4 193/2/4
f 192/4/4 191/4/4 193/4/4
f 174/3/4 175/3/4 194/3/4
f 193/2/4 174/2/4 194/2/4
f 175/2/4 176/2/4 195/2/4
f 194/3/4 175/3/4 195/3/4
f 176/3/4 177/3/4 196/3/4
f 195/2/4 176/2/4 196/2/4
f 177/2/4 178/2/4 197/2/4
f 196/3/4 177/3/4 197/3/4
f 178/3/4 179/3/4 198/3/4
f 197/2/4 178/2/4 198/2/4
f 179/2/4 180/2/4 199/2/4
f 198/3/4 179/3/4 199/3/4
f 180/3/4 181/3/4 200/3/4
f 199/2/4 180/2/4 200/2/4
f 181/2/4 182/2/4 201/2/4
f 200/3/4 181/3/4 201/3/4
f 182/3/4 183/3/4 202/3/4
f 201/2/4 182/2/4 202/2/4
f 183/2/4 184/2/4 203/2/4
f 202/3/4 183/3/4 203/3/4
f 184/3/4 185/3/4 204/3/4
f 203/2/4 184/2/4 204/2/4
f 185/2/4 186/2/4 205/2/4
f 204/3/4 185/3/4 205/3/4
f 186/1/4 187/1/4 206/1/4
f 205/2/4 186/2/4 206/2/4
f 206/1/4 187/1/4 207/1/4
f 211/1/5 209/1/5 208/1/5
f 212/4/5 210/4/5 209/4/5
f 212/1/5 209/1/5 211/1/5
f 213/4/5 210/4/5 212/4/5
f 214/4/5 212/4/5 211/4/5
f 215/1/5 213/1/5 212/1/5
f 215/4/5 212/4/5 214/4/5
f 216/1/5 213/1/5 215/1/5
f 219/1/5 218/1/5 217/1/5
f 220/1/5 218/1/5 219/1/5
f 221/1/5 218/1/5 220/1/5
f 222/1/5 218/1/5 221/1/5
f 223/4/5 220/4/5 219/4/5
f 224/1/5 221/1/5 220/1/5
f 224/4/5 220/4/5 223/4/5
f 225/1/5 221/1/5 224/1/5
f 226/1/5 224/1/5 223/1/5
f 226/1/5 225/1/5 224/1/5
f 228/1/5 218/1/5 222/1/5
f 229/1/5 227/1/5 226/1/5
f 229/1/5 228/1/5 227/1/5
f 229/1/5 226/1/5 223/1/5
f 230/1/5 228/1/5 229/1/5
f 231/1/5 218/1/5 228/1/5
f 231/1/5 228/1/5 230/1/5
f 232/1/5 218/1/5 231/1/5
f 233/4/5 230/4/5 229/4/5
f 233/1/5 231/1/5 230/1/5
f 234/1/5 231/1/5 233/1/5
f 235/1/5 231/1/5 234/1/5
f 236/4/5 232/4/5 231/4/5
f 236/1/5 231/1/5 235/1/5
f 237/4/5 233/4/5 229/4/5
f 237/4/5 234/4/5 233/4/5
f 238/1/5 235/1/5 234/1/5
f 238/4/5 234/4/5 237/4/5
f 239/4/5 236/4/5 235/4/5
f 239/1/5 235/1/5 238/1/5
f 240/4/5 232/4/5 236/4/5
f 240/4/5 236/4/5 239/4/5
f 241/1/6 242/1/6 245/1/6
f 242/4/6 243/4/6 246/4/6
f 245/1/6 242/1/6 246/1/6
f 243/1/6 244/1/6 247/1/6
f 246/4/6 243/4/6 247/4/6
f 247/1/6 244/1/6 248/1/6
f 248/1/6 244/1/6 249/1/6
f 249/1/6 244/1/6 250/1/6
f 241/1/6 245/1/6 251/1/6
f 249/4/6 250/4/6 252/4/6
f 252/4/6 250/4/6 253/4/6
f 241/1/6 251/1/6 254/1/6
f 241/1/6 254/1/6 255/1/6
f 252/1/6 253/1/6 259/1/6
f 257/1/6 258/1/6 260/1/6
f 258/1/6 259/1/6 260/1/6
f 241/1/6 255/1/6 260/1/6
f 255/1/6 256/1/6 260/1/6
f 256/1/6 257/1/6 260/1/6
f 259/1/6 253/1/6 261/1/6
f 260/1/6 259/1/6 261/1/6
f 263/1/6 264/1/6 267/1/6
f 264/4/6 265/4/6 268/4/6
f 267/1/6 264/1/6 268/1/6
f 265/1/6 266/1/6 269/1/6
f 268/4/6 265/4/6 269/4/6
f 269/1/6 266/1/6 270/1/6
f 262/4/6 263/4/6 271/4/6
f 263/1/6 267/1/6 272/1/6
f 271/4/6 263/4/6 272/4/6
f 272/1/6 267/1/6 273/1/6
f 267/4/6 268/4/6 274/4/6
f 273/1/6 267/1/6 274/1/6
f 268/4/6 269/4/6 274/4/6
f 269/4/6 270/4/6 274/4/6
f 270/1/6 266/1/6 275/1/6
f 274/4/6 270/4/6 275/4/6
f 275/1/6 266/1/6 276/1/6
f 273/4/6 274/4/6 277/4/6
f 274/4/6 275/4/6 277/4/6
f 275/4/6 276/4/6 277/4/6
f 277/4/6 276/4/6 278/4/6
f 277/1/6 278/1/6 279/1/6
f 278/4/6 276/4/6 279/4/6
f 276/1/6 266/1/6 280/1/6
f 279/4/6 276/4/6 280/4/6
f 272/1/6 273/1/6 281/1/6
f 271/1/6 272/1/6 281/1/6
f 273/4/6 277/4/6 281/4/6
f 277/1/6 279/1/6 282/1/6
f 281/4/6 277/4/6 282/4/6
f 279/1/6 280/1/6 282/1/6
f 271/1/6 281/1/6 283/1/6
f 281/1/6 282/1/6 283/1/6
f 283/1/6 282/1/6 284/1/6
f 282/1/6 280/1/6 285/1/6
f 284/1/6 282/1/6 285/1/6
f 280/1/6 266/1/6 286/1/6
f 285/1/6 280/1/6 286/1/6
f 283/4/6 284/4/6 287/4/6
f 284/1/6 285/1/6 288/1/6
f 287/4/6 284/4/6 288/4/6
f 285/4/6 286/4/6 289/4/6
f 288/1/6 285/1/6 289/1/6
f 286/1/6 266/1/6 290/1/6
f 289/4/6 286/4/6 290/4/6
f 290/1/6 266/1/6 291/1/6
