# MagicaVoxel @ Ephtracy

# group
o 

# material
mtllib OSA-1.mtl
usemtl palette

# normals
vn -1 0 0
vn 1 0 0
vn 0 0 1
vn 0 0 -1
vn 0 -1 0
vn 0 1 0

# texcoords
vt 0.951172 0.5
vt 0.955078 0.5
vt 0.958984 0.5
vt 0.962891 0.5
vt 0.966797 0.5
vt 0.982422 0.5

# verts
v -0.3 -0.7 0.2
v -0.3 -0.7 -0.2
v -0.3 -0.6 0.3
v -0.3 -0.6 0.2
v -0.3 -0.6 -0.2
v -0.3 -0.6 -0.3
v -0.3 -0.3 -0.2
v -0.3 -0.3 -0.3
v -0.3 -0.2 -0.1
v -0.3 -0.2 -0.2
v -0.3 0.4 0.3
v -0.3 0.4 0.2
v -0.3 0.4 -0.1
v -0.3 0.4 -0.3
v -0.3 0.5 0.2
v -0.3 0.5 -0.1
v -0.2 -0.7 0.3
v -0.2 -0.7 0.2
v -0.2 -0.7 -0.2
v -0.2 -0.7 -0.3
v -0.2 -0.6 0.3
v -0.2 -0.6 0.2
v -0.2 -0.6 -0.2
v -0.2 -0.6 -0.3
v -0.2 0.4 0.3
v -0.2 0.4 0.2
v -0.2 0.4 -0.1
v -0.2 0.4 -0.2
v -0.2 0.5 0.3
v -0.2 0.5 0.2
v -0.2 0.5 0
v -0.2 0.5 -0.1
v -0.2 0.5 -0.2
v -0.2 0.8 0
v -0.2 0.8 -0.1
v -0.2 0.8 -0.2
v -0.2 0.9 -0.2
v -0.2 0.9 -0.3
v -0.2 1 -0.1
v -0.2 1 -0.2
v -0.2 1 -0.3
v -0.1 -1 0.2
v -0.1 -1 0
v -0.1 -0.7 0.2
v -0.1 -0.7 0
v -0.1 0.4 -0.2
v -0.1 0.4 -0.3
v -0.1 0.5 -0.2
v -0.1 0.5 -0.3
v 0 -1 0
v 0 -1 -0.1
v 0 -0.7 0
v 0 -0.7 -0.1
v 0.2 0.5 0
v 0.2 0.5 -0.1
v 0.2 0.8 0
v 0.2 0.8 -0.1
v 0.2 0.8 -0.2
v 0.2 0.9 -0.2
v 0.2 0.9 -0.3
v 0.2 1 -0.1
v 0.2 1 -0.2
v 0.2 1 -0.3
v -0.1 0.5 0
v -0.1 0.5 -0.1
v -0.1 0.8 0
v -0.1 0.8 -0.1
v -0.1 0.8 -0.2
v -0.1 0.9 -0.2
v -0.1 0.9 -0.3
v -0.1 1 -0.1
v -0.1 1 -0.2
v -0.1 1 -0.3
v 0.1 -1 0
v 0.1 -1 -0.1
v 0.1 -0.7 0
v 0.1 -0.7 -0.1
v 0.2 -1 0.2
v 0.2 -1 0
v 0.2 -0.7 0.2
v 0.2 -0.7 0
v 0.2 0.4 -0.2
v 0.2 0.4 -0.3
v 0.2 0.5 -0.2
v 0.2 0.5 -0.3
v 0.3 -0.7 0.3
v 0.3 -0.7 0.2
v 0.3 -0.7 -0.2
v 0.3 -0.7 -0.3
v 0.3 -0.6 0.3
v 0.3 -0.6 0.2
v 0.3 -0.6 -0.2
v 0.3 -0.6 -0.3
v 0.3 0.4 0.3
v 0.3 0.4 0.2
v 0.3 0.4 -0.1
v 0.3 0.4 -0.2
v 0.3 0.5 0.3
v 0.3 0.5 0.2
v 0.3 0.5 0
v 0.3 0.5 -0.1
v 0.3 0.5 -0.2
v 0.3 0.8 0
v 0.3 0.8 -0.1
v 0.3 0.8 -0.2
v 0.3 0.9 -0.2
v 0.3 0.9 -0.3
v 0.3 1 -0.1
v 0.3 1 -0.2
v 0.3 1 -0.3
v 0.4 -0.7 0.2
v 0.4 -0.7 -0.2
v 0.4 -0.6 0.3
v 0.4 -0.6 0.2
v 0.4 -0.6 -0.2
v 0.4 -0.6 -0.3
v 0.4 -0.3 -0.2
v 0.4 -0.3 -0.3
v 0.4 -0.2 -0.1
v 0.4 -0.2 -0.2
v 0.4 0.4 0.3
v 0.4 0.4 0.2
v 0.4 0.4 -0.1
v 0.4 0.4 -0.3
v 0.4 0.5 0.2
v 0.4 0.5 -0.1
v -0.3 -0.6 0.3
v -0.3 0.4 0.3
v -0.2 -0.7 0.3
v -0.2 -0.6 0.3
v -0.2 0.4 0.3
v -0.2 0.5 0.3
v 0.3 -0.7 0.3
v 0.3 -0.6 0.3
v 0.3 0.4 0.3
v 0.3 0.5 0.3
v 0.4 -0.6 0.3
v 0.4 0.4 0.3
v -0.3 -0.7 0.2
v -0.3 -0.6 0.2
v -0.3 0.4 0.2
v -0.3 0.5 0.2
v -0.2 -0.7 0.2
v -0.2 -0.6 0.2
v -0.2 0.4 0.2
v -0.2 0.5 0.2
v -0.1 -1 0.2
v -0.1 -0.7 0.2
v 0.2 -1 0.2
v 0.2 -0.7 0.2
v 0.3 -0.7 0.2
v 0.3 -0.6 0.2
v 0.3 0.4 0.2
v 0.3 0.5 0.2
v 0.4 -0.7 0.2
v 0.4 -0.6 0.2
v 0.4 0.4 0.2
v 0.4 0.5 0.2
v -0.2 0.5 0
v -0.2 0.8 0
v -0.1 0.5 0
v -0.1 0.8 0
v 0.2 0.5 0
v 0.2 0.8 0
v 0.3 0.5 0
v 0.3 0.8 0
v -0.2 0.8 -0.1
v -0.2 1 -0.1
v -0.1 0.8 -0.1
v -0.1 1 -0.1
v 0.2 0.8 -0.1
v 0.2 1 -0.1
v 0.3 0.8 -0.1
v 0.3 1 -0.1
v -0.1 -1 0
v -0.1 -0.7 0
v 0 -1 0
v 0 -0.7 0
v 0.1 -1 0
v 0.1 -0.7 0
v 0.2 -1 0
v 0.2 -0.7 0
v -0.3 0.4 -0.1
v -0.3 0.5 -0.1
v -0.2 0.4 -0.1
v -0.2 0.5 -0.1
v -0.2 0.8 -0.1
v -0.1 0.5 -0.1
v -0.1 0.8 -0.1
v 0 -1 -0.1
v 0 -0.7 -0.1
v 0.1 -1 -0.1
v 0.1 -0.7 -0.1
v 0.2 0.5 -0.1
v 0.2 0.8 -0.1
v 0.3 0.4 -0.1
v 0.3 0.5 -0.1
v 0.3 0.8 -0.1
v 0.4 0.4 -0.1
v 0.4 0.5 -0.1
v -0.3 -0.7 -0.2
v -0.3 -0.6 -0.2
v -0.2 -0.7 -0.2
v -0.2 -0.6 -0.2
v -0.2 0.4 -0.2
v -0.2 0.5 -0.2
v -0.2 0.8 -0.2
v -0.2 0.9 -0.2
v -0.1 0.4 -0.2
v -0.1 0.5 -0.2
v -0.1 0.8 -0.2
v -0.1 0.9 -0.2
v 0.2 0.4 -0.2
v 0.2 0.5 -0.2
v 0.2 0.8 -0.2
v 0.2 0.9 -0.2
v 0.3 -0.7 -0.2
v 0.3 -0.6 -0.2
v 0.3 0.4 -0.2
v 0.3 0.5 -0.2
v 0.3 0.8 -0.2
v 0.3 0.9 -0.2
v 0.4 -0.7 -0.2
v 0.4 -0.6 -0.2
v -0.3 -0.6 -0.3
v -0.3 -0.3 -0.3
v -0.3 0.4 -0.3
v -0.2 -0.7 -0.3
v -0.2 -0.6 -0.3
v -0.2 -0.3 -0.3
v -0.2 -0.2 -0.3
v -0.2 -0.1 -0.3
v -0.2 0 -0.3
v -0.2 0.1 -0.3
v -0.2 0.2 -0.3
v -0.2 0.3 -0.3
v -0.2 0.9 -0.3
v -0.2 1 -0.3
v -0.1 -0.2 -0.3
v -0.1 -0.1 -0.3
v -0.1 0 -0.3
v -0.1 0.1 -0.3
v -0.1 0.2 -0.3
v -0.1 0.3 -0.3
v -0.1 0.4 -0.3
v -0.1 0.5 -0.3
v -0.1 0.9 -0.3
v -0.1 1 -0.3
v 0.2 -0.2 -0.3
v 0.2 -0.1 -0.3
v 0.2 0 -0.3
v 0.2 0.1 -0.3
v 0.2 0.2 -0.3
v 0.2 0.3 -0.3
v 0.2 0.4 -0.3
v 0.2 0.5 -0.3
v 0.2 0.9 -0.3
v 0.2 1 -0.3
v 0.3 -0.7 -0.3
v 0.3 -0.6 -0.3
v 0.3 -0.3 -0.3
v 0.3 -0.2 -0.3
v 0.3 -0.1 -0.3
v 0.3 0 -0.3
v 0.3 0.1 -0.3
v 0.3 0.2 -0.3
v 0.3 0.3 -0.3
v 0.3 0.9 -0.3
v 0.3 1 -0.3
v 0.4 -0.6 -0.3
v 0.4 -0.3 -0.3
v 0.4 0.4 -0.3
v -0.1 -1 0.2
v 0.2 -1 0.2
v -0.1 -1 0
v 0 -1 0
v 0.1 -1 0
v 0.2 -1 0
v 0 -1 -0.1
v 0.1 -1 -0.1
v -0.2 -0.7 0.3
v 0.3 -0.7 0.3
v -0.3 -0.7 0.2
v -0.2 -0.7 0.2
v -0.1 -0.7 0.2
v 0.2 -0.7 0.2
v 0.3 -0.7 0.2
v 0.4 -0.7 0.2
v -0.1 -0.7 0
v 0 -0.7 0
v 0.1 -0.7 0
v 0.2 -0.7 0
v 0 -0.7 -0.1
v 0.1 -0.7 -0.1
v -0.3 -0.7 -0.2
v -0.2 -0.7 -0.2
v 0.3 -0.7 -0.2
v 0.4 -0.7 -0.2
v -0.2 -0.7 -0.3
v 0.3 -0.7 -0.3
v -0.3 -0.6 0.3
v -0.2 -0.6 0.3
v 0.3 -0.6 0.3
v 0.4 -0.6 0.3
v -0.3 -0.6 0.2
v -0.2 -0.6 0.2
v 0.3 -0.6 0.2
v 0.4 -0.6 0.2
v -0.3 -0.6 -0.2
v -0.2 -0.6 -0.2
v 0.3 -0.6 -0.2
v 0.4 -0.6 -0.2
v -0.3 -0.6 -0.3
v -0.2 -0.6 -0.3
v 0.3 -0.6 -0.3
v 0.4 -0.6 -0.3
v -0.2 0.8 -0.1
v -0.1 0.8 -0.1
v 0.2 0.8 -0.1
v 0.3 0.8 -0.1
v -0.2 0.8 -0.2
v -0.1 0.8 -0.2
v 0.2 0.8 -0.2
v 0.3 0.8 -0.2
v -0.2 0.9 -0.2
v -0.1 0.9 -0.2
v 0.2 0.9 -0.2
v 0.3 0.9 -0.2
v -0.2 0.9 -0.3
v -0.1 0.9 -0.3
v 0.2 0.9 -0.3
v 0.3 0.9 -0.3
v -0.3 0.4 0.3
v -0.2 0.4 0.3
v 0.3 0.4 0.3
v 0.4 0.4 0.3
v -0.3 0.4 0.2
v -0.2 0.4 0.2
v 0.3 0.4 0.2
v 0.4 0.4 0.2
v -0.3 0.4 -0.1
v -0.2 0.4 -0.1
v 0.3 0.4 -0.1
v 0.4 0.4 -0.1
v -0.2 0.4 -0.2
v -0.1 0.4 -0.2
v 0.2 0.4 -0.2
v 0.3 0.4 -0.2
v -0.3 0.4 -0.3
v -0.1 0.4 -0.3
v 0.2 0.4 -0.3
v 0.4 0.4 -0.3
v -0.2 0.5 0.3
v 0.3 0.5 0.3
v -0.3 0.5 0.2
v -0.2 0.5 0.2
v 0.3 0.5 0.2
v 0.4 0.5 0.2
v -0.2 0.5 0
v -0.1 0.5 0
v 0.2 0.5 0
v 0.3 0.5 0
v -0.3 0.5 -0.1
v -0.2 0.5 -0.1
v -0.1 0.5 -0.1
v 0.2 0.5 -0.1
v 0.3 0.5 -0.1
v 0.4 0.5 -0.1
v -0.2 0.5 -0.2
v -0.1 0.5 -0.2
v 0.2 0.5 -0.2
v 0.3 0.5 -0.2
v -0.1 0.5 -0.3
v 0.2 0.5 -0.3
v -0.2 0.8 0
v -0.1 0.8 0
v 0.2 0.8 0
v 0.3 0.8 0
v -0.2 0.8 -0.1
v -0.1 0.8 -0.1
v 0.2 0.8 -0.1
v 0.3 0.8 -0.1
v -0.2 1 -0.1
v -0.1 1 -0.1
v 0.2 1 -0.1
v 0.3 1 -0.1
v -0.2 1 -0.2
v -0.1 1 -0.2
v 0.2 1 -0.2
v 0.3 1 -0.2
v -0.2 1 -0.3
v -0.1 1 -0.3
v 0.2 1 -0.3
v 0.3 1 -0.3

# faces
f 4/1/1 2/1/1 1/1/1
f 5/1/1 2/1/1 4/1/1
f 7/1/1 4/1/1 3/1/1
f 7/1/1 6/1/1 5/1/1
f 7/1/1 5/1/1 4/1/1
f 8/1/1 6/1/1 7/1/1
f 9/1/1 7/1/1 3/1/1
f 10/6/1 8/6/1 7/6/1
f 10/1/1 7/1/1 9/1/1
f 11/1/1 9/1/1 3/1/1
f 12/1/1 9/1/1 11/1/1
f 13/6/1 10/6/1 9/6/1
f 13/1/1 9/1/1 12/1/1
f 14/6/1 8/6/1 10/6/1
f 14/6/1 10/6/1 13/6/1
f 15/1/1 13/1/1 12/1/1
f 16/1/1 13/1/1 15/1/1
f 21/1/1 18/1/1 17/1/1
f 22/1/1 18/1/1 21/1/1
f 23/1/1 20/1/1 19/1/1
f 24/1/1 20/1/1 23/1/1
f 29/1/1 26/1/1 25/1/1
f 30/1/1 26/1/1 29/1/1
f 32/6/1 28/6/1 27/6/1
f 33/6/1 28/6/1 32/6/1
f 34/4/1 32/4/1 31/4/1
f 35/4/1 32/4/1 34/4/1
f 37/4/1 36/4/1 35/4/1
f 39/4/1 37/4/1 35/4/1
f 40/5/1 38/5/1 37/5/1
f 40/4/1 37/4/1 39/4/1
f 41/5/1 38/5/1 40/5/1
f 44/6/1 43/6/1 42/6/1
f 45/6/1 43/6/1 44/6/1
f 48/1/1 47/1/1 46/1/1
f 49/1/1 47/1/1 48/1/1
f 52/6/1 51/6/1 50/6/1
f 53/6/1 51/6/1 52/6/1
f 56/4/1 55/4/1 54/4/1
f 57/4/1 55/4/1 56/4/1
f 59/4/1 58/4/1 57/4/1
f 61/4/1 59/4/1 57/4/1
f 62/5/1 60/5/1 59/5/1
f 62/4/1 59/4/1 61/4/1
f 63/5/1 60/5/1 62/5/1
f 64/4/2 65/4/2 66/4/2
f 66/4/2 65/4/2 67/4/2
f 67/4/2 68/4/2 69/4/2
f 67/4/2 69/4/2 71/4/2
f 69/5/2 70/5/2 72/5/2
f 71/4/2 69/4/2 72/4/2
f 72/5/2 70/5/2 73/5/2
f 74/6/2 75/6/2 76/6/2
f 76/6/2 75/6/2 77/6/2
f 78/6/2 79/6/2 80/6/2
f 80/6/2 79/6/2 81/6/2
f 82/1/2 83/1/2 84/1/2
f 84/1/2 83/1/2 85/1/2
f 86/1/2 87/1/2 90/1/2
f 90/1/2 87/1/2 91/1/2
f 88/1/2 89/1/2 92/1/2
f 92/1/2 89/1/2 93/1/2
f 94/1/2 95/1/2 98/1/2
f 98/1/2 95/1/2 99/1/2
f 96/6/2 97/6/2 101/6/2
f 101/6/2 97/6/2 102/6/2
f 100/4/2 101/4/2 103/4/2
f 103/4/2 101/4/2 104/4/2
f 104/4/2 105/4/2 106/4/2
f 104/4/2 106/4/2 108/4/2
f 106/5/2 107/5/2 109/5/2
f 108/4/2 106/4/2 109/4/2
f 109/5/2 107/5/2 110/5/2
f 111/1/2 112/1/2 114/1/2
f 114/1/2 112/1/2 115/1/2
f 113/1/2 114/1/2 117/1/2
f 115/1/2 116/1/2 117/1/2
f 114/1/2 115/1/2 117/1/2
f 117/1/2 116/1/2 118/1/2
f 113/1/2 117/1/2 119/1/2
f 117/6/2 118/6/2 120/6/2
f 119/1/2 117/1/2 120/1/2
f 113/1/2 119/1/2 121/1/2
f 121/1/2 119/1/2 122/1/2
f 119/6/2 120/6/2 123/6/2
f 122/1/2 119/1/2 123/1/2
f 120/6/2 118/6/2 124/6/2
f 123/6/2 120/6/2 124/6/2
f 122/1/2 123/1/2 125/1/2
f 125/1/2 123/1/2 126/1/2
f 130/1/3 128/1/3 127/1/3
f 131/1/3 128/1/3 130/1/3
f 133/1/3 130/1/3 129/1/3
f 133/1/3 132/1/3 131/1/3
f 133/1/3 131/1/3 130/1/3
f 134/1/3 132/1/3 133/1/3
f 135/1/3 132/1/3 134/1/3
f 136/1/3 132/1/3 135/1/3
f 137/1/3 135/1/3 134/1/3
f 138/1/3 135/1/3 137/1/3
f 143/1/3 140/1/3 139/1/3
f 144/1/3 140/1/3 143/1/3
f 145/1/3 142/1/3 141/1/3
f 146/1/3 142/1/3 145/1/3
f 149/6/3 148/6/3 147/6/3
f 150/6/3 148/6/3 149/6/3
f 155/1/3 152/1/3 151/1/3
f 156/1/3 152/1/3 155/1/3
f 157/1/3 154/1/3 153/1/3
f 158/1/3 154/1/3 157/1/3
f 161/4/3 160/4/3 159/4/3
f 162/4/3 160/4/3 161/4/3
f 165/4/3 164/4/3 163/4/3
f 166/4/3 164/4/3 165/4/3
f 169/4/3 168/4/3 167/4/3
f 170/4/3 168/4/3 169/4/3
f 173/4/3 172/4/3 171/4/3
f 174/4/3 172/4/3 173/4/3
f 175/6/4 176/6/4 177/6/4
f 177/6/4 176/6/4 178/6/4
f 179/6/4 180/6/4 181/6/4
f 181/6/4 180/6/4 182/6/4
f 183/1/4 184/1/4 185/1/4
f 185/1/4 184/1/4 186/1/4
f 186/4/4 187/4/4 188/4/4
f 188/4/4 187/4/4 189/4/4
f 190/6/4 191/6/4 192/6/4
f 192/6/4 191/6/4 193/6/4
f 194/4/4 195/4/4 197/4/4
f 197/4/4 195/4/4 198/4/4
f 196/1/4 197/1/4 199/1/4
f 199/1/4 197/1/4 200/1/4
f 201/1/4 202/1/4 203/1/4
f 203/1/4 202/1/4 204/1/4
f 205/6/4 206/6/4 209/6/4
f 209/6/4 206/6/4 210/6/4
f 207/4/4 208/4/4 211/4/4
f 211/4/4 208/4/4 212/4/4
f 213/6/4 214/6/4 219/6/4
f 219/6/4 214/6/4 220/6/4
f 215/4/4 216/4/4 221/4/4
f 221/4/4 216/4/4 222/4/4
f 217/1/4 218/1/4 223/1/4
f 223/1/4 218/1/4 224/1/4
f 225/1/4 226/1/4 229/1/4
f 226/6/4 227/6/4 230/6/4
f 229/1/4 226/1/4 230/1/4
f 230/6/4 227/6/4 231/6/4
f 231/6/4 227/6/4 232/6/4
f 232/6/4 227/6/4 233/6/4
f 233/6/4 227/6/4 234/6/4
f 234/6/4 227/6/4 235/6/4
f 235/6/4 227/6/4 236/6/4
f 228/1/4 229/1/4 239/1/4
f 229/1/4 230/1/4 239/1/4
f 230/1/4 231/1/4 239/1/4
f 231/6/4 232/6/4 239/6/4
f 232/3/4 233/3/4 240/3/4
f 239/6/4 232/6/4 240/6/4
f 233/2/4 234/2/4 241/2/4
f 240/3/4 233/3/4 241/3/4
f 234/3/4 235/3/4 242/3/4
f 241/2/4 234/2/4 242/2/4
f 235/2/4 236/2/4 243/2/4
f 242/3/4 235/3/4 243/3/4
f 236/6/4 227/6/4 244/6/4
f 243/2/4 236/2/4 244/2/4
f 244/6/4 227/6/4 245/6/4
f 237/5/4 238/5/4 247/5/4
f 247/5/4 238/5/4 248/5/4
f 245/1/4 246/1/4 249/1/4
f 242/1/4 243/1/4 249/1/4
f 241/1/4 242/1/4 249/1/4
f 244/1/4 245/1/4 249/1/4
f 243/1/4 244/1/4 249/1/4
f 239/1/4 240/1/4 249/1/4
f 228/1/4 239/1/4 249/1/4
f 240/1/4 241/1/4 249/1/4
f 249/1/4 246/1/4 250/1/4
f 250/1/4 246/1/4 251/1/4
f 251/1/4 246/1/4 252/1/4
f 252/1/4 246/1/4 253/1/4
f 253/1/4 246/1/4 254/1/4
f 254/1/4 246/1/4 255/1/4
f 255/1/4 246/1/4 256/1/4
f 228/1/4 249/1/4 259/1/4
f 259/1/4 249/1/4 260/1/4
f 260/1/4 249/1/4 261/1/4
f 249/6/4 250/6/4 262/6/4
f 261/1/4 249/1/4 262/1/4
f 250/3/4 251/3/4 263/3/4
f 262/6/4 250/6/4 263/6/4
f 251/2/4 252/2/4 264/2/4
f 263/3/4 251/3/4 264/3/4
f 252/3/4 253/3/4 265/3/4
f 264/2/4 252/2/4 265/2/4
f 253/2/4 254/2/4 266/2/4
f 265/3/4 253/3/4 266/3/4
f 254/6/4 255/6/4 267/6/4
f 266/2/4 254/2/4 267/2/4
f 257/5/4 258/5/4 268/5/4
f 268/5/4 258/5/4 269/5/4
f 260/1/4 261/1/4 270/1/4
f 261/6/4 262/6/4 271/6/4
f 270/1/4 261/1/4 271/1/4
f 262/6/4 263/6/4 271/6/4
f 266/6/4 267/6/4 271/6/4
f 263/6/4 264/6/4 271/6/4
f 264/6/4 265/6/4 271/6/4
f 265/6/4 266/6/4 271/6/4
f 267/6/4 255/6/4 272/6/4
f 271/6/4 267/6/4 272/6/4
f 275/6/5 274/6/5 273/6/5
f 276/6/5 274/6/5 275/6/5
f 277/6/5 274/6/5 276/6/5
f 278/6/5 274/6/5 277/6/5
f 279/6/5 277/6/5 276/6/5
f 280/6/5 277/6/5 279/6/5
f 284/1/5 282/1/5 281/1/5
f 285/1/5 282/1/5 284/1/5
f 286/1/5 282/1/5 285/1/5
f 287/1/5 282/1/5 286/1/5
f 289/1/5 284/1/5 283/1/5
f 289/1/5 285/1/5 284/1/5
f 292/1/5 288/1/5 287/1/5
f 292/1/5 287/1/5 286/1/5
f 293/1/5 290/1/5 289/1/5
f 294/1/5 292/1/5 291/1/5
f 295/1/5 293/1/5 289/1/5
f 295/1/5 294/1/5 293/1/5
f 295/1/5 289/1/5 283/1/5
f 296/1/5 294/1/5 295/1/5
f 297/1/5 292/1/5 294/1/5
f 297/1/5 294/1/5 296/1/5
f 297/1/5 288/1/5 292/1/5
f 298/1/5 288/1/5 297/1/5
f 299/1/5 297/1/5 296/1/5
f 300/1/5 297/1/5 299/1/5
f 305/1/5 302/1/5 301/1/5
f 306/1/5 302/1/5 305/1/5
f 307/1/5 304/1/5 303/1/5
f 308/1/5 304/1/5 307/1/5
f 313/1/5 310/1/5 309/1/5
f 314/1/5 310/1/5 313/1/5
f 315/1/5 312/1/5 311/1/5
f 316/1/5 312/1/5 315/1/5
f 321/4/5 318/4/5 317/4/5
f 322/4/5 318/4/5 321/4/5
f 323/4/5 320/4/5 319/4/5
f 324/4/5 320/4/5 323/4/5
f 329/5/5 326/5/5 325/5/5
f 330/5/5 326/5/5 329/5/5
f 331/5/5 328/5/5 327/5/5
f 332/5/5 328/5/5 331/5/5
f 333/1/6 334/1/6 337/1/6
f 337/1/6 334/1/6 338/1/6
f 335/1/6 336/1/6 339/1/6
f 339/1/6 336/1/6 340/1/6
f 341/6/6 342/6/6 345/6/6
f 343/6/6 344/6/6 348/6/6
f 345/6/6 346/6/6 349/6/6
f 341/6/6 345/6/6 349/6/6
f 349/6/6 346/6/6 350/6/6
f 347/6/6 348/6/6 351/6/6
f 348/6/6 344/6/6 352/6/6
f 351/6/6 348/6/6 352/6/6
f 353/1/6 354/1/6 356/1/6
f 356/1/6 354/1/6 357/1/6
f 355/1/6 356/1/6 359/1/6
f 357/1/6 358/1/6 359/1/6
f 356/1/6 357/1/6 359/1/6
f 359/1/6 358/1/6 360/1/6
f 360/1/6 358/1/6 361/1/6
f 361/1/6 358/1/6 362/1/6
f 355/1/6 359/1/6 363/1/6
f 363/1/6 359/1/6 364/1/6
f 360/1/6 361/1/6 365/1/6
f 365/1/6 361/1/6 366/1/6
f 362/1/6 358/1/6 367/1/6
f 367/1/6 358/1/6 368/1/6
f 364/6/6 365/6/6 369/6/6
f 365/1/6 366/1/6 370/1/6
f 369/6/6 365/6/6 370/6/6
f 366/6/6 367/6/6 371/6/6
f 370/1/6 366/1/6 371/1/6
f 371/6/6 367/6/6 372/6/6
f 370/1/6 371/1/6 373/1/6
f 373/1/6 371/1/6 374/1/6
f 375/4/6 376/4/6 379/4/6
f 379/4/6 376/4/6 380/4/6
f 377/4/6 378/4/6 381/4/6
f 381/4/6 378/4/6 382/4/6
f 383/4/6 384/4/6 387/4/6
f 387/4/6 384/4/6 388/4/6
f 385/4/6 386/4/6 389/4/6
f 389/4/6 386/4/6 390/4/6
f 387/5/6 388/5/6 391/5/6
f 391/5/6 388/5/6 392/5/6
f 389/5/6 390/5/6 393/5/6
f 393/5/6 390/5/6 394/5/6
