# MagicaVoxel @ Ephtracy

# group
o 

# material
mtllib strong_bear-1.mtl
usemtl palette

# normals
vn -1 0 0
vn 1 0 0
vn 0 0 1
vn 0 0 -1
vn 0 -1 0
vn 0 1 0

# texcoords
vt 0.306641 0.5
vt 0.931641 0.5
vt 0.939453 0.5
vt 0.947266 0.5
vt 0.955078 0.5
vt 0.970703 0.5

# verts
v -0.4 0.6 0.3
v -0.4 0.6 -0.2
v -0.4 0.7 0.3
v -0.4 0.7 -0.2
v -0.3 -1.2 0.2
v -0.3 -1.2 -0.1
v -0.3 -1.1 0.3
v -0.3 -1.1 0.2
v -0.3 -1.1 -0.1
v -0.3 -1.1 -0.2
v -0.3 -1 0.3
v -0.3 -1 0.2
v -0.3 -1 0.1
v -0.3 -0.8 0.3
v -0.3 -0.8 0.2
v -0.3 -0.8 0.1
v -0.3 0.6 0.3
v -0.3 0.6 -0.2
v -0.3 0.6 -0.3
v -0.3 0.7 0.3
v -0.3 0.7 -0.2
v -0.3 0.7 -0.3
v -0.3 1 -0.1
v -0.3 1 -0.2
v -0.3 1.1 0
v -0.3 1.1 -0.1
v -0.3 1.2 0.3
v -0.3 1.2 0
v -0.2 -1.2 0.3
v -0.2 -1.2 0.2
v -0.2 -1.2 -0.1
v -0.2 -1.2 -0.2
v -0.2 -1.1 0.3
v -0.2 -1.1 0.2
v -0.2 -1.1 -0.1
v -0.2 -1.1 -0.2
v -0.2 1 -0.1
v -0.2 1 -0.2
v -0.2 1.1 0
v -0.2 1.1 -0.1
v -0.2 1.1 -0.2
v -0.2 1.2 0
v -0.2 1.2 -0.1
v 0.3 -1 0.3
v 0.3 -1 0.2
v 0.3 -0.7 0.3
v 0.3 -0.7 0.2
v -0.1 -0.8 0.3
v -0.1 -0.8 0.2
v -0.1 -0.7 0.3
v -0.1 -0.7 0.2
v 0.3 -1.2 0.3
v 0.3 -1.2 0.2
v 0.3 -1.2 -0.1
v 0.3 -1.2 -0.2
v 0.3 -1.1 0.3
v 0.3 -1.1 0.2
v 0.3 -1.1 -0.1
v 0.3 -1.1 -0.2
v 0.3 1 -0.1
v 0.3 1 -0.2
v 0.3 1.1 0
v 0.3 1.1 -0.1
v 0.3 1.1 -0.2
v 0.3 1.2 0
v 0.3 1.2 -0.1
v 0.4 -1.2 0.2
v 0.4 -1.2 -0.1
v 0.4 -1.1 0.2
v 0.4 -1.1 -0.1
v 0.4 -1.1 -0.2
v 0.4 -0.9 0.2
v 0.4 -0.9 0.1
v 0.4 -0.8 0.3
v 0.4 -0.8 0.1
v 0.4 0.6 0.3
v 0.4 0.6 -0.2
v 0.4 0.6 -0.3
v 0.4 0.7 0.3
v 0.4 0.7 -0.2
v 0.4 0.7 -0.3
v 0.4 1 -0.1
v 0.4 1 -0.2
v 0.4 1.1 0
v 0.4 1.1 -0.1
v 0.4 1.2 0.3
v 0.4 1.2 0
v 0.5 -1.1 0.3
v 0.5 -1.1 0.2
v 0.5 -0.9 0.2
v 0.5 -0.9 0.1
v 0.5 -0.8 0.3
v 0.5 -0.8 0.1
v 0.5 0.6 0.3
v 0.5 0.6 -0.2
v 0.5 0.7 0.3
v 0.5 0.7 -0.2
v -0.4 0.6 0.3
v -0.4 0.7 0.3
v -0.3 -1.1 0.3
v -0.3 -1 0.3
v -0.3 -0.8 0.3
v -0.3 0.6 0.3
v -0.3 0.7 0.3
v -0.3 1.2 0.3
v -0.2 -1.2 0.3
v -0.2 -1.1 0.3
v -0.1 -0.8 0.3
v -0.1 -0.7 0.3
v 0.3 -1.2 0.3
v 0.3 -1.1 0.3
v 0.3 -1 0.3
v 0.3 -0.7 0.3
v 0.4 -0.8 0.3
v 0.4 0.6 0.3
v 0.4 0.7 0.3
v 0.4 1.2 0.3
v 0.5 -1.1 0.3
v 0.5 -0.8 0.3
v 0.5 0.6 0.3
v 0.5 0.7 0.3
v -0.3 -1.2 0.2
v -0.3 -1.1 0.2
v -0.3 -1 0.2
v -0.3 -0.8 0.2
v -0.2 -1.2 0.2
v -0.2 -1.1 0.2
v -0.1 -0.8 0.2
v -0.1 -0.7 0.2
v 0.3 -1.2 0.2
v 0.3 -1.1 0.2
v 0.3 -1 0.2
v 0.3 -0.7 0.2
v 0.4 -1.2 0.2
v 0.4 -1.1 0.2
v 0.4 -1.1 0.2
v 0.4 -0.9 0.2
v 0.5 -1.1 0.2
v 0.5 -0.9 0.2
v 0.4 -0.9 0.1
v 0.4 -0.8 0.1
v 0.5 -0.9 0.1
v 0.5 -0.8 0.1
v -0.3 1.1 0
v -0.3 1.2 0
v -0.2 1.1 0
v -0.2 1.2 0
v 0.3 1.1 0
v 0.3 1.2 0
v 0.4 1.1 0
v 0.4 1.2 0
v -0.3 -1.2 -0.1
v -0.3 -1.1 -0.1
v -0.3 1 -0.1
v -0.3 1.1 -0.1
v -0.2 -1.2 -0.1
v -0.2 -1.1 -0.1
v -0.2 1 -0.1
v -0.2 1.1 -0.1
v -0.2 1.2 -0.1
v 0.3 -1.2 -0.1
v 0.3 -1.1 -0.1
v 0.3 1 -0.1
v 0.3 1.1 -0.1
v 0.3 1.2 -0.1
v 0.4 -1.2 -0.1
v 0.4 -1.1 -0.1
v 0.4 1 -0.1
v 0.4 1.1 -0.1
v -0.4 0.6 -0.2
v -0.4 0.7 -0.2
v -0.3 -1.1 -0.2
v -0.3 0.6 -0.2
v -0.3 0.7 -0.2
v -0.3 1 -0.2
v -0.2 -1.2 -0.2
v -0.2 -1.1 -0.2
v -0.2 1 -0.2
v -0.2 1.1 -0.2
v -0.1 -0.2 -0.2
v -0.1 -0.1 -0.2
v 0 -0.3 -0.2
v 0 -0.2 -0.2
v 0 -0.1 -0.2
v 0.1 -0.3 -0.2
v 0.1 -0.2 -0.2
v 0.1 -0.1 -0.2
v 0.2 -0.2 -0.2
v 0.2 -0.1 -0.2
v 0.3 -1.2 -0.2
v 0.3 -1.1 -0.2
v 0.3 1 -0.2
v 0.3 1.1 -0.2
v 0.4 -1.1 -0.2
v 0.4 0.6 -0.2
v 0.4 0.7 -0.2
v 0.4 1 -0.2
v 0.5 0.6 -0.2
v 0.5 0.7 -0.2
v -0.3 0.6 -0.3
v -0.3 0.7 -0.3
v 0.4 0.6 -0.3
v 0.4 0.7 -0.3
v -0.2 -1.2 0.3
v 0.3 -1.2 0.3
v -0.3 -1.2 0.2
v -0.2 -1.2 0.2
v 0.3 -1.2 0.2
v 0.4 -1.2 0.2
v -0.3 -1.2 -0.1
v -0.2 -1.2 -0.1
v 0.3 -1.2 -0.1
v 0.4 -1.2 -0.1
v -0.2 -1.2 -0.2
v 0.3 -1.2 -0.2
v -0.3 -1.1 0.3
v -0.2 -1.1 0.3
v 0.3 -1.1 0.3
v 0.5 -1.1 0.3
v -0.3 -1.1 0.2
v -0.2 -1.1 0.2
v 0.3 -1.1 0.2
v 0.4 -1.1 0.2
v 0.5 -1.1 0.2
v -0.3 -1.1 -0.1
v -0.2 -1.1 -0.1
v 0.3 -1.1 -0.1
v 0.4 -1.1 -0.1
v -0.3 -1.1 -0.2
v -0.2 -1.1 -0.2
v 0.3 -1.1 -0.2
v 0.4 -1.1 -0.2
v 0.4 -0.9 0.2
v 0.5 -0.9 0.2
v 0.4 -0.9 0.1
v 0.5 -0.9 0.1
v -0.3 -0.8 0.3
v -0.1 -0.8 0.3
v -0.3 -0.8 0.2
v -0.1 -0.8 0.2
v -0.1 -0.7 0.3
v 0.3 -0.7 0.3
v -0.1 -0.7 0.2
v 0.3 -0.7 0.2
v -0.4 0.6 0.3
v -0.3 0.6 0.3
v 0.4 0.6 0.3
v 0.5 0.6 0.3
v -0.4 0.6 -0.2
v -0.3 0.6 -0.2
v 0.4 0.6 -0.2
v 0.5 0.6 -0.2
v -0.3 0.6 -0.3
v 0.4 0.6 -0.3
v -0.3 -1 0.3
v 0.3 -1 0.3
v -0.3 -1 0.2
v 0.3 -1 0.2
v 0.4 -0.8 0.3
v 0.5 -0.8 0.3
v 0.4 -0.8 0.1
v 0.5 -0.8 0.1
v -0.4 0.7 0.3
v -0.3 0.7 0.3
v 0.4 0.7 0.3
v 0.5 0.7 0.3
v -0.4 0.7 -0.2
v -0.3 0.7 -0.2
v 0.4 0.7 -0.2
v 0.5 0.7 -0.2
v -0.3 0.7 -0.3
v 0.4 0.7 -0.3
v -0.3 1 -0.1
v -0.2 1 -0.1
v 0.3 1 -0.1
v 0.4 1 -0.1
v -0.3 1 -0.2
v -0.2 1 -0.2
v 0.3 1 -0.2
v 0.4 1 -0.2
v -0.3 1.1 0
v -0.2 1.1 0
v 0.3 1.1 0
v 0.4 1.1 0
v -0.3 1.1 -0.1
v -0.2 1.1 -0.1
v 0.3 1.1 -0.1
v 0.4 1.1 -0.1
v -0.2 1.1 -0.2
v 0.3 1.1 -0.2
v -0.3 1.2 0.3
v 0.4 1.2 0.3
v -0.3 1.2 0
v -0.2 1.2 0
v 0.3 1.2 0
v 0.4 1.2 0
v -0.2 1.2 -0.1
v 0.3 1.2 -0.1

# faces
f 3/5/1 2/5/1 1/5/1
f 4/5/1 2/5/1 3/5/1
f 8/6/1 6/6/1 5/6/1
f 9/6/1 6/6/1 8/6/1
f 11/6/1 8/6/1 7/6/1
f 11/6/1 10/6/1 9/6/1
f 11/6/1 9/6/1 8/6/1
f 12/6/1 10/6/1 11/6/1
f 13/6/1 10/6/1 12/6/1
f 15/3/1 13/3/1 12/3/1
f 16/6/1 10/6/1 13/6/1
f 16/3/1 13/3/1 15/3/1
f 17/6/1 15/6/1 14/6/1
f 17/6/1 16/6/1 15/6/1
f 18/6/1 10/6/1 16/6/1
f 18/6/1 16/6/1 17/6/1
f 21/5/1 19/5/1 18/5/1
f 22/5/1 19/5/1 21/5/1
f 23/4/1 21/4/1 20/4/1
f 24/4/1 21/4/1 23/4/1
f 25/4/1 23/4/1 20/4/1
f 26/4/1 23/4/1 25/4/1
f 27/4/1 25/4/1 20/4/1
f 28/4/1 25/4/1 27/4/1
f 33/6/1 30/6/1 29/6/1
f 34/6/1 30/6/1 33/6/1
f 35/6/1 32/6/1 31/6/1
f 36/6/1 32/6/1 35/6/1
f 40/4/1 38/4/1 37/4/1
f 41/4/1 38/4/1 40/4/1
f 42/4/1 40/4/1 39/4/1
f 43/4/1 40/4/1 42/4/1
f 46/6/1 45/6/1 44/6/1
f 47/6/1 45/6/1 46/6/1
f 48/6/2 49/6/2 50/6/2
f 50/6/2 49/6/2 51/6/2
f 52/6/2 53/6/2 56/6/2
f 56/6/2 53/6/2 57/6/2
f 54/6/2 55/6/2 58/6/2
f 58/6/2 55/6/2 59/6/2
f 60/4/2 61/4/2 63/4/2
f 63/4/2 61/4/2 64/4/2
f 62/4/2 63/4/2 65/4/2
f 65/4/2 63/4/2 66/4/2
f 67/6/2 68/6/2 69/6/2
f 69/6/2 68/6/2 70/6/2
f 69/6/2 70/6/2 72/6/2
f 70/6/2 71/6/2 72/6/2
f 72/6/2 71/6/2 73/6/2
f 73/6/2 71/6/2 75/6/2
f 74/6/2 75/6/2 76/6/2
f 75/6/2 71/6/2 77/6/2
f 76/6/2 75/6/2 77/6/2
f 77/5/2 78/5/2 80/5/2
f 80/5/2 78/5/2 81/5/2
f 79/4/2 80/4/2 82/4/2
f 82/4/2 80/4/2 83/4/2
f 79/4/2 82/4/2 84/4/2
f 84/4/2 82/4/2 85/4/2
f 79/4/2 84/4/2 86/4/2
f 86/4/2 84/4/2 87/4/2
f 88/6/2 89/6/2 90/6/2
f 88/6/2 90/6/2 92/6/2
f 90/6/2 91/6/2 92/6/2
f 92/6/2 91/6/2 93/6/2
f 94/5/2 95/5/2 96/5/2
f 96/5/2 95/5/2 97/5/2
f 103/5/3 99/5/3 98/5/3
f 104/5/3 99/5/3 103/5/3
f 107/6/3 101/6/3 100/6/3
f 108/6/3 103/6/3 102/6/3
f 109/6/3 103/6/3 108/6/3
f 110/6/3 107/6/3 106/6/3
f 111/6/3 101/6/3 107/6/3
f 111/6/3 107/6/3 110/6/3
f 112/6/3 101/6/3 111/6/3
f 113/6/3 103/6/3 109/6/3
f 114/6/3 112/6/3 111/6/3
f 114/6/3 113/6/3 112/6/3
f 115/6/3 103/6/3 113/6/3
f 115/6/3 113/6/3 114/6/3
f 115/5/3 104/5/3 103/5/3
f 116/4/3 105/4/3 104/4/3
f 116/5/3 104/5/3 115/5/3
f 117/4/3 105/4/3 116/4/3
f 118/6/3 114/6/3 111/6/3
f 119/6/3 114/6/3 118/6/3
f 120/5/3 116/5/3 115/5/3
f 121/5/3 116/5/3 120/5/3
f 126/6/3 123/6/3 122/6/3
f 127/6/3 123/6/3 126/6/3
f 128/3/3 125/3/3 124/3/3
f 132/3/3 128/3/3 124/3/3
f 132/3/3 129/3/3 128/3/3
f 133/3/3 129/3/3 132/3/3
f 134/6/3 131/6/3 130/6/3
f 135/6/3 131/6/3 134/6/3
f 136/6/4 137/6/4 138/6/4
f 138/6/4 137/6/4 139/6/4
f 140/6/4 141/6/4 142/6/4
f 142/6/4 141/6/4 143/6/4
f 144/4/4 145/4/4 146/4/4
f 146/4/4 145/4/4 147/4/4
f 148/4/4 149/4/4 150/4/4
f 150/4/4 149/4/4 151/4/4
f 152/6/4 153/6/4 156/6/4
f 156/6/4 153/6/4 157/6/4
f 154/4/4 155/4/4 158/4/4
f 158/4/4 155/4/4 159/4/4
f 159/4/4 160/4/4 164/4/4
f 164/4/4 160/4/4 165/4/4
f 161/6/4 162/6/4 166/6/4
f 166/6/4 162/6/4 167/6/4
f 163/4/4 164/4/4 168/4/4
f 168/4/4 164/4/4 169/4/4
f 170/5/4 171/5/4 173/5/4
f 173/5/4 171/5/4 174/5/4
f 172/6/4 173/6/4 177/6/4
f 174/4/4 175/4/4 178/4/4
f 176/6/4 177/6/4 180/6/4
f 177/6/4 173/6/4 180/6/4
f 180/6/4 173/6/4 181/6/4
f 176/6/4 180/6/4 182/6/4
f 180/2/4 181/2/4 183/2/4
f 182/6/4 180/6/4 183/6/4
f 181/6/4 173/6/4 184/6/4
f 183/2/4 181/2/4 184/2/4
f 182/2/4 183/2/4 185/2/4
f 176/6/4 182/6/4 185/6/4
f 183/6/4 184/6/4 186/6/4
f 185/2/4 183/2/4 186/2/4
f 184/6/4 173/6/4 187/6/4
f 186/6/4 184/6/4 187/6/4
f 185/6/4 186/6/4 188/6/4
f 186/2/4 187/2/4 188/2/4
f 187/6/4 173/6/4 189/6/4
f 188/2/4 187/2/4 189/2/4
f 185/6/4 188/6/4 190/6/4
f 176/6/4 185/6/4 190/6/4
f 188/6/4 189/6/4 190/6/4
f 190/6/4 189/6/4 191/6/4
f 178/4/4 179/4/4 192/4/4
f 174/4/4 178/4/4 192/4/4
f 192/4/4 179/4/4 193/4/4
f 191/6/4 189/6/4 194/6/4
f 189/6/4 173/6/4 195/6/4
f 194/6/4 189/6/4 195/6/4
f 174/4/4 192/4/4 196/4/4
f 196/4/4 192/4/4 197/4/4
f 195/5/4 196/5/4 198/5/4
f 198/5/4 196/5/4 199/5/4
f 200/5/4 201/5/4 202/5/4
f 202/5/4 201/5/4 203/5/4
f 207/6/5 205/6/5 204/6/5
f 208/6/5 205/6/5 207/6/5
f 210/6/5 207/6/5 206/6/5
f 210/6/5 209/6/5 208/6/5
f 210/6/5 208/6/5 207/6/5
f 211/6/5 209/6/5 210/6/5
f 212/6/5 209/6/5 211/6/5
f 213/6/5 209/6/5 212/6/5
f 214/6/5 212/6/5 211/6/5
f 215/6/5 212/6/5 214/6/5
f 220/6/5 217/6/5 216/6/5
f 221/6/5 217/6/5 220/6/5
f 222/6/5 219/6/5 218/6/5
f 223/6/5 219/6/5 222/6/5
f 224/6/5 219/6/5 223/6/5
f 229/6/5 226/6/5 225/6/5
f 230/6/5 226/6/5 229/6/5
f 231/6/5 228/6/5 227/6/5
f 232/6/5 228/6/5 231/6/5
f 235/6/5 234/6/5 233/6/5
f 236/6/5 234/6/5 235/6/5
f 239/6/5 238/6/5 237/6/5
f 240/6/5 238/6/5 239/6/5
f 243/6/5 242/6/5 241/6/5
f 244/6/5 242/6/5 243/6/5
f 249/5/5 246/5/5 245/5/5
f 250/5/5 246/5/5 249/5/5
f 251/5/5 248/5/5 247/5/5
f 252/5/5 248/5/5 251/5/5
f 253/5/5 251/5/5 250/5/5
f 254/5/5 251/5/5 253/5/5
f 255/6/6 256/6/6 257/6/6
f 257/6/6 256/6/6 258/6/6
f 259/6/6 260/6/6 261/6/6
f 261/6/6 260/6/6 262/6/6
f 263/5/6 264/5/6 267/5/6
f 267/5/6 264/5/6 268/5/6
f 265/5/6 266/5/6 269/5/6
f 269/5/6 266/5/6 270/5/6
f 268/5/6 269/5/6 271/5/6
f 271/5/6 269/5/6 272/5/6
f 273/4/6 274/4/6 277/4/6
f 277/4/6 274/4/6 278/4/6
f 275/4/6 276/4/6 279/4/6
f 279/4/6 276/4/6 280/4/6
f 281/4/6 282/4/6 285/4/6
f 285/4/6 282/4/6 286/4/6
f 283/4/6 284/4/6 287/4/6
f 287/4/6 284/4/6 288/4/6
f 286/4/6 287/4/6 289/4/6
f 289/4/6 287/4/6 290/4/6
f 291/4/6 292/4/6 293/4/6
f 293/4/6 292/4/6 294/4/6
f 294/4/6 292/4/6 295/4/6
f 295/4/6 292/4/6 296/4/6
f 294/4/6 295/4/6 297/4/6
f 297/4/6 295/4/6 298/4/6
