# MagicaVoxel @ Ephtracy

# group
o 

# material
mtllib strong_bear-0.mtl
usemtl palette

# normals
vn -1 0 0
vn 1 0 0
vn 0 0 1
vn 0 0 -1
vn 0 -1 0
vn 0 1 0

# texcoords
vt 0.927734 0.5
vt 0.931641 0.5
vt 0.951172 0.5
vt 0.970703 0.5
vt 0.986328 0.5

# verts
v -0.4 -0.8 0.3
v -0.4 -0.8 -0.3
v -0.4 0.3 0.3
v -0.4 0.3 -0.3
v -0.4 0.4 0.1
v -0.4 0.4 -0.1
v -0.4 0.5 0.1
v -0.4 0.5 -0.1
v -0.4 0.7 0.3
v -0.4 0.7 -0.3
v -0.4 0.9 0.3
v -0.4 0.9 -0.3
v 0.2 -0.5 0.3
v 0.2 -0.5 0.2
v 0.2 -0.5 -0.2
v 0.2 -0.5 -0.3
v 0.2 -0.4 0.2
v 0.2 -0.4 -0.2
v 0.2 0 0.1
v 0.2 0 -0.1
v 0.2 0.1 0.2
v 0.2 0.1 0.1
v 0.2 0.1 -0.1
v 0.2 0.1 -0.2
v 0.2 0.2 0.2
v 0.2 0.2 0.1
v 0.2 0.2 -0.1
v 0.2 0.2 -0.2
v 0.2 0.3 0.3
v 0.2 0.3 -0.3
v 0.2 0.7 0.3
v 0.2 0.7 -0.3
v 0.2 0.9 0.3
v 0.2 0.9 -0.3
v 0.3 -0.5 0.2
v 0.3 -0.5 -0.2
v 0.3 -0.4 0.2
v 0.3 -0.4 -0.2
v 0.4 -0.6 0.3
v 0.4 -0.6 0.2
v 0.4 -0.6 -0.2
v 0.4 -0.6 -0.3
v 0.4 -0.5 0.3
v 0.4 -0.5 0.2
v 0.4 -0.5 -0.2
v 0.4 -0.5 -0.3
v 0.5 -0.8 0.3
v 0.5 -0.8 -0.3
v 0.5 -0.6 0.3
v 0.5 -0.6 0.2
v 0.5 -0.6 0.1
v 0.5 -0.6 -0.1
v 0.5 -0.6 -0.2
v 0.5 -0.6 -0.3
v 0.5 -0.5 0.2
v 0.5 -0.5 0.1
v 0.5 -0.5 -0.1
v 0.5 -0.5 -0.2
v -0.4 -0.8 0.3
v -0.4 0.3 0.3
v -0.4 0.7 0.3
v -0.4 0.9 0.3
v 0.2 -0.5 0.3
v 0.2 0.3 0.3
v 0.2 0.7 0.3
v 0.2 0.9 0.3
v 0.4 -0.6 0.3
v 0.4 -0.5 0.3
v 0.5 -0.8 0.3
v 0.5 -0.6 0.3
v 0.2 -0.5 0.2
v 0.2 -0.4 0.2
v 0.3 -0.5 0.2
v 0.3 -0.4 0.2
v 0.4 -0.6 0.2
v 0.4 -0.5 0.2
v 0.5 -0.6 0.2
v 0.5 -0.5 0.2
v 0.2 -0.5 -0.2
v 0.2 -0.4 -0.2
v 0.3 -0.5 -0.2
v 0.3 -0.4 -0.2
v 0.4 -0.6 -0.2
v 0.4 -0.5 -0.2
v 0.5 -0.6 -0.2
v 0.5 -0.5 -0.2
v -0.4 -0.8 -0.3
v -0.4 0.3 -0.3
v -0.4 0.7 -0.3
v -0.4 0.9 -0.3
v 0.2 -0.5 -0.3
v 0.2 0.3 -0.3
v 0.2 0.7 -0.3
v 0.2 0.9 -0.3
v 0.4 -0.6 -0.3
v 0.4 -0.5 -0.3
v 0.5 -0.8 -0.3
v 0.5 -0.6 -0.3
v -0.4 -0.8 0.3
v 0.5 -0.8 0.3
v -0.4 -0.8 -0.3
v 0.5 -0.8 -0.3
v 0.4 -0.6 0.3
v 0.5 -0.6 0.3
v 0.4 -0.6 0.2
v 0.5 -0.6 0.2
v 0.4 -0.6 -0.2
v 0.5 -0.6 -0.2
v 0.4 -0.6 -0.3
v 0.5 -0.6 -0.3
v 0.2 -0.5 0.3
v 0.4 -0.5 0.3
v 0.2 -0.5 0.2
v 0.3 -0.5 0.2
v 0.4 -0.5 0.2
v 0.5 -0.5 0.2
v 0.4 -0.5 0.1
v 0.5 -0.5 0.1
v 0.4 -0.5 -0.1
v 0.5 -0.5 -0.1
v 0.2 -0.5 -0.2
v 0.3 -0.5 -0.2
v 0.4 -0.5 -0.2
v 0.5 -0.5 -0.2
v 0.2 -0.5 -0.3
v 0.4 -0.5 -0.3
v 0.2 -0.4 0.2
v 0.3 -0.4 0.2
v 0.2 -0.4 -0.2
v 0.3 -0.4 -0.2
v -0.4 0.9 0.3
v 0.2 0.9 0.3
v -0.3 0.9 0.2
v 0.1 0.9 0.2
v -0.3 0.9 -0.1
v 0.1 0.9 -0.1
v -0.4 0.9 -0.3
v 0.2 0.9 -0.3

# faces
f 3/4/1 2/4/1 1/4/1
f 4/4/1 2/4/1 3/4/1
f 5/3/1 4/3/1 3/3/1
f 6/3/1 4/3/1 5/3/1
f 7/3/1 5/3/1 3/3/1
f 7/1/1 6/1/1 5/1/1
f 8/3/1 4/3/1 6/3/1
f 8/1/1 6/1/1 7/1/1
f 9/3/1 7/3/1 3/3/1
f 9/3/1 8/3/1 7/3/1
f 10/3/1 4/3/1 8/3/1
f 10/3/1 8/3/1 9/3/1
f 11/1/1 10/1/1 9/1/1
f 12/1/1 10/1/1 11/1/1
f 13/4/2 14/4/2 17/4/2
f 15/4/2 16/4/2 18/4/2
f 17/4/2 18/4/2 19/4/2
f 19/4/2 18/4/2 20/4/2
f 13/4/2 17/4/2 21/4/2
f 17/4/2 19/4/2 21/4/2
f 19/2/2 20/2/2 22/2/2
f 21/4/2 19/4/2 22/4/2
f 20/4/2 18/4/2 23/4/2
f 22/2/2 20/2/2 23/2/2
f 18/4/2 16/4/2 24/4/2
f 23/4/2 18/4/2 24/4/2
f 21/2/2 22/2/2 25/2/2
f 13/4/2 21/4/2 25/4/2
f 22/4/2 23/4/2 26/4/2
f 25/2/2 22/2/2 26/2/2
f 23/2/2 24/2/2 27/2/2
f 26/4/2 23/4/2 27/4/2
f 24/4/2 16/4/2 28/4/2
f 27/2/2 24/2/2 28/2/2
f 26/4/2 27/4/2 29/4/2
f 13/4/2 25/4/2 29/4/2
f 27/4/2 28/4/2 29/4/2
f 25/4/2 26/4/2 29/4/2
f 28/4/2 16/4/2 30/4/2
f 29/4/2 28/4/2 30/4/2
f 29/3/2 30/3/2 31/3/2
f 31/3/2 30/3/2 32/3/2
f 31/1/2 32/1/2 33/1/2
f 33/1/2 32/1/2 34/1/2
f 35/4/2 36/4/2 37/4/2
f 37/4/2 36/4/2 38/4/2
f 39/4/2 40/4/2 43/4/2
f 43/4/2 40/4/2 44/4/2
f 41/4/2 42/4/2 45/4/2
f 45/4/2 42/4/2 46/4/2
f 47/4/2 48/4/2 49/4/2
f 49/4/2 48/4/2 50/4/2
f 50/4/2 48/4/2 51/4/2
f 51/4/2 48/4/2 52/4/2
f 52/4/2 48/4/2 53/4/2
f 53/4/2 48/4/2 54/4/2
f 50/5/2 51/5/2 55/5/2
f 51/4/2 52/4/2 56/4/2
f 55/5/2 51/5/2 56/5/2
f 52/5/2 53/5/2 57/5/2
f 56/4/2 52/4/2 57/4/2
f 57/5/2 53/5/2 58/5/2
f 63/4/3 60/4/3 59/4/3
f 64/3/3 61/3/3 60/3/3
f 64/4/3 60/4/3 63/4/3
f 65/1/3 62/1/3 61/1/3
f 65/3/3 61/3/3 64/3/3
f 66/1/3 62/1/3 65/1/3
f 67/4/3 63/4/3 59/4/3
f 68/4/3 63/4/3 67/4/3
f 69/4/3 67/4/3 59/4/3
f 70/4/3 67/4/3 69/4/3
f 73/4/3 72/4/3 71/4/3
f 74/4/3 72/4/3 73/4/3
f 77/5/3 76/5/3 75/5/3
f 78/5/3 76/5/3 77/5/3
f 79/4/4 80/4/4 81/4/4
f 81/4/4 80/4/4 82/4/4
f 83/5/4 84/5/4 85/5/4
f 85/5/4 84/5/4 86/5/4
f 87/4/4 88/4/4 91/4/4
f 88/3/4 89/3/4 92/3/4
f 91/4/4 88/4/4 92/4/4
f 89/1/4 90/1/4 93/1/4
f 92/3/4 89/3/4 93/3/4
f 93/1/4 90/1/4 94/1/4
f 87/4/4 91/4/4 95/4/4
f 95/4/4 91/4/4 96/4/4
f 87/4/4 95/4/4 97/4/4
f 97/4/4 95/4/4 98/4/4
f 101/4/5 100/4/5 99/4/5
f 102/4/5 100/4/5 101/4/5
f 103/4/6 104/4/6 105/4/6
f 105/4/6 104/4/6 106/4/6
f 107/4/6 108/4/6 109/4/6
f 109/4/6 108/4/6 110/4/6
f 111/4/6 112/4/6 113/4/6
f 113/4/6 112/4/6 114/4/6
f 114/4/6 112/4/6 115/4/6
f 115/5/6 116/5/6 117/5/6
f 114/4/6 115/4/6 117/4/6
f 117/5/6 116/5/6 118/5/6
f 114/4/6 117/4/6 119/4/6
f 117/4/6 118/4/6 119/4/6
f 119/4/6 118/4/6 120/4/6
f 114/4/6 119/4/6 122/4/6
f 119/5/6 120/5/6 123/5/6
f 122/4/6 119/4/6 123/4/6
f 123/5/6 120/5/6 124/5/6
f 121/4/6 122/4/6 125/4/6
f 122/4/6 123/4/6 125/4/6
f 125/4/6 123/4/6 126/4/6
f 127/4/6 128/4/6 129/4/6
f 129/4/6 128/4/6 130/4/6
f 131/1/6 132/1/6 133/1/6
f 133/1/6 132/1/6 134/1/6
f 131/1/6 133/1/6 135/1/6
f 133/3/6 134/3/6 135/3/6
f 134/1/6 132/1/6 136/1/6
f 135/3/6 134/3/6 136/3/6
f 131/1/6 135/1/6 137/1/6
f 135/1/6 136/1/6 137/1/6
f 136/1/6 132/1/6 138/1/6
f 137/1/6 136/1/6 138/1/6
