# MagicaVoxel @ Ephtracy

# group
o 

# material
mtllib burov-4.mtl
usemtl palette

# normals
vn -1 0 0
vn 1 0 0
vn 0 0 1
vn 0 0 -1
vn 0 -1 0
vn 0 1 0

# texcoords
vt 0.853516 0.5
vt 0.857422 0.5
vt 0.931641 0.5

# verts
v -0.6 -0.2 0.1
v -0.6 -0.2 -0.2
v -0.6 0 0.1
v -0.6 0 -0.2
v -0.5 -0.2 0.2
v -0.5 -0.2 0.1
v -0.5 -0.2 -0.2
v -0.5 -0.2 -0.3
v -0.5 0 0.2
v -0.5 0 0.1
v -0.5 0 -0.2
v -0.5 0 -0.3
v -0.5 0.1 0.1
v -0.5 0.1 -0.2
v -0.4 -0.2 0.3
v -0.4 -0.2 0.2
v -0.4 -0.2 -0.3
v -0.4 -0.2 -0.4
v -0.4 0 0.3
v -0.4 0 0.2
v -0.4 0 -0.3
v -0.4 0 -0.4
v -0.3 0 0.2
v -0.3 0 0.1
v -0.3 0 -0.2
v -0.3 0 -0.3
v -0.3 0.1 0.2
v -0.3 0.1 0.1
v -0.3 0.1 -0.2
v -0.3 0.1 -0.3
v -0.2 -0.2 0.4
v -0.2 -0.2 0.3
v -0.2 -0.2 -0.4
v -0.2 -0.2 -0.5
v -0.2 0 0.4
v -0.2 0 0.3
v -0.2 0 -0.4
v -0.2 0 -0.5
v 0.3 0.1 0
v 0.3 0.1 -0.1
v 0.3 0.2 0
v 0.3 0.2 -0.1
v 0.3 -0.2 0.4
v 0.3 -0.2 0.3
v 0.3 -0.2 -0.4
v 0.3 -0.2 -0.5
v 0.3 0 0.4
v 0.3 0 0.3
v 0.3 0 -0.4
v 0.3 0 -0.5
v 0.4 0 0.2
v 0.4 0 0.1
v 0.4 0 -0.2
v 0.4 0 -0.3
v 0.4 0.1 0.2
v 0.4 0.1 0.1
v 0.4 0.1 -0.2
v 0.4 0.1 -0.3
v 0.5 -0.2 0.3
v 0.5 -0.2 0.2
v 0.5 -0.2 -0.3
v 0.5 -0.2 -0.4
v 0.5 0 0.3
v 0.5 0 0.2
v 0.5 0 -0.3
v 0.5 0 -0.4
v 0.5 0.1 0
v 0.5 0.1 -0.1
v 0.5 0.2 0
v 0.5 0.2 -0.1
v 0.6 -0.2 0.2
v 0.6 -0.2 0.1
v 0.6 -0.2 -0.2
v 0.6 -0.2 -0.3
v 0.6 0 0.2
v 0.6 0 0.1
v 0.6 0 0
v 0.6 0 -0.1
v 0.6 0 -0.2
v 0.6 0 -0.3
v 0.6 0.1 0.1
v 0.6 0.1 0
v 0.6 0.1 -0.1
v 0.6 0.1 -0.2
v 0.7 -0.2 0.1
v 0.7 -0.2 -0.2
v 0.7 -0.1 0
v 0.7 -0.1 -0.1
v 0.7 0 0.1
v 0.7 0 0
v 0.7 0 -0.1
v 0.7 0 -0.2
v -0.2 -0.2 0.4
v -0.2 0 0.4
v -5.96046e-08 -0.1 0.4
v -5.96046e-08 0 0.4
v 0.1 -0.1 0.4
v 0.1 0 0.4
v 0.3 -0.2 0.4
v 0.3 0 0.4
v -0.4 -0.2 0.3
v -0.4 0 0.3
v -0.2 -0.2 0.3
v -0.2 0 0.3
v 0.3 -0.2 0.3
v 0.3 0 0.3
v 0.5 -0.2 0.3
v 0.5 0 0.3
v -0.5 -0.2 0.2
v -0.5 0 0.2
v -0.4 -0.2 0.2
v -0.4 0 0.2
v -0.3 0 0.2
v -0.3 0.1 0.2
v -5.96046e-08 0 0.2
v -5.96046e-08 0.1 0.2
v 0.1 0 0.2
v 0.1 0.1 0.2
v 0.4 0 0.2
v 0.4 0.1 0.2
v 0.5 -0.2 0.2
v 0.5 0 0.2
v 0.6 -0.2 0.2
v 0.6 0 0.2
v -0.6 -0.2 0.1
v -0.6 0 0.1
v -0.5 -0.2 0.1
v -0.5 0 0.1
v -0.5 0.1 0.1
v -0.3 0 0.1
v -0.3 0.1 0.1
v 0.4 0 0.1
v 0.4 0.1 0.1
v 0.6 -0.2 0.1
v 0.6 0 0.1
v 0.6 0.1 0.1
v 0.7 -0.2 0.1
v 0.7 0 0.1
v 0.3 0.1 0
v 0.3 0.2 0
v 0.5 0.1 0
v 0.5 0.2 0
v 0.3 0.1 -0.1
v 0.3 0.2 -0.1
v 0.5 0.1 -0.1
v 0.5 0.2 -0.1
v -0.6 -0.2 -0.2
v -0.6 0 -0.2
v -0.5 -0.2 -0.2
v -0.5 0 -0.2
v -0.5 0.1 -0.2
v -0.3 0 -0.2
v -0.3 0.1 -0.2
v 0.4 0 -0.2
v 0.4 0.1 -0.2
v 0.6 -0.2 -0.2
v 0.6 0 -0.2
v 0.6 0.1 -0.2
v 0.7 -0.2 -0.2
v 0.7 0 -0.2
v -0.5 -0.2 -0.3
v -0.5 0 -0.3
v -0.4 -0.2 -0.3
v -0.4 0 -0.3
v -0.3 0 -0.3
v -0.3 0.1 -0.3
v -5.96046e-08 0 -0.3
v -5.96046e-08 0.1 -0.3
v 0.1 0 -0.3
v 0.1 0.1 -0.3
v 0.4 0 -0.3
v 0.4 0.1 -0.3
v 0.5 -0.2 -0.3
v 0.5 0 -0.3
v 0.6 -0.2 -0.3
v 0.6 0 -0.3
v -0.4 -0.2 -0.4
v -0.4 0 -0.4
v -0.2 -0.2 -0.4
v -0.2 0 -0.4
v 0.3 -0.2 -0.4
v 0.3 0 -0.4
v 0.5 -0.2 -0.4
v 0.5 0 -0.4
v -0.2 -0.2 -0.5
v -0.2 0 -0.5
v -5.96046e-08 -0.1 -0.5
v -5.96046e-08 0 -0.5
v 0.1 -0.1 -0.5
v 0.1 0 -0.5
v 0.3 -0.2 -0.5
v 0.3 0 -0.5
v -0.2 -0.2 0.4
v 0.3 -0.2 0.4
v -0.4 -0.2 0.3
v -0.2 -0.2 0.3
v 0.3 -0.2 0.3
v 0.5 -0.2 0.3
v -0.5 -0.2 0.2
v -0.4 -0.2 0.2
v 0.5 -0.2 0.2
v 0.6 -0.2 0.2
v -0.6 -0.2 0.1
v -0.5 -0.2 0.1
v 0.6 -0.2 0.1
v 0.7 -0.2 0.1
v -0.6 -0.2 -0.2
v -0.5 -0.2 -0.2
v 0.6 -0.2 -0.2
v 0.7 -0.2 -0.2
v -0.5 -0.2 -0.3
v -0.4 -0.2 -0.3
v 0.5 -0.2 -0.3
v 0.6 -0.2 -0.3
v -0.4 -0.2 -0.4
v -0.2 -0.2 -0.4
v 0.3 -0.2 -0.4
v 0.5 -0.2 -0.4
v -0.2 -0.2 -0.5
v 0.3 -0.2 -0.5
v -0.2 0 0.4
v -5.96046e-08 0 0.4
v 0.1 0 0.4
v 0.3 0 0.4
v -0.4 0 0.3
v -0.2 0 0.3
v 0.3 0 0.3
v 0.5 0 0.3
v -0.5 0 0.2
v -0.4 0 0.2
v -0.3 0 0.2
v -5.96046e-08 0 0.2
v 0.1 0 0.2
v 0.4 0 0.2
v 0.5 0 0.2
v 0.6 0 0.2
v -0.6 0 0.1
v -0.5 0 0.1
v -0.3 0 0.1
v 0.4 0 0.1
v 0.6 0 0.1
v 0.7 0 0.1
v 0.6 0 0
v 0.7 0 0
v 0.6 0 -0.1
v 0.7 0 -0.1
v -0.6 0 -0.2
v -0.5 0 -0.2
v -0.3 0 -0.2
v 0.4 0 -0.2
v 0.6 0 -0.2
v 0.7 0 -0.2
v -0.5 0 -0.3
v -0.4 0 -0.3
v -0.3 0 -0.3
v -5.96046e-08 0 -0.3
v 0.1 0 -0.3
v 0.4 0 -0.3
v 0.5 0 -0.3
v 0.6 0 -0.3
v -0.4 0 -0.4
v -0.2 0 -0.4
v 0.3 0 -0.4
v 0.5 0 -0.4
v -0.2 0 -0.5
v -5.96046e-08 0 -0.5
v 0.1 0 -0.5
v 0.3 0 -0.5
v -0.3 0.1 0.2
v -5.96046e-08 0.1 0.2
v 0.1 0.1 0.2
v 0.4 0.1 0.2
v -0.5 0.1 0.1
v -0.3 0.1 0.1
v 0.4 0.1 0.1
v 0.6 0.1 0.1
v 0.1 0.1 0
v 0.3 0.1 0
v 0.5 0.1 0
v 0.6 0.1 0
v 0.1 0.1 -0.1
v 0.3 0.1 -0.1
v 0.5 0.1 -0.1
v 0.6 0.1 -0.1
v -0.5 0.1 -0.2
v -0.3 0.1 -0.2
v 0.4 0.1 -0.2
v 0.6 0.1 -0.2
v -0.3 0.1 -0.3
v -5.96046e-08 0.1 -0.3
v 0.1 0.1 -0.3
v 0.4 0.1 -0.3
v 0.3 0.2 0
v 0.5 0.2 0
v 0.3 0.2 -0.1
v 0.5 0.2 -0.1

# faces
f 3/3/1 2/3/1 1/3/1
f 4/3/1 2/3/1 3/3/1
f 9/3/1 6/3/1 5/3/1
f 10/3/1 6/3/1 9/3/1
f 11/3/1 8/3/1 7/3/1
f 12/3/1 8/3/1 11/3/1
f 13/3/1 11/3/1 10/3/1
f 14/3/1 11/3/1 13/3/1
f 19/3/1 16/3/1 15/3/1
f 20/3/1 16/3/1 19/3/1
f 21/3/1 18/3/1 17/3/1
f 22/3/1 18/3/1 21/3/1
f 27/3/1 24/3/1 23/3/1
f 28/3/1 24/3/1 27/3/1
f 29/3/1 26/3/1 25/3/1
f 30/3/1 26/3/1 29/3/1
f 35/3/1 32/3/1 31/3/1
f 36/3/1 32/3/1 35/3/1
f 37/3/1 34/3/1 33/3/1
f 38/3/1 34/3/1 37/3/1
f 41/1/1 40/1/1 39/1/1
f 42/1/1 40/1/1 41/1/1
f 43/3/2 44/3/2 47/3/2
f 47/3/2 44/3/2 48/3/2
f 45/3/2 46/3/2 49/3/2
f 49/3/2 46/3/2 50/3/2
f 51/3/2 52/3/2 55/3/2
f 55/3/2 52/3/2 56/3/2
f 53/3/2 54/3/2 57/3/2
f 57/3/2 54/3/2 58/3/2
f 59/3/2 60/3/2 63/3/2
f 63/3/2 60/3/2 64/3/2
f 61/3/2 62/3/2 65/3/2
f 65/3/2 62/3/2 66/3/2
f 67/1/2 68/1/2 69/1/2
f 69/1/2 68/1/2 70/1/2
f 71/3/2 72/3/2 75/3/2
f 75/3/2 72/3/2 76/3/2
f 73/3/2 74/3/2 79/3/2
f 79/3/2 74/3/2 80/3/2
f 76/3/2 77/3/2 81/3/2
f 77/2/2 78/2/2 82/2/2
f 81/3/2 77/3/2 82/3/2
f 78/3/2 79/3/2 83/3/2
f 82/2/2 78/2/2 83/2/2
f 83/3/2 79/3/2 84/3/2
f 85/3/2 86/3/2 87/3/2
f 87/3/2 86/3/2 88/3/2
f 85/3/2 87/3/2 89/3/2
f 87/2/2 88/2/2 90/2/2
f 89/3/2 87/3/2 90/3/2
f 88/3/2 86/3/2 91/3/2
f 90/2/2 88/2/2 91/2/2
f 91/3/2 86/3/2 92/3/2
f 95/3/3 94/3/3 93/3/3
f 96/3/3 94/3/3 95/3/3
f 97/3/3 95/3/3 93/3/3
f 97/2/3 96/2/3 95/2/3
f 98/2/3 96/2/3 97/2/3
f 99/3/3 97/3/3 93/3/3
f 99/3/3 98/3/3 97/3/3
f 100/3/3 98/3/3 99/3/3
f 103/3/3 102/3/3 101/3/3
f 104/3/3 102/3/3 103/3/3
f 107/3/3 106/3/3 105/3/3
f 108/3/3 106/3/3 107/3/3
f 111/3/3 110/3/3 109/3/3
f 112/3/3 110/3/3 111/3/3
f 115/3/3 114/3/3 113/3/3
f 116/3/3 114/3/3 115/3/3
f 117/2/3 116/2/3 115/2/3
f 118/2/3 116/2/3 117/2/3
f 119/3/3 118/3/3 117/3/3
f 120/3/3 118/3/3 119/3/3
f 123/3/3 122/3/3 121/3/3
f 124/3/3 122/3/3 123/3/3
f 127/3/3 126/3/3 125/3/3
f 128/3/3 126/3/3 127/3/3
f 130/3/3 129/3/3 128/3/3
f 131/3/3 129/3/3 130/3/3
f 135/3/3 133/3/3 132/3/3
f 136/3/3 133/3/3 135/3/3
f 137/3/3 135/3/3 134/3/3
f 138/3/3 135/3/3 137/3/3
f 141/1/3 140/1/3 139/1/3
f 142/1/3 140/1/3 141/1/3
f 143/1/4 144/1/4 145/1/4
f 145/1/4 144/1/4 146/1/4
f 147/3/4 148/3/4 149/3/4
f 149/3/4 148/3/4 150/3/4
f 150/3/4 151/3/4 152/3/4
f 152/3/4 151/3/4 153/3/4
f 154/3/4 155/3/4 157/3/4
f 157/3/4 155/3/4 158/3/4
f 156/3/4 157/3/4 159/3/4
f 159/3/4 157/3/4 160/3/4
f 161/3/4 162/3/4 163/3/4
f 163/3/4 162/3/4 164/3/4
f 165/3/4 166/3/4 167/3/4
f 167/3/4 166/3/4 168/3/4
f 167/2/4 168/2/4 169/2/4
f 169/2/4 168/2/4 170/2/4
f 169/3/4 170/3/4 171/3/4
f 171/3/4 170/3/4 172/3/4
f 173/3/4 174/3/4 175/3/4
f 175/3/4 174/3/4 176/3/4
f 177/3/4 178/3/4 179/3/4
f 179/3/4 178/3/4 180/3/4
f 181/3/4 182/3/4 183/3/4
f 183/3/4 182/3/4 184/3/4
f 185/3/4 186/3/4 187/3/4
f 187/3/4 186/3/4 188/3/4
f 185/3/4 187/3/4 189/3/4
f 187/2/4 188/2/4 189/2/4
f 189/2/4 188/2/4 190/2/4
f 185/3/4 189/3/4 191/3/4
f 189/3/4 190/3/4 191/3/4
f 191/3/4 190/3/4 192/3/4
f 196/3/5 194/3/5 193/3/5
f 197/3/5 194/3/5 196/3/5
f 200/3/5 196/3/5 195/3/5
f 200/3/5 198/3/5 197/3/5
f 200/3/5 197/3/5 196/3/5
f 201/3/5 198/3/5 200/3/5
f 204/3/5 200/3/5 199/3/5
f 204/3/5 202/3/5 201/3/5
f 204/3/5 201/3/5 200/3/5
f 205/3/5 202/3/5 204/3/5
f 207/3/5 204/3/5 203/3/5
f 207/3/5 206/3/5 205/3/5
f 207/3/5 205/3/5 204/3/5
f 208/3/5 206/3/5 207/3/5
f 209/3/5 206/3/5 208/3/5
f 210/3/5 206/3/5 209/3/5
f 211/3/5 209/3/5 208/3/5
f 212/3/5 209/3/5 211/3/5
f 213/3/5 209/3/5 212/3/5
f 214/3/5 209/3/5 213/3/5
f 215/3/5 213/3/5 212/3/5
f 216/3/5 213/3/5 215/3/5
f 217/3/5 213/3/5 216/3/5
f 218/3/5 213/3/5 217/3/5
f 219/3/5 217/3/5 216/3/5
f 220/3/5 217/3/5 219/3/5
f 221/3/6 222/3/6 226/3/6
f 223/3/6 224/3/6 227/3/6
f 225/3/6 226/3/6 230/3/6
f 230/3/6 226/3/6 231/3/6
f 222/2/6 223/2/6 232/2/6
f 231/3/6 226/3/6 232/3/6
f 226/3/6 222/3/6 232/3/6
f 227/3/6 228/3/6 233/3/6
f 232/2/6 223/2/6 233/2/6
f 223/3/6 227/3/6 233/3/6
f 233/3/6 228/3/6 234/3/6
f 234/3/6 228/3/6 235/3/6
f 230/3/6 231/3/6 238/3/6
f 229/3/6 230/3/6 238/3/6
f 238/3/6 231/3/6 239/3/6
f 235/3/6 236/3/6 240/3/6
f 234/3/6 235/3/6 240/3/6
f 240/3/6 236/3/6 241/3/6
f 241/3/6 242/3/6 243/3/6
f 243/3/6 242/3/6 244/3/6
f 243/2/6 244/2/6 245/2/6
f 245/2/6 244/2/6 246/2/6
f 237/3/6 238/3/6 247/3/6
f 247/3/6 238/3/6 248/3/6
f 245/3/6 246/3/6 251/3/6
f 251/3/6 246/3/6 252/3/6
f 248/3/6 249/3/6 253/3/6
f 253/3/6 249/3/6 254/3/6
f 254/3/6 249/3/6 255/3/6
f 250/3/6 251/3/6 258/3/6
f 258/3/6 251/3/6 259/3/6
f 259/3/6 251/3/6 260/3/6
f 254/3/6 255/3/6 261/3/6
f 255/3/6 256/3/6 261/3/6
f 261/3/6 256/3/6 262/3/6
f 258/3/6 259/3/6 263/3/6
f 257/3/6 258/3/6 263/3/6
f 263/3/6 259/3/6 264/3/6
f 262/3/6 256/3/6 265/3/6
f 256/2/6 257/2/6 266/2/6
f 265/3/6 256/3/6 266/3/6
f 257/3/6 263/3/6 267/3/6
f 266/2/6 257/2/6 267/2/6
f 267/3/6 263/3/6 268/3/6
f 269/3/6 270/3/6 274/3/6
f 271/3/6 272/3/6 275/3/6
f 270/2/6 271/2/6 277/2/6
f 275/3/6 276/3/6 277/3/6
f 271/3/6 275/3/6 277/3/6
f 277/3/6 276/3/6 278/3/6
f 278/3/6 276/3/6 279/3/6
f 279/3/6 276/3/6 280/3/6
f 270/2/6 277/2/6 281/2/6
f 277/2/6 278/2/6 281/2/6
f 281/2/6 278/2/6 282/2/6
f 279/2/6 280/2/6 283/2/6
f 283/2/6 280/2/6 284/2/6
f 273/3/6 274/3/6 285/3/6
f 274/3/6 270/3/6 286/3/6
f 285/3/6 274/3/6 286/3/6
f 281/3/6 282/3/6 287/3/6
f 282/3/6 283/3/6 287/3/6
f 283/3/6 284/3/6 287/3/6
f 287/3/6 284/3/6 288/3/6
f 286/3/6 270/3/6 289/3/6
f 270/2/6 281/2/6 290/2/6
f 289/3/6 270/3/6 290/3/6
f 281/3/6 287/3/6 291/3/6
f 290/2/6 281/2/6 291/2/6
f 291/3/6 287/3/6 292/3/6
f 293/1/6 294/1/6 295/1/6
f 295/1/6 294/1/6 296/1/6
