# MagicaVoxel @ Ephtracy

# group
o 

# material
mtllib fence.mtl
usemtl palette

# normals
vn -1 0 0
vn 1 0 0
vn 0 0 1
vn 0 0 -1
vn 0 -1 0
vn 0 1 0

# texcoords
vt 0.896484 0.5
vt 0.900391 0.5
vt 0.990234 0.5

# verts
v -1.1 -0.7 0.2
v -1.1 -0.7 -0.3
v -1.1 -0.6 0.2
v -1.1 -0.6 -0.3
v -1.1 -0.5 0.2
v -1.1 -0.5 0.1
v -1.1 -0.4 0.2
v -1.1 -0.4 0.1
v -1.1 -0.4 -0.3
v -1.1 -0.3 0.2
v -1.1 -0.3 -0.3
v -1.1 -0.1 0.1
v -1.1 -0.1 -0.2
v -1.1 0 0.2
v -1.1 0 0.1
v -1.1 0 -0.2
v -1.1 0 -0.3
v -1.1 0.1 0.2
v -1.1 0.1 -0.3
v -1.1 0.3 0.2
v -1.1 0.3 0.1
v -1.1 0.4 0.2
v -1.1 0.4 0.1
v -1.1 0.4 -0.3
v -1.1 0.5 0.2
v -1.1 0.5 -0.3
v -1.1 0.8 0.2
v -1.1 0.8 -0.3
v 0.6 -0.7 0.2
v 0.6 -0.7 -0.1
v 0.6 -0.7 -0.2
v 0.6 -0.7 -0.3
v 0.6 -0.6 0.2
v 0.6 -0.6 -0.1
v 0.6 -0.6 -0.2
v 0.6 -0.6 -0.3
v 0.6 -0.4 0.2
v 0.6 -0.4 -0.3
v 0.6 -0.3 0.2
v 0.6 -0.3 0.1
v 0.6 -0.3 -0.3
v 0.6 -0.2 0.2
v 0.6 -0.2 0.1
v 0.6 -0.2 -0.2
v 0.6 0 0.2
v 0.6 0 0.1
v 0.6 0 -0.2
v 0.6 0 -0.3
v 0.6 0.1 0.2
v 0.6 0.1 0.1
v 0.6 0.1 -0.2
v 0.6 0.1 -0.3
v 0.6 0.3 -0.2
v 0.6 0.3 -0.3
v 0.6 0.4 0.2
v 0.6 0.4 0.1
v 0.6 0.4 -0.2
v 0.6 0.4 -0.3
v 0.6 0.5 0.2
v 0.6 0.5 0.1
v 0.6 0.5 -0.2
v 0.6 0.5 -0.3
v 0.6 0.6 0.2
v 0.6 0.6 0.1
v 0.6 0.7 0.1
v 0.6 0.7 -0.2
v 0.6 0.8 0.2
v 0.6 0.8 -0.3
v -0.6 -0.7 0.2
v -0.6 -0.7 -0.3
v -0.6 -0.6 0.2
v -0.6 -0.6 -0.3
v -0.6 -0.4 0.2
v -0.6 -0.4 -0.3
v -0.6 -0.3 0.2
v -0.6 -0.3 -0.3
v -0.6 -0.2 0.1
v -0.6 -0.2 -0.2
v -0.6 -0.1 -0.2
v -0.6 -0.1 -0.3
v -0.6 0 0.2
v -0.6 0 0.1
v -0.6 0 -0.2
v -0.6 0 -0.3
v -0.6 0.1 0.2
v -0.6 0.1 0.1
v -0.6 0.1 -0.2
v -0.6 0.1 -0.3
v -0.6 0.4 0.2
v -0.6 0.4 0.1
v -0.6 0.4 -0.2
v -0.6 0.4 -0.3
v -0.6 0.5 0.2
v -0.6 0.5 0.1
v -0.6 0.5 -0.2
v -0.6 0.5 -0.3
v -0.6 0.6 0.1
v -0.6 0.7 0.1
v -0.6 0.7 -0.2
v -0.6 0.8 0.2
v -0.6 0.8 -0.3
v 1.1 -0.7 0.2
v 1.1 -0.7 -0.3
v 1.1 -0.6 0.2
v 1.1 -0.6 -0.3
v 1.1 -0.4 0.2
v 1.1 -0.4 -0.3
v 1.1 -0.3 0.2
v 1.1 -0.3 -0.2
v 1.1 -0.3 -0.3
v 1.1 -0.2 -0.2
v 1.1 -0.2 -0.3
v 1.1 0 0.2
v 1.1 0 -0.3
v 1.1 0.1 0.2
v 1.1 0.1 0.1
v 1.1 0.1 -0.3
v 1.1 0.2 0.2
v 1.1 0.2 0.1
v 1.1 0.4 0.2
v 1.1 0.4 -0.3
v 1.1 0.5 0.2
v 1.1 0.5 -0.2
v 1.1 0.5 -0.3
v 1.1 0.6 -0.2
v 1.1 0.6 -0.3
v 1.1 0.8 0.2
v 1.1 0.8 -0.3
v -1.1 -0.7 0.2
v -1.1 -0.6 0.2
v -1.1 -0.5 0.2
v -1.1 -0.4 0.2
v -1.1 -0.3 0.2
v -1.1 0 0.2
v -1.1 0.1 0.2
v -1.1 0.3 0.2
v -1.1 0.4 0.2
v -1.1 0.5 0.2
v -1.1 0.8 0.2
v -1 0.5 0.2
v -1 0.6 0.2
v -0.9 -0.1 0.2
v -0.9 0 0.2
v -0.9 0.5 0.2
v -0.9 0.6 0.2
v -0.8 0.3 0.2
v -0.8 0.4 0.2
v -0.7 -0.5 0.2
v -0.7 -0.4 0.2
v -0.7 -0.1 0.2
v -0.7 0 0.2
v -0.6 -0.7 0.2
v -0.6 -0.6 0.2
v -0.6 -0.4 0.2
v -0.6 -0.3 0.2
v -0.6 0 0.2
v -0.6 0.1 0.2
v -0.6 0.4 0.2
v -0.6 0.5 0.2
v -0.6 0.8 0.2
v 0.6 -0.7 0.2
v 0.6 -0.6 0.2
v 0.6 -0.4 0.2
v 0.6 -0.3 0.2
v 0.6 -0.2 0.2
v 0.6 0 0.2
v 0.6 0.1 0.2
v 0.6 0.4 0.2
v 0.6 0.5 0.2
v 0.6 0.6 0.2
v 0.6 0.8 0.2
v 0.8 -0.3 0.2
v 0.8 -0.2 0.2
v 0.8 0.5 0.2
v 0.8 0.6 0.2
v 0.9 0.1 0.2
v 0.9 0.2 0.2
v 0.9 0.5 0.2
v 0.9 0.6 0.2
v 1.1 -0.7 0.2
v 1.1 -0.6 0.2
v 1.1 -0.4 0.2
v 1.1 -0.3 0.2
v 1.1 0 0.2
v 1.1 0.1 0.2
v 1.1 0.2 0.2
v 1.1 0.4 0.2
v 1.1 0.5 0.2
v 1.1 0.8 0.2
v -0.6 -0.2 0.1
v -0.6 0 0.1
v -0.6 0.1 0.1
v -0.6 0.4 0.1
v -0.6 0.5 0.1
v -0.6 0.6 0.1
v -0.6 0.7 0.1
v -0.5 -0.1 0.1
v -0.5 0 0.1
v -0.3 -0.1 0.1
v -0.3 0 0.1
v -0.3 0.5 0.1
v -0.3 0.6 0.1
v -0.1 -0.2 0.1
v -0.1 0 0.1
v -0.1 0.5 0.1
v -0.1 0.7 0.1
v 0 -0.2 0.1
v 0 -0.1 0.1
v 0 0 0.1
v 0 0.5 0.1
v 0 0.7 0.1
v 0.1 0.5 0.1
v 0.1 0.6 0.1
v 0.3 -0.1 0.1
v 0.3 0 0.1
v 0.3 0.5 0.1
v 0.3 0.6 0.1
v 0.6 -0.2 0.1
v 0.6 0 0.1
v 0.6 0.1 0.1
v 0.6 0.4 0.1
v 0.6 0.5 0.1
v 0.6 0.6 0.1
v 0.6 0.7 0.1
v -0.6 -0.2 -0.2
v -0.6 -0.1 -0.2
v -0.6 0 -0.2
v -0.6 0.1 -0.2
v -0.6 0.4 -0.2
v -0.6 0.5 -0.2
v -0.6 0.7 -0.2
v -0.5 0.5 -0.2
v -0.5 0.6 -0.2
v -0.2 0.6 -0.2
v -0.2 0.7 -0.2
v -0.1 0.5 -0.2
v -0.1 0.7 -0.2
v 0 0.5 -0.2
v 0 0.7 -0.2
v 0.1 -0.1 -0.2
v 0.1 0 -0.2
v 0.2 -0.2 -0.2
v 0.2 -0.1 -0.2
v 0.3 -0.2 -0.2
v 0.3 -0.1 -0.2
v 0.4 -0.1 -0.2
v 0.4 0 -0.2
v 0.6 -0.2 -0.2
v 0.6 0 -0.2
v 0.6 0.1 -0.2
v 0.6 0.4 -0.2
v 0.6 0.5 -0.2
v 0.6 0.7 -0.2
v -1.1 -0.7 -0.3
v -1.1 -0.6 -0.3
v -1.1 -0.4 -0.3
v -1.1 -0.3 -0.3
v -1.1 0 -0.3
v -1.1 0.1 -0.3
v -1.1 0.4 -0.3
v -1.1 0.5 -0.3
v -1.1 0.8 -0.3
v -1 -0.1 -0.3
v -1 0 -0.3
v -0.6 -0.7 -0.3
v -0.6 -0.6 -0.3
v -0.6 -0.4 -0.3
v -0.6 -0.3 -0.3
v -0.6 -0.1 -0.3
v -0.6 0 -0.3
v -0.6 0.1 -0.3
v -0.6 0.4 -0.3
v -0.6 0.5 -0.3
v -0.6 0.8 -0.3
v 0.6 -0.7 -0.3
v 0.6 -0.6 -0.3
v 0.6 -0.4 -0.3
v 0.6 -0.3 -0.3
v 0.6 0 -0.3
v 0.6 0.1 -0.3
v 0.6 0.3 -0.3
v 0.6 0.4 -0.3
v 0.6 0.5 -0.3
v 0.6 0.8 -0.3
v 0.7 0.2 -0.3
v 0.7 0.3 -0.3
v 0.8 -0.3 -0.3
v 0.8 -0.2 -0.3
v 0.8 0.5 -0.3
v 0.8 0.7 -0.3
v 0.9 0.1 -0.3
v 0.9 0.2 -0.3
v 0.9 0.6 -0.3
v 0.9 0.7 -0.3
v 1.1 -0.7 -0.3
v 1.1 -0.6 -0.3
v 1.1 -0.4 -0.3
v 1.1 -0.3 -0.3
v 1.1 -0.2 -0.3
v 1.1 0 -0.3
v 1.1 0.1 -0.3
v 1.1 0.4 -0.3
v 1.1 0.5 -0.3
v 1.1 0.6 -0.3
v 1.1 0.8 -0.3
v -1.1 -0.7 0.2
v -0.6 -0.7 0.2
v 0.6 -0.7 0.2
v 1.1 -0.7 0.2
v 0.6 -0.7 -0.1
v 1 -0.7 -0.1
v 0.6 -0.7 -0.2
v 1 -0.7 -0.2
v -1.1 -0.7 -0.3
v -0.6 -0.7 -0.3
v 0.6 -0.7 -0.3
v 1.1 -0.7 -0.3
v -0.6 -0.2 0.1
v -0.1 -0.2 0.1
v 0 -0.2 0.1
v 0.6 -0.2 0.1
v -0.1 -0.2 0
v 0 -0.2 0
v 0.2 -0.2 -0.1
v 0.3 -0.2 -0.1
v -0.6 -0.2 -0.2
v 0.2 -0.2 -0.2
v 0.3 -0.2 -0.2
v 0.6 -0.2 -0.2
v -0.6 0.4 0.1
v 0.6 0.4 0.1
v -0.6 0.4 -0.2
v 0.6 0.4 -0.2
v -0.6 0.1 0.1
v 0.6 0.1 0.1
v -0.6 0.1 -0.2
v 0.6 0.1 -0.2
v -0.6 0.7 0.1
v -0.1 0.7 0.1
v 0 0.7 0.1
v 0.6 0.7 0.1
v -0.2 0.7 -0.1
v -0.1 0.7 -0.1
v -0.6 0.7 -0.2
v -0.2 0.7 -0.2
v -0.1 0.7 -0.2
v 0 0.7 -0.2
v 0.6 0.7 -0.2
v -1.1 0.8 0.2
v -0.6 0.8 0.2
v 0.6 0.8 0.2
v 1.1 0.8 0.2
v -1.1 0.8 -0.3
v -0.6 0.8 -0.3
v 0.6 0.8 -0.3
v 1.1 0.8 -0.3

# faces
f 3/1/1 2/1/1 1/1/1
f 4/1/1 2/1/1 3/1/1
f 5/3/1 4/3/1 3/3/1
f 6/3/1 4/3/1 5/3/1
f 7/2/1 6/2/1 5/2/1
f 8/3/1 4/3/1 6/3/1
f 8/2/1 6/2/1 7/2/1
f 9/3/1 4/3/1 8/3/1
f 10/1/1 8/1/1 7/1/1
f 10/1/1 9/1/1 8/1/1
f 11/1/1 9/1/1 10/1/1
f 12/3/1 11/3/1 10/3/1
f 13/3/1 11/3/1 12/3/1
f 14/3/1 12/3/1 10/3/1
f 15/2/1 13/2/1 12/2/1
f 15/3/1 12/3/1 14/3/1
f 16/3/1 11/3/1 13/3/1
f 16/2/1 13/2/1 15/2/1
f 17/3/1 11/3/1 16/3/1
f 18/1/1 15/1/1 14/1/1
f 18/1/1 16/1/1 15/1/1
f 18/1/1 17/1/1 16/1/1
f 19/1/1 17/1/1 18/1/1
f 20/3/1 19/3/1 18/3/1
f 21/3/1 19/3/1 20/3/1
f 22/2/1 21/2/1 20/2/1
f 23/3/1 19/3/1 21/3/1
f 23/2/1 21/2/1 22/2/1
f 24/3/1 19/3/1 23/3/1
f 25/1/1 23/1/1 22/1/1
f 25/1/1 24/1/1 23/1/1
f 26/1/1 24/1/1 25/1/1
f 27/3/1 26/3/1 25/3/1
f 28/3/1 26/3/1 27/3/1
f 33/1/1 30/1/1 29/1/1
f 34/3/1 31/3/1 30/3/1
f 34/1/1 30/1/1 33/1/1
f 35/1/1 32/1/1 31/1/1
f 35/3/1 31/3/1 34/3/1
f 36/1/1 32/1/1 35/1/1
f 37/3/1 34/3/1 33/3/1
f 37/3/1 35/3/1 34/3/1
f 37/3/1 36/3/1 35/3/1
f 38/3/1 36/3/1 37/3/1
f 39/1/1 38/1/1 37/1/1
f 40/1/1 38/1/1 39/1/1
f 41/1/1 38/1/1 40/1/1
f 42/2/1 40/2/1 39/2/1
f 43/3/1 41/3/1 40/3/1
f 43/2/1 40/2/1 42/2/1
f 44/3/1 41/3/1 43/3/1
f 45/3/1 43/3/1 42/3/1
f 46/3/1 43/3/1 45/3/1
f 47/3/1 41/3/1 44/3/1
f 48/3/1 41/3/1 47/3/1
f 49/1/1 46/1/1 45/1/1
f 50/1/1 46/1/1 49/1/1
f 51/1/1 48/1/1 47/1/1
f 52/1/1 48/1/1 51/1/1
f 53/3/1 50/3/1 49/3/1
f 53/3/1 51/3/1 50/3/1
f 53/2/1 52/2/1 51/2/1
f 54/2/1 52/2/1 53/2/1
f 55/3/1 53/3/1 49/3/1
f 55/3/1 54/3/1 53/3/1
f 56/3/1 54/3/1 55/3/1
f 57/3/1 54/3/1 56/3/1
f 58/3/1 54/3/1 57/3/1
f 59/1/1 56/1/1 55/1/1
f 60/1/1 56/1/1 59/1/1
f 61/1/1 58/1/1 57/1/1
f 62/1/1 58/1/1 61/1/1
f 63/2/1 60/2/1 59/2/1
f 64/2/1 60/2/1 63/2/1
f 65/3/1 64/3/1 63/3/1
f 66/3/1 62/3/1 61/3/1
f 67/3/1 65/3/1 63/3/1
f 67/3/1 66/3/1 65/3/1
f 68/3/1 62/3/1 66/3/1
f 68/3/1 66/3/1 67/3/1
f 69/1/2 70/1/2 71/1/2
f 71/1/2 70/1/2 72/1/2
f 71/3/2 72/3/2 73/3/2
f 73/3/2 72/3/2 74/3/2
f 73/1/2 74/1/2 75/1/2
f 75/1/2 74/1/2 76/1/2
f 75/3/2 76/3/2 77/3/2
f 77/3/2 76/3/2 78/3/2
f 78/3/2 76/3/2 79/3/2
f 79/3/2 76/3/2 80/3/2
f 75/3/2 77/3/2 81/3/2
f 81/3/2 77/3/2 82/3/2
f 79/2/2 80/2/2 83/2/2
f 83/2/2 80/2/2 84/2/2
f 81/1/2 82/1/2 85/1/2
f 85/1/2 82/1/2 86/1/2
f 83/1/2 84/1/2 87/1/2
f 87/1/2 84/1/2 88/1/2
f 85/3/2 86/3/2 89/3/2
f 86/3/2 87/3/2 89/3/2
f 87/3/2 88/3/2 89/3/2
f 89/3/2 88/3/2 90/3/2
f 90/3/2 88/3/2 91/3/2
f 91/3/2 88/3/2 92/3/2
f 89/1/2 90/1/2 93/1/2
f 93/1/2 90/1/2 94/1/2
f 91/1/2 92/1/2 95/1/2
f 95/1/2 92/1/2 96/1/2
f 93/3/2 94/3/2 97/3/2
f 93/3/2 97/3/2 98/3/2
f 95/3/2 96/3/2 99/3/2
f 93/3/2 98/3/2 100/3/2
f 98/3/2 99/3/2 100/3/2
f 99/3/2 96/3/2 101/3/2
f 100/3/2 99/3/2 101/3/2
f 102/1/2 103/1/2 104/1/2
f 104/1/2 103/1/2 105/1/2
f 104/3/2 105/3/2 106/3/2
f 106/3/2 105/3/2 107/3/2
f 106/1/2 107/1/2 108/1/2
f 108/1/2 107/1/2 109/1/2
f 109/1/2 107/1/2 110/1/2
f 108/3/2 109/3/2 111/3/2
f 109/2/2 110/2/2 111/2/2
f 111/2/2 110/2/2 112/2/2
f 108/3/2 111/3/2 113/3/2
f 111/3/2 112/3/2 113/3/2
f 113/3/2 112/3/2 114/3/2
f 113/1/2 114/1/2 115/1/2
f 115/1/2 114/1/2 116/1/2
f 116/1/2 114/1/2 117/1/2
f 115/2/2 116/2/2 118/2/2
f 116/3/2 117/3/2 119/3/2
f 118/2/2 116/2/2 119/2/2
f 118/3/2 119/3/2 120/3/2
f 119/3/2 117/3/2 121/3/2
f 120/3/2 119/3/2 121/3/2
f 120/1/2 121/1/2 122/1/2
f 122/1/2 121/1/2 123/1/2
f 123/1/2 121/1/2 124/1/2
f 122/3/2 123/3/2 125/3/2
f 123/2/2 124/2/2 125/2/2
f 125/2/2 124/2/2 126/2/2
f 122/3/2 125/3/2 127/3/2
f 125/3/2 126/3/2 127/3/2
f 127/3/2 126/3/2 128/3/2
f 140/1/3 138/1/3 137/1/3
f 140/3/3 139/3/3 138/3/3
f 141/3/3 139/3/3 140/3/3
f 142/3/3 134/3/3 133/3/3
f 143/1/3 135/1/3 134/1/3
f 143/3/3 134/3/3 142/3/3
f 144/1/3 140/1/3 137/1/3
f 144/1/3 141/1/3 140/1/3
f 145/3/3 139/3/3 141/3/3
f 145/1/3 141/1/3 144/1/3
f 146/3/3 136/3/3 135/3/3
f 146/2/3 137/2/3 136/2/3
f 147/1/3 144/1/3 137/1/3
f 147/2/3 137/2/3 146/2/3
f 148/3/3 131/3/3 130/3/3
f 148/2/3 132/2/3 131/2/3
f 149/1/3 133/1/3 132/1/3
f 149/2/3 132/2/3 148/2/3
f 150/3/3 142/3/3 133/3/3
f 150/2/3 143/2/3 142/2/3
f 151/1/3 135/1/3 143/1/3
f 151/2/3 143/2/3 150/2/3
f 152/1/3 130/1/3 129/1/3
f 153/3/3 148/3/3 130/3/3
f 153/1/3 130/1/3 152/1/3
f 153/3/3 149/3/3 148/3/3
f 154/1/3 133/1/3 149/1/3
f 154/3/3 149/3/3 153/3/3
f 155/3/3 150/3/3 133/3/3
f 155/1/3 133/1/3 154/1/3
f 155/3/3 151/3/3 150/3/3
f 156/1/3 135/1/3 151/1/3
f 156/3/3 151/3/3 155/3/3
f 157/3/3 147/3/3 146/3/3
f 157/1/3 135/1/3 156/1/3
f 157/3/3 146/3/3 135/3/3
f 158/1/3 144/1/3 147/1/3
f 158/3/3 147/3/3 157/3/3
f 159/3/3 145/3/3 144/3/3
f 159/1/3 144/1/3 158/1/3
f 160/3/3 139/3/3 145/3/3
f 160/3/3 145/3/3 159/3/3
f 172/1/3 164/1/3 163/1/3
f 172/2/3 165/2/3 164/2/3
f 173/3/3 166/3/3 165/3/3
f 173/2/3 165/2/3 172/2/3
f 174/2/3 170/2/3 169/2/3
f 174/1/3 169/1/3 168/1/3
f 175/3/3 171/3/3 170/3/3
f 175/2/3 170/2/3 174/2/3
f 176/1/3 167/1/3 166/1/3
f 176/3/3 168/3/3 167/3/3
f 177/3/3 168/3/3 176/3/3
f 178/1/3 174/1/3 168/1/3
f 178/1/3 175/1/3 174/1/3
f 179/3/3 171/3/3 175/3/3
f 179/1/3 175/1/3 178/1/3
f 180/1/3 162/1/3 161/1/3
f 181/3/3 163/3/3 162/3/3
f 181/1/3 162/1/3 180/1/3
f 182/1/3 172/1/3 163/1/3
f 182/3/3 163/3/3 181/3/3
f 183/3/3 173/3/3 172/3/3
f 183/1/3 172/1/3 182/1/3
f 184/3/3 166/3/3 173/3/3
f 184/3/3 173/3/3 183/3/3
f 184/1/3 176/1/3 166/1/3
f 185/2/3 177/2/3 176/2/3
f 185/1/3 176/1/3 184/1/3
f 186/3/3 168/3/3 177/3/3
f 186/2/3 177/2/3 185/2/3
f 187/1/3 178/1/3 168/1/3
f 187/3/3 168/3/3 186/3/3
f 188/3/3 179/3/3 178/3/3
f 188/1/3 178/1/3 187/1/3
f 189/3/3 171/3/3 179/3/3
f 189/3/3 179/3/3 188/3/3
f 197/3/3 191/3/3 190/3/3
f 198/1/3 192/1/3 191/1/3
f 198/3/3 191/3/3 197/3/3
f 199/3/3 197/3/3 190/3/3
f 199/2/3 198/2/3 197/2/3
f 200/1/3 192/1/3 198/1/3
f 200/2/3 198/2/3 199/2/3
f 201/1/3 194/1/3 193/1/3
f 201/2/3 195/2/3 194/2/3
f 202/3/3 196/3/3 195/3/3
f 202/2/3 195/2/3 201/2/3
f 203/3/3 199/3/3 190/3/3
f 203/3/3 200/3/3 199/3/3
f 204/1/3 192/1/3 200/1/3
f 204/3/3 200/3/3 203/3/3
f 205/1/3 201/1/3 193/1/3
f 205/3/3 202/3/3 201/3/3
f 206/3/3 196/3/3 202/3/3
f 206/3/3 202/3/3 205/3/3
f 207/1/3 204/1/3 203/1/3
f 208/1/3 204/1/3 207/1/3
f 209/1/3 192/1/3 204/1/3
f 209/1/3 204/1/3 208/1/3
f 210/1/3 205/1/3 193/1/3
f 210/1/3 206/1/3 205/1/3
f 211/1/3 206/1/3 210/1/3
f 212/1/3 210/1/3 193/1/3
f 212/3/3 211/3/3 210/3/3
f 213/3/3 211/3/3 212/3/3
f 214/3/3 208/3/3 207/3/3
f 214/2/3 209/2/3 208/2/3
f 215/1/3 192/1/3 209/1/3
f 215/2/3 209/2/3 214/2/3
f 216/2/3 213/2/3 212/2/3
f 216/1/3 212/1/3 193/1/3
f 217/3/3 211/3/3 213/3/3
f 217/2/3 213/2/3 216/2/3
f 218/3/3 214/3/3 207/3/3
f 218/3/3 215/3/3 214/3/3
f 219/1/3 192/1/3 215/1/3
f 219/3/3 215/3/3 218/3/3
f 220/1/3 192/1/3 219/1/3
f 221/1/3 216/1/3 193/1/3
f 222/3/3 217/3/3 216/3/3
f 222/1/3 216/1/3 221/1/3
f 223/3/3 211/3/3 217/3/3
f 223/3/3 217/3/3 222/3/3
f 224/3/3 211/3/3 223/3/3
f 229/1/4 230/1/4 232/1/4
f 230/3/4 231/3/4 232/3/4
f 232/3/4 231/3/4 233/3/4
f 232/2/4 233/2/4 234/2/4
f 233/3/4 231/3/4 234/3/4
f 234/3/4 231/3/4 235/3/4
f 229/1/4 232/1/4 236/1/4
f 232/2/4 234/2/4 236/2/4
f 234/2/4 235/2/4 236/2/4
f 236/2/4 235/2/4 237/2/4
f 229/1/4 236/1/4 238/1/4
f 236/1/4 237/1/4 238/1/4
f 238/1/4 237/1/4 239/1/4
f 225/3/4 226/3/4 240/3/4
f 226/3/4 227/3/4 240/3/4
f 227/1/4 228/1/4 241/1/4
f 240/3/4 227/3/4 241/3/4
f 225/3/4 240/3/4 242/3/4
f 240/2/4 241/2/4 243/2/4
f 242/3/4 240/3/4 243/3/4
f 242/2/4 243/2/4 244/2/4
f 243/2/4 241/2/4 245/2/4
f 244/2/4 243/2/4 245/2/4
f 244/3/4 245/3/4 246/3/4
f 245/2/4 241/2/4 246/2/4
f 241/1/4 228/1/4 247/1/4
f 246/2/4 241/2/4 247/2/4
f 244/3/4 246/3/4 248/3/4
f 246/3/4 247/3/4 248/3/4
f 247/1/4 228/1/4 249/1/4
f 248/3/4 247/3/4 249/3/4
f 249/1/4 228/1/4 250/1/4
f 229/1/4 238/1/4 251/1/4
f 238/3/4 239/3/4 252/3/4
f 251/1/4 238/1/4 252/1/4
f 252/3/4 239/3/4 253/3/4
f 257/3/4 258/3/4 263/3/4
f 258/1/4 259/1/4 264/1/4
f 263/3/4 258/3/4 264/3/4
f 254/1/4 255/1/4 265/1/4
f 255/3/4 256/3/4 266/3/4
f 265/1/4 255/1/4 266/1/4
f 256/1/4 257/1/4 267/1/4
f 266/3/4 256/3/4 267/3/4
f 257/3/4 263/3/4 268/3/4
f 267/1/4 257/1/4 268/1/4
f 263/2/4 264/2/4 269/2/4
f 268/3/4 263/3/4 269/3/4
f 264/1/4 259/1/4 270/1/4
f 269/2/4 264/2/4 270/2/4
f 259/3/4 260/3/4 271/3/4
f 270/1/4 259/1/4 271/1/4
f 260/1/4 261/1/4 272/1/4
f 271/3/4 260/3/4 272/3/4
f 261/3/4 262/3/4 273/3/4
f 272/1/4 261/1/4 273/1/4
f 273/3/4 262/3/4 274/3/4
f 280/2/4 281/2/4 285/2/4
f 281/3/4 282/3/4 286/3/4
f 285/2/4 281/2/4 286/2/4
f 277/1/4 278/1/4 287/1/4
f 278/3/4 279/3/4 287/3/4
f 287/3/4 279/3/4 288/3/4
f 283/3/4 284/3/4 289/3/4
f 282/1/4 283/1/4 289/1/4
f 289/3/4 284/3/4 290/3/4
f 279/1/4 280/1/4 291/1/4
f 280/2/4 285/2/4 291/2/4
f 285/3/4 286/3/4 292/3/4
f 291/2/4 285/2/4 292/2/4
f 289/2/4 290/2/4 293/2/4
f 290/3/4 284/3/4 294/3/4
f 293/2/4 290/2/4 294/2/4
f 275/1/4 276/1/4 295/1/4
f 276/3/4 277/3/4 296/3/4
f 295/1/4 276/1/4 296/1/4
f 277/1/4 287/1/4 297/1/4
f 296/3/4 277/3/4 297/3/4
f 287/2/4 288/2/4 298/2/4
f 297/1/4 287/1/4 298/1/4
f 288/3/4 279/3/4 299/3/4
f 298/2/4 288/2/4 299/2/4
f 279/1/4 291/1/4 300/1/4
f 299/3/4 279/3/4 300/3/4
f 291/3/4 292/3/4 301/3/4
f 300/1/4 291/1/4 301/1/4
f 286/3/4 282/3/4 302/3/4
f 301/3/4 292/3/4 302/3/4
f 292/3/4 286/3/4 302/3/4
f 282/1/4 289/1/4 302/1/4
f 289/2/4 293/2/4 303/2/4
f 302/1/4 289/1/4 303/1/4
f 293/3/4 294/3/4 304/3/4
f 303/2/4 293/2/4 304/2/4
f 294/3/4 284/3/4 305/3/4
f 304/3/4 294/3/4 305/3/4
f 310/1/5 309/1/5 308/1/5
f 311/1/5 309/1/5 310/1/5
f 312/3/5 311/3/5 310/3/5
f 313/1/5 309/1/5 311/1/5
f 313/3/5 311/3/5 312/3/5
f 314/1/5 307/1/5 306/1/5
f 315/1/5 307/1/5 314/1/5
f 316/1/5 313/1/5 312/1/5
f 317/1/5 309/1/5 313/1/5
f 317/1/5 313/1/5 316/1/5
f 322/3/5 319/3/5 318/3/5
f 322/1/5 320/1/5 319/1/5
f 323/3/5 321/3/5 320/3/5
f 323/1/5 320/1/5 322/1/5
f 324/3/5 323/3/5 322/3/5
f 324/3/5 321/3/5 323/3/5
f 325/3/5 321/3/5 324/3/5
f 326/3/5 322/3/5 318/3/5
f 326/3/5 324/3/5 322/3/5
f 327/2/5 325/2/5 324/2/5
f 327/3/5 324/3/5 326/3/5
f 328/3/5 321/3/5 325/3/5
f 328/2/5 325/2/5 327/2/5
f 329/3/5 321/3/5 328/3/5
f 332/1/5 331/1/5 330/1/5
f 333/1/5 331/1/5 332/1/5
f 334/1/6 335/1/6 336/1/6
f 336/1/6 335/1/6 337/1/6
f 338/3/6 339/3/6 342/3/6
f 339/1/6 340/1/6 343/1/6
f 342/3/6 339/3/6 343/3/6
f 338/3/6 342/3/6 344/3/6
f 342/2/6 343/2/6 345/2/6
f 344/3/6 342/3/6 345/3/6
f 343/1/6 340/1/6 346/1/6
f 345/2/6 343/2/6 346/2/6
f 340/3/6 341/3/6 347/3/6
f 346/1/6 340/1/6 347/1/6
f 347/3/6 341/3/6 348/3/6
f 349/3/6 350/3/6 353/3/6
f 353/3/6 350/3/6 354/3/6
f 351/3/6 352/3/6 355/3/6
f 355/3/6 352/3/6 356/3/6
