# MagicaVoxel @ Ephtracy

# group
o 

# material
mtllib fence2.mtl
usemtl palette

# normals
vn -1 0 0
vn 1 0 0
vn 0 0 1
vn 0 0 -1
vn 0 -1 0
vn 0 1 0

# texcoords
vt 0.896484 0.5
vt 0.900391 0.5
vt 0.990234 0.5

# verts
v -1.7 -0.2 0.1
v -1.7 -0.2 -0.2
v -1.7 0 0.1
v -1.7 0 0
v -1.7 0 -0.1
v -1.7 0 -0.2
v -1.7 0.1 0.1
v -1.7 0.1 0
v -1.7 0.1 -0.1
v -1.7 0.1 -0.2
v -1.7 0.4 0.1
v -1.7 0.4 -0.2
v -1.7 0.5 0.1
v -1.7 0.5 -0.2
v -1.7 0.7 0.1
v -1.7 0.7 -0.2
v -1.1 -0.7 0.2
v -1.1 -0.7 -0.3
v -1.1 -0.6 0.2
v -1.1 -0.6 -0.3
v -1.1 -0.5 0.2
v -1.1 -0.5 0.1
v -1.1 -0.4 0.2
v -1.1 -0.4 0.1
v -1.1 -0.4 -0.3
v -1.1 -0.3 0.2
v -1.1 -0.3 -0.3
v -1.1 -0.2 0.1
v -1.1 -0.2 -0.2
v -1.1 0 0.2
v -1.1 0 0.1
v -1.1 0 -0.2
v -1.1 0 -0.3
v -1.1 0.1 0.2
v -1.1 0.1 0.1
v -1.1 0.1 0
v -1.1 0.1 -0.1
v -1.1 0.1 -0.2
v -1.1 0.1 -0.3
v -1.1 0.3 0.2
v -1.1 0.3 0.1
v -1.1 0.4 0.2
v -1.1 0.4 0.1
v -1.1 0.4 -0.2
v -1.1 0.4 -0.3
v -1.1 0.5 0.2
v -1.1 0.5 0.1
v -1.1 0.5 -0.2
v -1.1 0.5 -0.3
v -1.1 0.7 0.1
v -1.1 0.7 -0.2
v -1.1 0.8 0.2
v -1.1 0.8 -0.3
v 0.6 -0.7 0.2
v 0.6 -0.7 -0.1
v 0.6 -0.7 -0.2
v 0.6 -0.7 -0.3
v 0.6 -0.6 0.2
v 0.6 -0.6 -0.1
v 0.6 -0.6 -0.2
v 0.6 -0.6 -0.3
v 0.6 -0.4 0.2
v 0.6 -0.4 -0.3
v 0.6 -0.3 0.2
v 0.6 -0.3 0.1
v 0.6 -0.3 -0.3
v 0.6 -0.2 0.2
v 0.6 -0.2 0.1
v 0.6 -0.2 -0.2
v 0.6 0 0.2
v 0.6 0 0.1
v 0.6 0 -0.2
v 0.6 0 -0.3
v 0.6 0.1 0.2
v 0.6 0.1 0.1
v 0.6 0.1 -0.2
v 0.6 0.1 -0.3
v 0.6 0.3 -0.2
v 0.6 0.3 -0.3
v 0.6 0.4 0.2
v 0.6 0.4 0.1
v 0.6 0.4 -0.2
v 0.6 0.4 -0.3
v 0.6 0.5 0.2
v 0.6 0.5 0.1
v 0.6 0.5 -0.2
v 0.6 0.5 -0.3
v 0.6 0.6 0.2
v 0.6 0.6 0.1
v 0.6 0.7 0.1
v 0.6 0.7 -0.2
v 0.6 0.8 0.2
v 0.6 0.8 -0.3
v -0.6 -0.7 0.2
v -0.6 -0.7 -0.3
v -0.6 -0.6 0.2
v -0.6 -0.6 -0.3
v -0.6 -0.4 0.2
v -0.6 -0.4 -0.3
v -0.6 -0.3 0.2
v -0.6 -0.3 -0.3
v -0.6 -0.2 0.1
v -0.6 -0.2 -0.2
v -0.6 -0.1 -0.2
v -0.6 -0.1 -0.3
v -0.6 0 0.2
v -0.6 0 0.1
v -0.6 0 -0.2
v -0.6 0 -0.3
v -0.6 0.1 0.2
v -0.6 0.1 0.1
v -0.6 0.1 -0.2
v -0.6 0.1 -0.3
v -0.6 0.4 0.2
v -0.6 0.4 0.1
v -0.6 0.4 -0.2
v -0.6 0.4 -0.3
v -0.6 0.5 0.2
v -0.6 0.5 0.1
v -0.6 0.5 -0.2
v -0.6 0.5 -0.3
v -0.6 0.6 0.1
v -0.6 0.7 0.1
v -0.6 0.7 -0.2
v -0.6 0.8 0.2
v -0.6 0.8 -0.3
v 1.1 -0.7 0.2
v 1.1 -0.7 -0.3
v 1.1 -0.6 0.2
v 1.1 -0.6 -0.3
v 1.1 -0.4 0.2
v 1.1 -0.4 -0.3
v 1.1 -0.3 0.2
v 1.1 -0.3 -0.2
v 1.1 -0.3 -0.3
v 1.1 -0.2 0.1
v 1.1 -0.2 -0.2
v 1.1 -0.2 -0.3
v 1.1 0 0.2
v 1.1 0 0.1
v 1.1 0 -0.2
v 1.1 0 -0.3
v 1.1 0.1 0.2
v 1.1 0.1 0.1
v 1.1 0.1 0
v 1.1 0.1 -0.1
v 1.1 0.1 -0.2
v 1.1 0.1 -0.3
v 1.1 0.2 0.2
v 1.1 0.2 0.1
v 1.1 0.4 0.2
v 1.1 0.4 0.1
v 1.1 0.4 0
v 1.1 0.4 -0.1
v 1.1 0.4 -0.2
v 1.1 0.4 -0.3
v 1.1 0.5 0.2
v 1.1 0.5 0.1
v 1.1 0.5 -0.2
v 1.1 0.5 -0.3
v 1.1 0.6 -0.2
v 1.1 0.6 -0.3
v 1.1 0.7 0.1
v 1.1 0.7 -0.2
v 1.1 0.8 0.2
v 1.1 0.8 -0.3
v 1.7 -0.2 0.1
v 1.7 -0.2 0
v 1.7 -0.2 -0.2
v 1.7 0 0
v 1.7 0 -0.2
v 1.7 0.1 0.1
v 1.7 0.1 -0.2
v 1.7 0.4 0.1
v 1.7 0.4 0
v 1.7 0.4 -0.1
v 1.7 0.4 -0.2
v 1.7 0.5 0
v 1.7 0.5 -0.1
v 1.7 0.7 0.1
v 1.7 0.7 -0.2
v -1.1 -0.7 0.2
v -1.1 -0.6 0.2
v -1.1 -0.5 0.2
v -1.1 -0.4 0.2
v -1.1 -0.3 0.2
v -1.1 0 0.2
v -1.1 0.1 0.2
v -1.1 0.3 0.2
v -1.1 0.4 0.2
v -1.1 0.5 0.2
v -1.1 0.8 0.2
v -1 0.5 0.2
v -1 0.6 0.2
v -0.9 -0.1 0.2
v -0.9 0 0.2
v -0.9 0.5 0.2
v -0.9 0.6 0.2
v -0.8 0.3 0.2
v -0.8 0.4 0.2
v -0.7 -0.5 0.2
v -0.7 -0.4 0.2
v -0.7 -0.1 0.2
v -0.7 0 0.2
v -0.6 -0.7 0.2
v -0.6 -0.6 0.2
v -0.6 -0.4 0.2
v -0.6 -0.3 0.2
v -0.6 0 0.2
v -0.6 0.1 0.2
v -0.6 0.4 0.2
v -0.6 0.5 0.2
v -0.6 0.8 0.2
v 0.6 -0.7 0.2
v 0.6 -0.6 0.2
v 0.6 -0.4 0.2
v 0.6 -0.3 0.2
v 0.6 -0.2 0.2
v 0.6 0 0.2
v 0.6 0.1 0.2
v 0.6 0.4 0.2
v 0.6 0.5 0.2
v 0.6 0.6 0.2
v 0.6 0.8 0.2
v 0.8 -0.3 0.2
v 0.8 -0.2 0.2
v 0.8 0.5 0.2
v 0.8 0.6 0.2
v 0.9 0.1 0.2
v 0.9 0.2 0.2
v 0.9 0.5 0.2
v 0.9 0.6 0.2
v 1.1 -0.7 0.2
v 1.1 -0.6 0.2
v 1.1 -0.4 0.2
v 1.1 -0.3 0.2
v 1.1 0 0.2
v 1.1 0.1 0.2
v 1.1 0.2 0.2
v 1.1 0.4 0.2
v 1.1 0.5 0.2
v 1.1 0.8 0.2
v -1.7 -0.2 0.1
v -1.7 0 0.1
v -1.7 0.1 0.1
v -1.7 0.4 0.1
v -1.7 0.5 0.1
v -1.7 0.7 0.1
v -1.5 -0.1 0.1
v -1.5 0 0.1
v -1.5 0.5 0.1
v -1.5 0.6 0.1
v -1.4 -0.2 0.1
v -1.4 -0.1 0.1
v -1.4 0.6 0.1
v -1.4 0.7 0.1
v -1.3 -0.2 0.1
v -1.3 -0.1 0.1
v -1.3 0.5 0.1
v -1.3 0.7 0.1
v -1.2 -0.1 0.1
v -1.2 0 0.1
v -1.1 -0.2 0.1
v -1.1 0 0.1
v -1.1 0.1 0.1
v -1.1 0.4 0.1
v -1.1 0.5 0.1
v -1.1 0.7 0.1
v -0.6 -0.2 0.1
v -0.6 0 0.1
v -0.6 0.1 0.1
v -0.6 0.4 0.1
v -0.6 0.5 0.1
v -0.6 0.6 0.1
v -0.6 0.7 0.1
v -0.5 -0.1 0.1
v -0.5 0 0.1
v -0.3 -0.1 0.1
v -0.3 0 0.1
v -0.3 0.5 0.1
v -0.3 0.6 0.1
v -0.1 -0.2 0.1
v -0.1 0 0.1
v -0.1 0.5 0.1
v -0.1 0.7 0.1
v 0 -0.2 0.1
v 0 -0.1 0.1
v 0 0 0.1
v 0 0.5 0.1
v 0 0.7 0.1
v 0.0999999 0.5 0.1
v 0.0999999 0.6 0.1
v 0.3 -0.1 0.1
v 0.3 0 0.1
v 0.3 0.5 0.1
v 0.3 0.6 0.1
v 0.6 -0.2 0.1
v 0.6 0 0.1
v 0.6 0.1 0.1
v 0.6 0.4 0.1
v 0.6 0.5 0.1
v 0.6 0.6 0.1
v 0.6 0.7 0.1
v 1.1 -0.2 0.1
v 1.1 0 0.1
v 1.1 0.1 0.1
v 1.1 0.4 0.1
v 1.1 0.5 0.1
v 1.1 0.7 0.1
v 1.3 -0.1 0.1
v 1.3 0 0.1
v 1.3 0.5 0.1
v 1.3 0.6 0.1
v 1.5 -0.2 0.1
v 1.5 -0.1 0.1
v 1.6 -0.2 0.1
v 1.6 0 0.1
v 1.6 0.5 0.1
v 1.6 0.6 0.1
v 1.6 0.7 0.1
v 1.7 -0.2 0.1
v 1.7 0.1 0.1
v 1.7 0.4 0.1
v 1.7 0.7 0.1
v -1.7 -0.2 -0.2
v -1.7 0 -0.2
v -1.7 0.1 -0.2
v -1.7 0.4 -0.2
v -1.7 0.5 -0.2
v -1.7 0.7 -0.2
v -1.5 0.5 -0.2
v -1.5 0.7 -0.2
v -1.4 -0.1 -0.2
v -1.4 0 -0.2
v -1.4 0.6 -0.2
v -1.4 0.7 -0.2
v -1.2 -0.1 -0.2
v -1.2 0 -0.2
v -1.2 0.5 -0.2
v -1.2 0.6 -0.2
v -1.1 -0.2 -0.2
v -1.1 0 -0.2
v -1.1 0.1 -0.2
v -1.1 0.4 -0.2
v -1.1 0.5 -0.2
v -1.1 0.7 -0.2
v -0.6 -0.2 -0.2
v -0.6 -0.1 -0.2
v -0.6 0 -0.2
v -0.6 0.1 -0.2
v -0.6 0.4 -0.2
v -0.6 0.5 -0.2
v -0.6 0.7 -0.2
v -0.5 0.5 -0.2
v -0.5 0.6 -0.2
v -0.2 0.6 -0.2
v -0.2 0.7 -0.2
v -0.1 0.5 -0.2
v -0.1 0.7 -0.2
v 0 0.5 -0.2
v 0 0.7 -0.2
v 0.0999999 -0.1 -0.2
v 0.0999999 0 -0.2
v 0.2 -0.2 -0.2
v 0.2 -0.1 -0.2
v 0.3 -0.2 -0.2
v 0.3 -0.1 -0.2
v 0.4 -0.1 -0.2
v 0.4 0 -0.2
v 0.6 -0.2 -0.2
v 0.6 0 -0.2
v 0.6 0.1 -0.2
v 0.6 0.4 -0.2
v 0.6 0.5 -0.2
v 0.6 0.7 -0.2
v 1.1 -0.2 -0.2
v 1.1 0 -0.2
v 1.1 0.1 -0.2
v 1.1 0.4 -0.2
v 1.1 0.5 -0.2
v 1.1 0.6 -0.2
v 1.1 0.7 -0.2
v 1.4 -0.1 -0.2
v 1.4 0 -0.2
v 1.6 -0.1 -0.2
v 1.6 0 -0.2
v 1.6 0.5 -0.2
v 1.6 0.7 -0.2
v 1.7 -0.2 -0.2
v 1.7 0 -0.2
v 1.7 0.1 -0.2
v 1.7 0.4 -0.2
v 1.7 0.7 -0.2
v -1.1 -0.7 -0.3
v -1.1 -0.6 -0.3
v -1.1 -0.4 -0.3
v -1.1 -0.3 -0.3
v -1.1 0 -0.3
v -1.1 0.1 -0.3
v -1.1 0.4 -0.3
v -1.1 0.5 -0.3
v -1.1 0.8 -0.3
v -1 -0.1 -0.3
v -1 0 -0.3
v -0.6 -0.7 -0.3
v -0.6 -0.6 -0.3
v -0.6 -0.4 -0.3
v -0.6 -0.3 -0.3
v -0.6 -0.1 -0.3
v -0.6 0 -0.3
v -0.6 0.1 -0.3
v -0.6 0.4 -0.3
v -0.6 0.5 -0.3
v -0.6 0.8 -0.3
v 0.6 -0.7 -0.3
v 0.6 -0.6 -0.3
v 0.6 -0.4 -0.3
v 0.6 -0.3 -0.3
v 0.6 0 -0.3
v 0.6 0.1 -0.3
v 0.6 0.3 -0.3
v 0.6 0.4 -0.3
v 0.6 0.5 -0.3
v 0.6 0.8 -0.3
v 0.7 0.2 -0.3
v 0.7 0.3 -0.3
v 0.8 -0.3 -0.3
v 0.8 -0.2 -0.3
v 0.8 0.5 -0.3
v 0.8 0.7 -0.3
v 0.9 0.1 -0.3
v 0.9 0.2 -0.3
v 0.9 0.6 -0.3
v 0.9 0.7 -0.3
v 1.1 -0.7 -0.3
v 1.1 -0.6 -0.3
v 1.1 -0.4 -0.3
v 1.1 -0.3 -0.3
v 1.1 -0.2 -0.3
v 1.1 0 -0.3
v 1.1 0.1 -0.3
v 1.1 0.4 -0.3
v 1.1 0.5 -0.3
v 1.1 0.6 -0.3
v 1.1 0.8 -0.3
v -1.1 -0.7 0.2
v -0.6 -0.7 0.2
v 0.6 -0.7 0.2
v 1.1 -0.7 0.2
v 0.6 -0.7 -0.1
v 1 -0.7 -0.1
v 0.6 -0.7 -0.2
v 1 -0.7 -0.2
v -1.1 -0.7 -0.3
v -0.6 -0.7 -0.3
v 0.6 -0.7 -0.3
v 1.1 -0.7 -0.3
v -1.7 -0.2 0.1
v -1.4 -0.2 0.1
v -1.3 -0.2 0.1
v -1.1 -0.2 0.1
v -0.6 -0.2 0.1
v -0.1 -0.2 0.1
v 0 -0.2 0.1
v 0.6 -0.2 0.1
v 1.1 -0.2 0.1
v 1.5 -0.2 0.1
v 1.6 -0.2 0.1
v 1.7 -0.2 0.1
v -1.4 -0.2 0
v -1.3 -0.2 0
v -0.1 -0.2 0
v 0 -0.2 0
v 1.5 -0.2 0
v 1.6 -0.2 0
v 1.7 -0.2 0
v 0.2 -0.2 -0.1
v 0.3 -0.2 -0.1
v -1.7 -0.2 -0.2
v -1.1 -0.2 -0.2
v -0.6 -0.2 -0.2
v 0.2 -0.2 -0.2
v 0.3 -0.2 -0.2
v 0.6 -0.2 -0.2
v 1.1 -0.2 -0.2
v 1.7 -0.2 -0.2
v -1.7 0.4 0.1
v -1.1 0.4 0.1
v -0.6 0.4 0.1
v 0.6 0.4 0.1
v 1.1 0.4 0.1
v 1.7 0.4 0.1
v 1.1 0.4 0
v 1.7 0.4 0
v 1.1 0.4 -0.1
v 1.7 0.4 -0.1
v -1.7 0.4 -0.2
v -1.1 0.4 -0.2
v -0.6 0.4 -0.2
v 0.6 0.4 -0.2
v 1.1 0.4 -0.2
v 1.7 0.4 -0.2
v -1.7 0.1 0.1
v -1.1 0.1 0.1
v -0.6 0.1 0.1
v 0.6 0.1 0.1
v 1.1 0.1 0.1
v 1.7 0.1 0.1
v -1.7 0.1 0
v -1.1 0.1 0
v 1.1 0.1 0
v 1.6 0.1 0
v -1.7 0.1 -0.1
v -1.1 0.1 -0.1
v 1.1 0.1 -0.1
v 1.6 0.1 -0.1
v -1.7 0.1 -0.2
v -1.1 0.1 -0.2
v -0.6 0.1 -0.2
v 0.6 0.1 -0.2
v 1.1 0.1 -0.2
v 1.7 0.1 -0.2
v -1.7 0.7 0.1
v -1.4 0.7 0.1
v -1.3 0.7 0.1
v -1.1 0.7 0.1
v -0.6 0.7 0.1
v -0.1 0.7 0.1
v 0 0.7 0.1
v 0.6 0.7 0.1
v 1.1 0.7 0.1
v 1.6 0.7 0.1
v 1.7 0.7 0.1
v -1.4 0.7 0
v -1.3 0.7 0
v -1.5 0.7 -0.1
v -1.4 0.7 -0.1
v -0.2 0.7 -0.1
v -0.1 0.7 -0.1
v -1.7 0.7 -0.2
v -1.5 0.7 -0.2
v -1.4 0.7 -0.2
v -1.1 0.7 -0.2
v -0.6 0.7 -0.2
v -0.2 0.7 -0.2
v -0.1 0.7 -0.2
v 0 0.7 -0.2
v 0.6 0.7 -0.2
v 1.1 0.7 -0.2
v 1.6 0.7 -0.2
v 1.7 0.7 -0.2
v -1.1 0.8 0.2
v -0.6 0.8 0.2
v 0.6 0.8 0.2
v 1.1 0.8 0.2
v -1.1 0.8 -0.3
v -0.6 0.8 -0.3
v 0.6 0.8 -0.3
v 1.1 0.8 -0.3

# faces
f 3/3/1 2/3/1 1/3/1
f 4/3/1 2/3/1 3/3/1
f 5/3/1 2/3/1 4/3/1
f 6/3/1 2/3/1 5/3/1
f 7/1/1 4/1/1 3/1/1
f 8/3/1 5/3/1 4/3/1
f 8/1/1 4/1/1 7/1/1
f 9/1/1 6/1/1 5/1/1
f 9/3/1 5/3/1 8/3/1
f 10/1/1 6/1/1 9/1/1
f 13/1/1 12/1/1 11/1/1
f 14/1/1 12/1/1 13/1/1
f 15/3/1 14/3/1 13/3/1
f 16/3/1 14/3/1 15/3/1
f 19/1/1 18/1/1 17/1/1
f 20/1/1 18/1/1 19/1/1
f 21/3/1 20/3/1 19/3/1
f 22/3/1 20/3/1 21/3/1
f 23/2/1 22/2/1 21/2/1
f 24/3/1 20/3/1 22/3/1
f 24/2/1 22/2/1 23/2/1
f 25/3/1 20/3/1 24/3/1
f 26/1/1 24/1/1 23/1/1
f 26/1/1 25/1/1 24/1/1
f 27/1/1 25/1/1 26/1/1
f 28/3/1 27/3/1 26/3/1
f 29/3/1 27/3/1 28/3/1
f 30/3/1 28/3/1 26/3/1
f 31/3/1 28/3/1 30/3/1
f 32/3/1 27/3/1 29/3/1
f 33/3/1 27/3/1 32/3/1
f 34/1/1 31/1/1 30/1/1
f 35/1/1 31/1/1 34/1/1
f 38/1/1 33/1/1 32/1/1
f 39/1/1 33/1/1 38/1/1
f 40/3/1 37/3/1 36/3/1
f 40/3/1 35/3/1 34/3/1
f 40/3/1 39/3/1 38/3/1
f 40/3/1 38/3/1 37/3/1
f 40/3/1 36/3/1 35/3/1
f 41/3/1 39/3/1 40/3/1
f 42/2/1 41/2/1 40/2/1
f 43/3/1 39/3/1 41/3/1
f 43/2/1 41/2/1 42/2/1
f 44/3/1 39/3/1 43/3/1
f 45/3/1 39/3/1 44/3/1
f 46/1/1 43/1/1 42/1/1
f 47/1/1 43/1/1 46/1/1
f 48/1/1 45/1/1 44/1/1
f 49/1/1 45/1/1 48/1/1
f 50/3/1 47/3/1 46/3/1
f 51/3/1 49/3/1 48/3/1
f 52/3/1 50/3/1 46/3/1
f 52/3/1 51/3/1 50/3/1
f 53/3/1 49/3/1 51/3/1
f 53/3/1 51/3/1 52/3/1
f 58/1/1 55/1/1 54/1/1
f 59/3/1 56/3/1 55/3/1
f 59/1/1 55/1/1 58/1/1
f 60/1/1 57/1/1 56/1/1
f 60/3/1 56/3/1 59/3/1
f 61/1/1 57/1/1 60/1/1
f 62/3/1 59/3/1 58/3/1
f 62/3/1 60/3/1 59/3/1
f 62/3/1 61/3/1 60/3/1
f 63/3/1 61/3/1 62/3/1
f 64/1/1 63/1/1 62/1/1
f 65/1/1 63/1/1 64/1/1
f 66/1/1 63/1/1 65/1/1
f 67/2/1 65/2/1 64/2/1
f 68/3/1 66/3/1 65/3/1
f 68/2/1 65/2/1 67/2/1
f 69/3/1 66/3/1 68/3/1
f 70/3/1 68/3/1 67/3/1
f 71/3/1 68/3/1 70/3/1
f 72/3/1 66/3/1 69/3/1
f 73/3/1 66/3/1 72/3/1
f 74/1/1 71/1/1 70/1/1
f 75/1/1 71/1/1 74/1/1
f 76/1/1 73/1/1 72/1/1
f 77/1/1 73/1/1 76/1/1
f 78/3/1 75/3/1 74/3/1
f 78/3/1 76/3/1 75/3/1
f 78/2/1 77/2/1 76/2/1
f 79/2/1 77/2/1 78/2/1
f 80/3/1 78/3/1 74/3/1
f 80/3/1 79/3/1 78/3/1
f 81/3/1 79/3/1 80/3/1
f 82/3/1 79/3/1 81/3/1
f 83/3/1 79/3/1 82/3/1
f 84/1/1 81/1/1 80/1/1
f 85/1/1 81/1/1 84/1/1
f 86/1/1 83/1/1 82/1/1
f 87/1/1 83/1/1 86/1/1
f 88/2/1 85/2/1 84/2/1
f 89/2/1 85/2/1 88/2/1
f 90/3/1 89/3/1 88/3/1
f 91/3/1 87/3/1 86/3/1
f 92/3/1 90/3/1 88/3/1
f 92/3/1 91/3/1 90/3/1
f 93/3/1 87/3/1 91/3/1
f 93/3/1 91/3/1 92/3/1
f 94/1/2 95/1/2 96/1/2
f 96/1/2 95/1/2 97/1/2
f 96/3/2 97/3/2 98/3/2
f 98/3/2 97/3/2 99/3/2
f 98/1/2 99/1/2 100/1/2
f 100/1/2 99/1/2 101/1/2
f 100/3/2 101/3/2 102/3/2
f 102/3/2 101/3/2 103/3/2
f 103/3/2 101/3/2 104/3/2
f 104/3/2 101/3/2 105/3/2
f 100/3/2 102/3/2 106/3/2
f 106/3/2 102/3/2 107/3/2
f 104/2/2 105/2/2 108/2/2
f 108/2/2 105/2/2 109/2/2
f 106/1/2 107/1/2 110/1/2
f 110/1/2 107/1/2 111/1/2
f 108/1/2 109/1/2 112/1/2
f 112/1/2 109/1/2 113/1/2
f 110/3/2 111/3/2 114/3/2
f 111/3/2 112/3/2 114/3/2
f 112/3/2 113/3/2 114/3/2
f 114/3/2 113/3/2 115/3/2
f 115/3/2 113/3/2 116/3/2
f 116/3/2 113/3/2 117/3/2
f 114/1/2 115/1/2 118/1/2
f 118/1/2 115/1/2 119/1/2
f 116/1/2 117/1/2 120/1/2
f 120/1/2 117/1/2 121/1/2
f 118/3/2 119/3/2 122/3/2
f 118/3/2 122/3/2 123/3/2
f 120/3/2 121/3/2 124/3/2
f 118/3/2 123/3/2 125/3/2
f 123/3/2 124/3/2 125/3/2
f 124/3/2 121/3/2 126/3/2
f 125/3/2 124/3/2 126/3/2
f 127/1/2 128/1/2 129/1/2
f 129/1/2 128/1/2 130/1/2
f 129/3/2 130/3/2 131/3/2
f 131/3/2 130/3/2 132/3/2
f 131/1/2 132/1/2 133/1/2
f 133/1/2 132/1/2 134/1/2
f 134/1/2 132/1/2 135/1/2
f 133/3/2 134/3/2 136/3/2
f 134/2/2 135/2/2 137/2/2
f 136/3/2 134/3/2 137/3/2
f 137/2/2 135/2/2 138/2/2
f 133/3/2 136/3/2 139/3/2
f 139/3/2 136/3/2 140/3/2
f 137/3/2 138/3/2 141/3/2
f 141/3/2 138/3/2 142/3/2
f 139/1/2 140/1/2 143/1/2
f 143/1/2 140/1/2 144/1/2
f 141/1/2 142/1/2 147/1/2
f 147/1/2 142/1/2 148/1/2
f 143/2/2 144/2/2 149/2/2
f 145/3/2 146/3/2 150/3/2
f 149/2/2 144/2/2 150/2/2
f 144/3/2 145/3/2 150/3/2
f 147/3/2 148/3/2 150/3/2
f 146/3/2 147/3/2 150/3/2
f 149/3/2 150/3/2 151/3/2
f 150/3/2 148/3/2 152/3/2
f 151/3/2 150/3/2 152/3/2
f 152/3/2 148/3/2 153/3/2
f 153/3/2 148/3/2 154/3/2
f 154/3/2 148/3/2 155/3/2
f 155/3/2 148/3/2 156/3/2
f 151/1/2 152/1/2 157/1/2
f 157/1/2 152/1/2 158/1/2
f 155/1/2 156/1/2 159/1/2
f 159/1/2 156/1/2 160/1/2
f 159/2/2 160/2/2 161/2/2
f 161/2/2 160/2/2 162/2/2
f 157/3/2 158/3/2 163/3/2
f 161/3/2 162/3/2 164/3/2
f 157/3/2 163/3/2 165/3/2
f 163/3/2 164/3/2 165/3/2
f 164/3/2 162/3/2 166/3/2
f 165/3/2 164/3/2 166/3/2
f 167/1/2 168/1/2 170/1/2
f 168/3/2 169/3/2 170/3/2
f 170/3/2 169/3/2 171/3/2
f 167/1/2 170/1/2 172/1/2
f 170/1/2 171/1/2 172/1/2
f 172/1/2 171/1/2 173/1/2
f 174/1/2 175/1/2 178/1/2
f 175/3/2 176/3/2 178/3/2
f 176/1/2 177/1/2 179/1/2
f 178/3/2 176/3/2 179/3/2
f 174/1/2 178/1/2 180/1/2
f 178/1/2 179/1/2 180/1/2
f 179/1/2 177/1/2 181/1/2
f 180/1/2 179/1/2 181/1/2
f 193/1/3 191/1/3 190/1/3
f 193/3/3 192/3/3 191/3/3
f 194/3/3 192/3/3 193/3/3
f 195/3/3 187/3/3 186/3/3
f 196/1/3 188/1/3 187/1/3
f 196/3/3 187/3/3 195/3/3
f 197/1/3 193/1/3 190/1/3
f 197/1/3 194/1/3 193/1/3
f 198/3/3 192/3/3 194/3/3
f 198/1/3 194/1/3 197/1/3
f 199/3/3 189/3/3 188/3/3
f 199/2/3 190/2/3 189/2/3
f 200/1/3 197/1/3 190/1/3
f 200/2/3 190/2/3 199/2/3
f 201/3/3 184/3/3 183/3/3
f 201/2/3 185/2/3 184/2/3
f 202/1/3 186/1/3 185/1/3
f 202/2/3 185/2/3 201/2/3
f 203/3/3 195/3/3 186/3/3
f 203/2/3 196/2/3 195/2/3
f 204/1/3 188/1/3 196/1/3
f 204/2/3 196/2/3 203/2/3
f 205/1/3 183/1/3 182/1/3
f 206/3/3 201/3/3 183/3/3
f 206/1/3 183/1/3 205/1/3
f 206/3/3 202/3/3 201/3/3
f 207/1/3 186/1/3 202/1/3
f 207/3/3 202/3/3 206/3/3
f 208/3/3 203/3/3 186/3/3
f 208/1/3 186/1/3 207/1/3
f 208/3/3 204/3/3 203/3/3
f 209/1/3 188/1/3 204/1/3
f 209/3/3 204/3/3 208/3/3
f 210/3/3 200/3/3 199/3/3
f 210/1/3 188/1/3 209/1/3
f 210/3/3 199/3/3 188/3/3
f 211/1/3 197/1/3 200/1/3
f 211/3/3 200/3/3 210/3/3
f 212/3/3 198/3/3 197/3/3
f 212/1/3 197/1/3 211/1/3
f 213/3/3 192/3/3 198/3/3
f 213/3/3 198/3/3 212/3/3
f 225/1/3 217/1/3 216/1/3
f 225/2/3 218/2/3 217/2/3
f 226/3/3 219/3/3 218/3/3
f 226/2/3 218/2/3 225/2/3
f 227/2/3 223/2/3 222/2/3
f 227/1/3 222/1/3 221/1/3
f 228/3/3 224/3/3 223/3/3
f 228/2/3 223/2/3 227/2/3
f 229/1/3 220/1/3 219/1/3
f 229/3/3 221/3/3 220/3/3
f 230/3/3 221/3/3 229/3/3
f 231/1/3 227/1/3 221/1/3
f 231/1/3 228/1/3 227/1/3
f 232/3/3 224/3/3 228/3/3
f 232/1/3 228/1/3 231/1/3
f 233/1/3 215/1/3 214/1/3
f 234/3/3 216/3/3 215/3/3
f 234/1/3 215/1/3 233/1/3
f 235/1/3 225/1/3 216/1/3
f 235/3/3 216/3/3 234/3/3
f 236/3/3 226/3/3 225/3/3
f 236/1/3 225/1/3 235/1/3
f 237/3/3 219/3/3 226/3/3
f 237/3/3 226/3/3 236/3/3
f 237/1/3 229/1/3 219/1/3
f 238/2/3 230/2/3 229/2/3
f 238/1/3 229/1/3 237/1/3
f 239/3/3 221/3/3 230/3/3
f 239/2/3 230/2/3 238/2/3
f 240/1/3 231/1/3 221/1/3
f 240/3/3 221/3/3 239/3/3
f 241/3/3 232/3/3 231/3/3
f 241/1/3 231/1/3 240/1/3
f 242/3/3 224/3/3 232/3/3
f 242/3/3 232/3/3 241/3/3
f 249/3/3 244/3/3 243/3/3
f 250/1/3 245/1/3 244/1/3
f 250/3/3 244/3/3 249/3/3
f 251/3/3 248/3/3 247/3/3
f 251/1/3 247/1/3 246/1/3
f 252/3/3 248/3/3 251/3/3
f 253/3/3 249/3/3 243/3/3
f 254/2/3 250/2/3 249/2/3
f 254/3/3 249/3/3 253/3/3
f 255/3/3 248/3/3 252/3/3
f 255/2/3 252/2/3 251/2/3
f 256/3/3 248/3/3 255/3/3
f 257/2/3 254/2/3 253/2/3
f 258/2/3 250/2/3 254/2/3
f 258/2/3 254/2/3 257/2/3
f 259/1/3 251/1/3 246/1/3
f 259/2/3 255/2/3 251/2/3
f 259/2/3 256/2/3 255/2/3
f 260/2/3 256/2/3 259/2/3
f 261/2/3 250/2/3 258/2/3
f 261/3/3 258/3/3 257/3/3
f 262/1/3 245/1/3 250/1/3
f 262/2/3 250/2/3 261/2/3
f 263/3/3 261/3/3 257/3/3
f 263/3/3 262/3/3 261/3/3
f 264/1/3 245/1/3 262/1/3
f 264/3/3 262/3/3 263/3/3
f 265/1/3 245/1/3 264/1/3
f 266/1/3 259/1/3 246/1/3
f 267/3/3 260/3/3 259/3/3
f 267/1/3 259/1/3 266/1/3
f 268/3/3 260/3/3 267/3/3
f 276/3/3 270/3/3 269/3/3
f 277/1/3 271/1/3 270/1/3
f 277/3/3 270/3/3 276/3/3
f 278/3/3 276/3/3 269/3/3
f 278/2/3 277/2/3 276/2/3
f 279/1/3 271/1/3 277/1/3
f 279/2/3 277/2/3 278/2/3
f 280/1/3 273/1/3 272/1/3
f 280/2/3 274/2/3 273/2/3
f 281/3/3 275/3/3 274/3/3
f 281/2/3 274/2/3 280/2/3
f 282/3/3 278/3/3 269/3/3
f 282/3/3 279/3/3 278/3/3
f 283/1/3 271/1/3 279/1/3
f 283/3/3 279/3/3 282/3/3
f 284/1/3 280/1/3 272/1/3
f 284/3/3 281/3/3 280/3/3
f 285/3/3 275/3/3 281/3/3
f 285/3/3 281/3/3 284/3/3
f 286/1/3 283/1/3 282/1/3
f 287/1/3 283/1/3 286/1/3
f 288/1/3 271/1/3 283/1/3
f 288/1/3 283/1/3 287/1/3
f 289/1/3 284/1/3 272/1/3
f 289/1/3 285/1/3 284/1/3
f 290/1/3 285/1/3 289/1/3
f 291/1/3 289/1/3 272/1/3
f 291/3/3 290/3/3 289/3/3
f 292/3/3 290/3/3 291/3/3
f 293/3/3 287/3/3 286/3/3
f 293/2/3 288/2/3 287/2/3
f 294/1/3 271/1/3 288/1/3
f 294/2/3 288/2/3 293/2/3
f 295/2/3 292/2/3 291/2/3
f 295/1/3 291/1/3 272/1/3
f 296/3/3 290/3/3 292/3/3
f 296/2/3 292/2/3 295/2/3
f 297/3/3 293/3/3 286/3/3
f 297/3/3 294/3/3 293/3/3
f 298/1/3 271/1/3 294/1/3
f 298/3/3 294/3/3 297/3/3
f 299/1/3 271/1/3 298/1/3
f 300/1/3 295/1/3 272/1/3
f 301/3/3 296/3/3 295/3/3
f 301/1/3 295/1/3 300/1/3
f 302/3/3 290/3/3 296/3/3
f 302/3/3 296/3/3 301/3/3
f 303/3/3 290/3/3 302/3/3
f 310/3/3 305/3/3 304/3/3
f 311/1/3 306/1/3 305/1/3
f 311/3/3 305/3/3 310/3/3
f 312/3/3 309/3/3 308/3/3
f 312/1/3 308/1/3 307/1/3
f 313/3/3 309/3/3 312/3/3
f 314/3/3 310/3/3 304/3/3
f 315/2/3 311/2/3 310/2/3
f 315/3/3 310/3/3 314/3/3
f 316/2/3 315/2/3 314/2/3
f 317/1/3 306/1/3 311/1/3
f 317/2/3 315/2/3 316/2/3
f 317/2/3 311/2/3 315/2/3
f 318/1/3 312/1/3 307/1/3
f 318/2/3 313/2/3 312/2/3
f 319/3/3 309/3/3 313/3/3
f 319/2/3 313/2/3 318/2/3
f 320/3/3 309/3/3 319/3/3
f 321/1/3 317/1/3 316/1/3
f 322/1/3 306/1/3 317/1/3
f 322/1/3 317/1/3 321/1/3
f 323/1/3 318/1/3 307/1/3
f 323/1/3 319/1/3 318/1/3
f 323/1/3 320/1/3 319/1/3
f 324/1/3 320/1/3 323/1/3
f 328/1/4 329/1/4 331/1/4
f 329/3/4 330/3/4 331/3/4
f 331/3/4 330/3/4 332/3/4
f 325/3/4 326/3/4 333/3/4
f 326/1/4 327/1/4 334/1/4
f 333/3/4 326/3/4 334/3/4
f 331/2/4 332/2/4 335/2/4
f 335/2/4 332/2/4 336/2/4
f 325/3/4 333/3/4 337/3/4
f 333/2/4 334/2/4 337/2/4
f 334/1/4 327/1/4 338/1/4
f 337/2/4 334/2/4 338/2/4
f 328/1/4 331/1/4 339/1/4
f 331/2/4 335/2/4 339/2/4
f 335/3/4 336/3/4 340/3/4
f 339/2/4 335/2/4 340/2/4
f 325/3/4 337/3/4 341/3/4
f 337/3/4 338/3/4 341/3/4
f 338/1/4 327/1/4 342/1/4
f 341/3/4 338/3/4 342/3/4
f 342/1/4 327/1/4 343/1/4
f 328/1/4 339/1/4 344/1/4
f 339/3/4 340/3/4 345/3/4
f 344/1/4 339/1/4 345/1/4
f 340/3/4 336/3/4 346/3/4
f 345/3/4 340/3/4 346/3/4
f 351/1/4 352/1/4 354/1/4
f 352/3/4 353/3/4 354/3/4
f 354/3/4 353/3/4 355/3/4
f 354/2/4 355/2/4 356/2/4
f 355/3/4 353/3/4 356/3/4
f 356/3/4 353/3/4 357/3/4
f 351/1/4 354/1/4 358/1/4
f 354/2/4 356/2/4 358/2/4
f 356/2/4 357/2/4 358/2/4
f 358/2/4 357/2/4 359/2/4
f 351/1/4 358/1/4 360/1/4
f 358/1/4 359/1/4 360/1/4
f 360/1/4 359/1/4 361/1/4
f 347/3/4 348/3/4 362/3/4
f 348/3/4 349/3/4 362/3/4
f 349/1/4 350/1/4 363/1/4
f 362/3/4 349/3/4 363/3/4
f 347/3/4 362/3/4 364/3/4
f 362/2/4 363/2/4 365/2/4
f 364/3/4 362/3/4 365/3/4
f 364/2/4 365/2/4 366/2/4
f 365/2/4 363/2/4 367/2/4
f 366/2/4 365/2/4 367/2/4
f 366/3/4 367/3/4 368/3/4
f 367/2/4 363/2/4 368/2/4
f 363/1/4 350/1/4 369/1/4
f 368/2/4 363/2/4 369/2/4
f 366/3/4 368/3/4 370/3/4
f 368/3/4 369/3/4 370/3/4
f 369/1/4 350/1/4 371/1/4
f 370/3/4 369/3/4 371/3/4
f 371/1/4 350/1/4 372/1/4
f 351/1/4 360/1/4 373/1/4
f 360/3/4 361/3/4 374/3/4
f 373/1/4 360/1/4 374/1/4
f 374/3/4 361/3/4 375/3/4
f 376/3/4 377/3/4 383/3/4
f 377/1/4 378/1/4 384/1/4
f 383/3/4 377/3/4 384/3/4
f 376/3/4 383/3/4 385/3/4
f 383/2/4 384/2/4 385/2/4
f 384/1/4 378/1/4 386/1/4
f 385/2/4 384/2/4 386/2/4
f 381/3/4 382/3/4 387/3/4
f 379/1/4 380/1/4 387/1/4
f 380/3/4 381/3/4 387/3/4
f 387/3/4 382/3/4 388/3/4
f 376/3/4 385/3/4 389/3/4
f 385/3/4 386/3/4 389/3/4
f 386/1/4 378/1/4 390/1/4
f 389/3/4 386/3/4 390/3/4
f 390/1/4 378/1/4 391/1/4
f 387/1/4 388/1/4 392/1/4
f 379/1/4 387/1/4 392/1/4
f 392/1/4 388/1/4 393/1/4
f 397/3/4 398/3/4 403/3/4
f 398/1/4 399/1/4 404/1/4
f 403/3/4 398/3/4 404/3/4
f 394/1/4 395/1/4 405/1/4
f 395/3/4 396/3/4 406/3/4
f 405/1/4 395/1/4 406/1/4
f 396/1/4 397/1/4 407/1/4
f 406/3/4 396/3/4 407/3/4
f 397/3/4 403/3/4 408/3/4
f 407/1/4 397/1/4 408/1/4
f 403/2/4 404/2/4 409/2/4
f 408/3/4 403/3/4 409/3/4
f 404/1/4 399/1/4 410/1/4
f 409/2/4 404/2/4 410/2/4
f 399/3/4 400/3/4 411/3/4
f 410/1/4 399/1/4 411/1/4
f 400/1/4 401/1/4 412/1/4
f 411/3/4 400/3/4 412/3/4
f 401/3/4 402/3/4 413/3/4
f 412/1/4 401/1/4 413/1/4
f 413/3/4 402/3/4 414/3/4
f 420/2/4 421/2/4 425/2/4
f 421/3/4 422/3/4 426/3/4
f 425/2/4 421/2/4 426/2/4
f 417/1/4 418/1/4 427/1/4
f 418/3/4 419/3/4 427/3/4
f 427/3/4 419/3/4 428/3/4
f 423/3/4 424/3/4 429/3/4
f 422/1/4 423/1/4 429/1/4
f 429/3/4 424/3/4 430/3/4
f 419/1/4 420/1/4 431/1/4
f 420/2/4 425/2/4 431/2/4
f 425/3/4 426/3/4 432/3/4
f 431/2/4 425/2/4 432/2/4
f 429/2/4 430/2/4 433/2/4
f 430/3/4 424/3/4 434/3/4
f 433/2/4 430/2/4 434/2/4
f 415/1/4 416/1/4 435/1/4
f 416/3/4 417/3/4 436/3/4
f 435/1/4 416/1/4 436/1/4
f 417/1/4 427/1/4 437/1/4
f 436/3/4 417/3/4 437/3/4
f 427/2/4 428/2/4 438/2/4
f 437/1/4 427/1/4 438/1/4
f 428/3/4 419/3/4 439/3/4
f 438/2/4 428/2/4 439/2/4
f 419/1/4 431/1/4 440/1/4
f 439/3/4 419/3/4 440/3/4
f 431/3/4 432/3/4 441/3/4
f 440/1/4 431/1/4 441/1/4
f 426/3/4 422/3/4 442/3/4
f 441/3/4 432/3/4 442/3/4
f 432/3/4 426/3/4 442/3/4
f 422/1/4 429/1/4 442/1/4
f 429/2/4 433/2/4 443/2/4
f 442/1/4 429/1/4 443/1/4
f 433/3/4 434/3/4 444/3/4
f 443/2/4 433/2/4 444/2/4
f 434/3/4 424/3/4 445/3/4
f 444/3/4 434/3/4 445/3/4
f 450/1/5 449/1/5 448/1/5
f 451/1/5 449/1/5 450/1/5
f 452/3/5 451/3/5 450/3/5
f 453/1/5 449/1/5 451/1/5
f 453/3/5 451/3/5 452/3/5
f 454/1/5 447/1/5 446/1/5
f 455/1/5 447/1/5 454/1/5
f 456/1/5 453/1/5 452/1/5
f 457/1/5 449/1/5 453/1/5
f 457/1/5 453/1/5 456/1/5
f 470/3/5 459/3/5 458/3/5
f 470/2/5 460/2/5 459/2/5
f 471/3/5 461/3/5 460/3/5
f 471/2/5 460/2/5 470/2/5
f 472/3/5 463/3/5 462/3/5
f 472/1/5 464/1/5 463/1/5
f 473/3/5 465/3/5 464/3/5
f 473/1/5 464/1/5 472/1/5
f 474/2/5 468/2/5 467/2/5
f 474/3/5 467/3/5 466/3/5
f 475/1/5 469/1/5 468/1/5
f 475/2/5 468/2/5 474/2/5
f 476/1/5 469/1/5 475/1/5
f 477/3/5 465/3/5 473/3/5
f 477/3/5 473/3/5 472/3/5
f 478/3/5 465/3/5 477/3/5
f 479/3/5 470/3/5 458/3/5
f 479/3/5 471/3/5 470/3/5
f 480/3/5 461/3/5 471/3/5
f 480/3/5 471/3/5 479/3/5
f 481/3/5 472/3/5 462/3/5
f 481/3/5 477/3/5 472/3/5
f 482/2/5 478/2/5 477/2/5
f 482/3/5 477/3/5 481/3/5
f 483/3/5 465/3/5 478/3/5
f 483/2/5 478/2/5 482/2/5
f 484/3/5 465/3/5 483/3/5
f 485/3/5 474/3/5 466/3/5
f 485/3/5 476/3/5 475/3/5
f 485/3/5 475/3/5 474/3/5
f 486/3/5 476/3/5 485/3/5
f 493/1/5 492/1/5 491/1/5
f 494/1/5 492/1/5 493/1/5
f 495/3/5 494/3/5 493/3/5
f 496/3/5 494/3/5 495/3/5
f 497/1/5 488/1/5 487/1/5
f 498/1/5 488/1/5 497/1/5
f 499/1/5 490/1/5 489/1/5
f 500/1/5 490/1/5 499/1/5
f 501/1/5 496/1/5 495/1/5
f 502/1/5 496/1/5 501/1/5
f 503/1/6 504/1/6 509/1/6
f 509/1/6 504/1/6 510/1/6
f 507/1/6 508/1/6 511/1/6
f 511/1/6 508/1/6 512/1/6
f 509/3/6 510/3/6 513/3/6
f 513/3/6 510/3/6 514/3/6
f 511/3/6 512/3/6 515/3/6
f 512/1/6 508/1/6 516/1/6
f 515/3/6 512/3/6 516/3/6
f 513/1/6 514/1/6 517/1/6
f 517/1/6 514/1/6 518/1/6
f 505/1/6 506/1/6 519/1/6
f 519/1/6 506/1/6 520/1/6
f 515/1/6 516/1/6 521/1/6
f 516/1/6 508/1/6 522/1/6
f 521/1/6 516/1/6 522/1/6
f 523/3/6 524/3/6 534/3/6
f 524/2/6 525/2/6 534/2/6
f 525/3/6 526/3/6 535/3/6
f 534/2/6 525/2/6 535/2/6
f 523/3/6 534/3/6 536/3/6
f 534/3/6 535/3/6 536/3/6
f 536/3/6 535/3/6 537/3/6
f 527/3/6 528/3/6 538/3/6
f 528/1/6 529/1/6 539/1/6
f 538/3/6 528/3/6 539/3/6
f 523/3/6 536/3/6 540/3/6
f 536/2/6 537/2/6 541/2/6
f 540/3/6 536/3/6 541/3/6
f 537/3/6 535/3/6 542/3/6
f 541/2/6 537/2/6 542/2/6
f 535/3/6 526/3/6 543/3/6
f 542/3/6 535/3/6 543/3/6
f 527/3/6 538/3/6 544/3/6
f 538/2/6 539/2/6 545/2/6
f 544/3/6 538/3/6 545/3/6
f 539/1/6 529/1/6 546/1/6
f 545/2/6 539/2/6 546/2/6
f 529/3/6 530/3/6 547/3/6
f 546/1/6 529/1/6 547/1/6
f 547/3/6 530/3/6 548/3/6
f 531/3/6 532/3/6 549/3/6
f 532/1/6 533/1/6 550/1/6
f 549/3/6 532/3/6 550/3/6
f 550/1/6 533/1/6 551/1/6
f 552/3/6 553/3/6 556/3/6
f 556/3/6 553/3/6 557/3/6
f 554/3/6 555/3/6 558/3/6
f 558/3/6 555/3/6 559/3/6
