# MagicaVoxel @ Ephtracy

# group
o 

# material
mtllib house-0.mtl
usemtl palette

# normals
vn -1 0 0
vn 1 0 0
vn 0 0 1
vn 0 0 -1
vn 0 -1 0
vn 0 1 0

# texcoords
vt 0.498047 0.5
vt 0.939453 0.5
vt 0.943359 0.5
vt 0.990234 0.5
vt 0.994141 0.5

# verts
v -2 -2 0
v -2 -2 -0.2
v -2 -1.8 0.2
v -2 -1.8 0
v -2 -1.8 -0.1
v -2 -1.7 0.1
v -2 -1.7 0
v -2 -1.1 0.1
v -2 -1.1 0
v -2 -1 0.2
v -2 -1 0
v -2 -1 -0.1
v -2 -0.5 0.2
v -2 -0.5 0
v -2 -0.5 -0.1
v -2 -0.4 0.1
v -2 -0.4 0
v -2 0.2 0.1
v -2 0.2 0
v -2 0.3 0.2
v -2 0.3 0
v -2 0.3 -0.1
v -2 1.3 0
v -2 1.3 -0.1
v -2 1.3 -0.2
v -2 1.5 -0.1
v -2 1.5 -0.2
v -1.3 0.8 0
v -1.3 0.8 -0.1
v -1.3 1.3 0
v -1.3 1.3 -0.1
v -1.2 -2 0
v -1.2 -2 -0.1
v -1.2 -1.8 0
v -1.2 -1.8 -0.1
v -1.2 -1 0
v -1.2 -1 -0.1
v -1.2 -0.5 0
v -1.2 -0.5 -0.1
v -1.2 0.3 0
v -1.2 0.3 -0.1
v -1.2 0.8 0
v -1.2 0.8 -0.1
v -0.8 1.5 -0.1
v -0.8 1.5 -0.2
v -0.8 2 -0.1
v -0.8 2 -0.2
v -0.6 1.3 0
v -0.6 1.3 -0.1
v -0.6 1.7 0
v -0.6 1.7 -0.1
v -0.2 -2 0
v -0.2 -2 -0.1
v -0.2 -1.8 0
v -0.2 -1.8 -0.1
v -0.2 -1 0
v -0.2 -1 -0.1
v -0.2 -0.5 0
v -0.2 -0.5 -0.1
v -0.2 0.3 0
v -0.2 0.3 -0.1
v -0.2 1.7 0
v -0.2 1.7 -0.1
v 0.9 -2 0
v 0.9 -2 -0.1
v 0.9 -1.8 0
v 0.9 -1.8 -0.1
v 0.9 -1 0
v 0.9 -1 -0.1
v 0.9 -0.5 0
v 0.9 -0.5 -0.1
v 0.9 0.3 0
v 0.9 0.3 -0.1
v 0.9 1.7 0
v 0.9 1.7 -0.1
v -1.4 0.8 0
v -1.4 0.8 -0.1
v -1.4 1.3 0
v -1.4 1.3 -0.1
v -1.3 -2 0
v -1.3 -2 -0.1
v -1.3 -1.8 0
v -1.3 -1.8 -0.1
v -1.3 -1 0
v -1.3 -1 -0.1
v -1.3 -0.5 0
v -1.3 -0.5 -0.1
v -1.3 0.3 0
v -1.3 0.3 -0.1
v -1.3 0.8 0
v -1.3 0.8 -0.1
v -0.3 -2 0
v -0.3 -2 -0.1
v -0.3 -1.8 0
v -0.3 -1.8 -0.1
v -0.3 -1 0
v -0.3 -1 -0.1
v -0.3 -0.5 0
v -0.3 -0.5 -0.1
v -0.3 0.3 0
v -0.3 0.3 -0.1
v -0.3 1.7 0
v -0.3 1.7 -0.1
v 0.8 -2 0
v 0.8 -2 -0.1
v 0.8 -1.8 0
v 0.8 -1.8 -0.1
v 0.8 -1 0
v 0.8 -1 -0.1
v 0.8 -0.5 0
v 0.8 -0.5 -0.1
v 0.8 0.3 0
v 0.8 0.3 -0.1
v 0.8 1.7 0
v 0.8 1.7 -0.1
v 1 1.9 -0.1
v 1 1.9 -0.2
v 1 2 -0.1
v 1 2 -0.2
v 1.1 1.6 0
v 1.1 1.6 -0.1
v 1.1 1.7 0
v 1.1 1.7 -0.1
v 1.2 -1.8 0.2
v 1.2 -1.8 0
v 1.2 -1 0.2
v 1.2 -1 0
v 1.2 -0.5 0.2
v 1.2 -0.5 0
v 1.2 0.3 0.2
v 1.2 0.3 0
v 1.2 1.4 0
v 1.2 1.4 -0.1
v 1.2 1.6 0
v 1.2 1.6 -0.1
v 1.2 1.7 -0.1
v 1.2 1.7 -0.2
v 1.2 1.9 -0.1
v 1.2 1.9 -0.2
v 1.4 1.6 -0.1
v 1.4 1.6 -0.2
v 1.4 1.7 -0.1
v 1.4 1.7 -0.2
v 1.6 0.6 0
v 1.6 0.6 -0.1
v 1.6 1.4 0
v 1.6 1.4 -0.1
v 1.7 0.4 0
v 1.7 0.4 -0.1
v 1.7 0.6 0
v 1.7 0.6 -0.1
v 1.8 0.6 -0.1
v 1.8 0.6 -0.2
v 1.8 1.6 -0.1
v 1.8 1.6 -0.2
v 1.9 -2 0
v 1.9 -2 -0.1
v 1.9 0.4 0
v 1.9 0.4 -0.1
v 2.1 -2 -0.1
v 2.1 -2 -0.2
v 2.1 0.6 -0.1
v 2.1 0.6 -0.2
v -2 -1.8 0.2
v -2 -1 0.2
v -2 -0.5 0.2
v -2 0.3 0.2
v 2.38419e-07 -1.4 0.2
v 2.38419e-07 -1.1 0.2
v 2.38419e-07 -0.0999999 0.2
v 2.38419e-07 0.2 0.2
v 0.9 -1.4 0.2
v 0.9 -1.1 0.2
v 0.9 -0.0999999 0.2
v 0.9 0.2 0.2
v 1.2 -1.8 0.2
v 1.2 -1 0.2
v 1.2 -0.5 0.2
v 1.2 0.3 0.2
v -2 -2 0
v -2 -1.8 0
v -2 -1 0
v -2 -0.5 0
v -2 0.3 0
v -2 1.3 0
v -1.4 0.8 0
v -1.4 1.3 0
v -1.3 -2 0
v -1.3 -1.8 0
v -1.3 -1 0
v -1.3 -0.5 0
v -1.3 0.3 0
v -1.3 0.8 0
v -1.3 1.3 0
v -1.2 -2 0
v -1.2 -1.8 0
v -1.2 -1 0
v -1.2 -0.5 0
v -1.2 0.3 0
v -1.2 0.8 0
v -0.6 1.3 0
v -0.6 1.7 0
v -0.3 -2 0
v -0.3 -1.8 0
v -0.3 -1 0
v -0.3 -0.5 0
v -0.3 0.3 0
v -0.3 1.7 0
v -0.2 -2 0
v -0.2 -1.8 0
v -0.2 -1 0
v -0.2 -0.5 0
v -0.2 0.3 0
v -0.2 1.7 0
v 0.8 -2 0
v 0.8 -1.8 0
v 0.8 -1 0
v 0.8 -0.5 0
v 0.8 0.3 0
v 0.8 1.7 0
v 0.9 -2 0
v 0.9 -1.8 0
v 0.9 -1 0
v 0.9 -0.5 0
v 0.9 0.3 0
v 0.9 1.7 0
v 1.1 1.6 0
v 1.1 1.7 0
v 1.2 -1.8 0
v 1.2 -1 0
v 1.2 -0.5 0
v 1.2 0.3 0
v 1.2 1.4 0
v 1.2 1.6 0
v 1.6 0.6 0
v 1.6 1.4 0
v 1.7 0.4 0
v 1.7 0.6 0
v 1.9 -2 0
v 1.9 0.4 0
v -2 1.3 -0.1
v -2 1.5 -0.1
v -1.4 0.8 -0.1
v -1.4 1.3 -0.1
v -1.3 -2 -0.1
v -1.3 -1.8 -0.1
v -1.3 -1 -0.1
v -1.3 -0.5 -0.1
v -1.3 0.3 -0.1
v -1.3 0.8 -0.1
v -1.3 1.3 -0.1
v -1.2 -2 -0.1
v -1.2 -1.8 -0.1
v -1.2 -1 -0.1
v -1.2 -0.5 -0.1
v -1.2 0.3 -0.1
v -1.2 0.8 -0.1
v -0.8 1.5 -0.1
v -0.8 2 -0.1
v -0.6 1.3 -0.1
v -0.6 1.7 -0.1
v -0.3 -2 -0.1
v -0.3 -1.8 -0.1
v -0.3 -1 -0.1
v -0.3 -0.5 -0.1
v -0.3 0.3 -0.1
v -0.3 1.7 -0.1
v -0.2 -2 -0.1
v -0.2 -1.8 -0.1
v -0.2 -1 -0.1
v -0.2 -0.5 -0.1
v -0.2 0.3 -0.1
v -0.2 1.7 -0.1
v 0.8 -2 -0.1
v 0.8 -1.8 -0.1
v 0.8 -1 -0.1
v 0.8 -0.5 -0.1
v 0.8 0.3 -0.1
v 0.8 1.7 -0.1
v 0.9 -2 -0.1
v 0.9 -1.8 -0.1
v 0.9 -1 -0.1
v 0.9 -0.5 -0.1
v 0.9 0.3 -0.1
v 0.9 1.7 -0.1
v 1 1.9 -0.1
v 1 2 -0.1
v 1.1 1.6 -0.1
v 1.1 1.7 -0.1
v 1.2 1.4 -0.1
v 1.2 1.6 -0.1
v 1.2 1.7 -0.1
v 1.2 1.9 -0.1
v 1.4 1.6 -0.1
v 1.4 1.7 -0.1
v 1.6 0.6 -0.1
v 1.6 1.4 -0.1
v 1.7 0.4 -0.1
v 1.7 0.6 -0.1
v 1.8 0.6 -0.1
v 1.8 1.6 -0.1
v 1.9 -2 -0.1
v 1.9 0.4 -0.1
v 2.1 -2 -0.1
v 2.1 0.6 -0.1
v -2 -2 -0.2
v -2 1.3 -0.2
v -2 1.5 -0.2
v -0.8 1.5 -0.2
v -0.8 2 -0.2
v -0.6 1.3 -0.2
v -0.6 1.7 -0.2
v 1 1.9 -0.2
v 1 2 -0.2
v 1.1 1.6 -0.2
v 1.1 1.7 -0.2
v 1.2 1.4 -0.2
v 1.2 1.6 -0.2
v 1.2 1.7 -0.2
v 1.2 1.9 -0.2
v 1.4 1.6 -0.2
v 1.4 1.7 -0.2
v 1.6 0.6 -0.2
v 1.6 1.4 -0.2
v 1.7 0.4 -0.2
v 1.7 0.6 -0.2
v 1.8 0.6 -0.2
v 1.8 1.6 -0.2
v 1.9 -2 -0.2
v 1.9 0.4 -0.2
v 2.1 -2 -0.2
v 2.1 0.6 -0.2
v -2 -2 0
v -1.3 -2 0
v -1.2 -2 0
v -0.3 -2 0
v -0.2 -2 0
v 0.8 -2 0
v 0.9 -2 0
v 1.9 -2 0
v -1.3 -2 -0.1
v -1.2 -2 -0.1
v -0.3 -2 -0.1
v -0.2 -2 -0.1
v 0.8 -2 -0.1
v 0.9 -2 -0.1
v 1.9 -2 -0.1
v 2.1 -2 -0.1
v -2 -2 -0.2
v 1.9 -2 -0.2
v 2.1 -2 -0.2
v -2 -1.8 0.2
v 1.2 -1.8 0.2
v -2 -1.8 0
v -1.3 -1.8 0
v -1.2 -1.8 0
v -0.3 -1.8 0
v -0.2 -1.8 0
v 0.8 -1.8 0
v 0.9 -1.8 0
v 1.2 -1.8 0
v -1.3 -1.8 -0.1
v -1.2 -1.8 -0.1
v -0.3 -1.8 -0.1
v -0.2 -1.8 -0.1
v 0.8 -1.8 -0.1
v 0.9 -1.8 -0.1
v -2 -0.5 0.2
v 1.2 -0.5 0.2
v -2 -0.5 0
v -1.3 -0.5 0
v -1.2 -0.5 0
v -0.3 -0.5 0
v -0.2 -0.5 0
v 0.8 -0.5 0
v 0.9 -0.5 0
v 1.2 -0.5 0
v -1.3 -0.5 -0.1
v -1.2 -0.5 -0.1
v -0.3 -0.5 -0.1
v -0.2 -0.5 -0.1
v 0.8 -0.5 -0.1
v 0.9 -0.5 -0.1
v -1.3 0.8 0
v -1.2 0.8 0
v -1.3 0.8 -0.1
v -1.2 0.8 -0.1
v -2 -1 0.2
v 1.2 -1 0.2
v -2 -1 0
v -1.3 -1 0
v -1.2 -1 0
v -0.3 -1 0
v -0.2 -1 0
v 0.8 -1 0
v 0.9 -1 0
v 1.2 -1 0
v -1.3 -1 -0.1
v -1.2 -1 -0.1
v -0.3 -1 -0.1
v -0.2 -1 -0.1
v 0.8 -1 -0.1
v 0.9 -1 -0.1
v -2 0.3 0.2
v 1.2 0.3 0.2
v -2 0.3 0
v -1.3 0.3 0
v -1.2 0.3 0
v -0.3 0.3 0
v -0.2 0.3 0
v 0.8 0.3 0
v 0.9 0.3 0
v 1.2 0.3 0
v -1.3 0.3 -0.1
v -1.2 0.3 -0.1
v -0.3 0.3 -0.1
v -0.2 0.3 -0.1
v 0.8 0.3 -0.1
v 0.9 0.3 -0.1
v 1.7 0.4 0
v 1.9 0.4 0
v 1.7 0.4 -0.1
v 1.9 0.4 -0.1
v 1.6 0.6 0
v 1.7 0.6 0
v 1.6 0.6 -0.1
v 1.7 0.6 -0.1
v 1.8 0.6 -0.1
v 2.1 0.6 -0.1
v 1.8 0.6 -0.2
v 2.1 0.6 -0.2
v -1.4 0.8 0
v -1.3 0.8 0
v -1.4 0.8 -0.1
v -1.3 0.8 -0.1
v -2 1.3 0
v -1.4 1.3 0
v -1.3 1.3 0
v -0.6 1.3 0
v -2 1.3 -0.1
v -1.4 1.3 -0.1
v -1.3 1.3 -0.1
v -0.6 1.3 -0.1
v 1.2 1.4 0
v 1.6 1.4 0
v 1.2 1.4 -0.1
v 1.6 1.4 -0.1
v -2 1.5 -0.1
v -0.8 1.5 -0.1
v -2 1.5 -0.2
v -0.8 1.5 -0.2
v 1.1 1.6 0
v 1.2 1.6 0
v 1.1 1.6 -0.1
v 1.2 1.6 -0.1
v 1.4 1.6 -0.1
v 1.8 1.6 -0.1
v 1.4 1.6 -0.2
v 1.8 1.6 -0.2
v -0.6 1.7 0
v -0.3 1.7 0
v -0.2 1.7 0
v 0.8 1.7 0
v 0.9 1.7 0
v 1.1 1.7 0
v -0.6 1.7 -0.1
v -0.3 1.7 -0.1
v -0.2 1.7 -0.1
v 0.8 1.7 -0.1
v 0.9 1.7 -0.1
v 1.1 1.7 -0.1
v 1.2 1.7 -0.1
v 1.4 1.7 -0.1
v 1.2 1.7 -0.2
v 1.4 1.7 -0.2
v 1 1.9 -0.1
v 1.2 1.9 -0.1
v 1 1.9 -0.2
v 1.2 1.9 -0.2
v -0.8 2 -0.1
v 1 2 -0.1
v -0.8 2 -0.2
v 1 2 -0.2

# faces
f 4/4/1 2/4/1 1/4/1
f 5/4/1 2/4/1 4/4/1
f 6/2/1 4/2/1 3/2/1
f 7/1/1 5/1/1 4/1/1
f 7/2/1 4/2/1 6/2/1
f 8/2/1 6/2/1 3/2/1
f 8/1/1 7/1/1 6/1/1
f 9/1/1 5/1/1 7/1/1
f 9/1/1 7/1/1 8/1/1
f 10/2/1 8/2/1 3/2/1
f 10/2/1 9/2/1 8/2/1
f 11/1/1 5/1/1 9/1/1
f 11/2/1 9/2/1 10/2/1
f 12/4/1 2/4/1 5/4/1
f 12/1/1 5/1/1 11/1/1
f 14/4/1 12/4/1 11/4/1
f 15/4/1 2/4/1 12/4/1
f 15/4/1 12/4/1 14/4/1
f 16/2/1 14/2/1 13/2/1
f 17/1/1 15/1/1 14/1/1
f 17/2/1 14/2/1 16/2/1
f 18/2/1 16/2/1 13/2/1
f 18/1/1 17/1/1 16/1/1
f 19/1/1 15/1/1 17/1/1
f 19/1/1 17/1/1 18/1/1
f 20/2/1 18/2/1 13/2/1
f 20/2/1 19/2/1 18/2/1
f 21/1/1 15/1/1 19/1/1
f 21/2/1 19/2/1 20/2/1
f 22/4/1 2/4/1 15/4/1
f 22/1/1 15/1/1 21/1/1
f 23/4/1 22/4/1 21/4/1
f 24/4/1 2/4/1 22/4/1
f 24/4/1 22/4/1 23/4/1
f 25/4/1 2/4/1 24/4/1
f 26/5/1 25/5/1 24/5/1
f 27/5/1 25/5/1 26/5/1
f 30/4/1 29/4/1 28/4/1
f 31/4/1 29/4/1 30/4/1
f 34/4/1 33/4/1 32/4/1
f 35/4/1 33/4/1 34/4/1
f 38/4/1 37/4/1 36/4/1
f 39/4/1 37/4/1 38/4/1
f 42/4/1 41/4/1 40/4/1
f 43/4/1 41/4/1 42/4/1
f 46/5/1 45/5/1 44/5/1
f 47/5/1 45/5/1 46/5/1
f 50/4/1 49/4/1 48/4/1
f 51/4/1 49/4/1 50/4/1
f 54/4/1 53/4/1 52/4/1
f 55/4/1 53/4/1 54/4/1
f 58/4/1 57/4/1 56/4/1
f 59/4/1 57/4/1 58/4/1
f 62/4/1 61/4/1 60/4/1
f 63/4/1 61/4/1 62/4/1
f 66/4/1 65/4/1 64/4/1
f 67/4/1 65/4/1 66/4/1
f 70/4/1 69/4/1 68/4/1
f 71/4/1 69/4/1 70/4/1
f 74/4/1 73/4/1 72/4/1
f 75/4/1 73/4/1 74/4/1
f 76/4/2 77/4/2 78/4/2
f 78/4/2 77/4/2 79/4/2
f 80/4/2 81/4/2 82/4/2
f 82/4/2 81/4/2 83/4/2
f 84/4/2 85/4/2 86/4/2
f 86/4/2 85/4/2 87/4/2
f 88/4/2 89/4/2 90/4/2
f 90/4/2 89/4/2 91/4/2
f 92/4/2 93/4/2 94/4/2
f 94/4/2 93/4/2 95/4/2
f 96/4/2 97/4/2 98/4/2
f 98/4/2 97/4/2 99/4/2
f 100/4/2 101/4/2 102/4/2
f 102/4/2 101/4/2 103/4/2
f 104/4/2 105/4/2 106/4/2
f 106/4/2 105/4/2 107/4/2
f 108/4/2 109/4/2 110/4/2
f 110/4/2 109/4/2 111/4/2
f 112/4/2 113/4/2 114/4/2
f 114/4/2 113/4/2 115/4/2
f 116/5/2 117/5/2 118/5/2
f 118/5/2 117/5/2 119/5/2
f 120/4/2 121/4/2 122/4/2
f 122/4/2 121/4/2 123/4/2
f 124/2/2 125/2/2 126/2/2
f 126/2/2 125/2/2 127/2/2
f 128/2/2 129/2/2 130/2/2
f 130/2/2 129/2/2 131/2/2
f 132/4/2 133/4/2 134/4/2
f 134/4/2 133/4/2 135/4/2
f 136/5/2 137/5/2 138/5/2
f 138/5/2 137/5/2 139/5/2
f 140/5/2 141/5/2 142/5/2
f 142/5/2 141/5/2 143/5/2
f 144/4/2 145/4/2 146/4/2
f 146/4/2 145/4/2 147/4/2
f 148/4/2 149/4/2 150/4/2
f 150/4/2 149/4/2 151/4/2
f 152/5/2 153/5/2 154/5/2
f 154/5/2 153/5/2 155/5/2
f 156/4/2 157/4/2 158/4/2
f 158/4/2 157/4/2 159/4/2
f 160/5/2 161/5/2 162/5/2
f 162/5/2 161/5/2 163/5/2
f 168/2/3 165/2/3 164/2/3
f 169/2/3 165/2/3 168/2/3
f 170/2/3 167/2/3 166/2/3
f 171/2/3 167/2/3 170/2/3
f 172/2/3 168/2/3 164/2/3
f 172/3/3 169/3/3 168/3/3
f 173/2/3 165/2/3 169/2/3
f 173/3/3 169/3/3 172/3/3
f 174/3/3 171/3/3 170/3/3
f 174/2/3 170/2/3 166/2/3
f 175/2/3 167/2/3 171/2/3
f 175/3/3 171/3/3 174/3/3
f 176/2/3 172/2/3 164/2/3
f 176/2/3 173/2/3 172/2/3
f 177/2/3 165/2/3 173/2/3
f 177/2/3 173/2/3 176/2/3
f 178/2/3 174/2/3 166/2/3
f 178/2/3 175/2/3 174/2/3
f 179/2/3 167/2/3 175/2/3
f 179/2/3 175/2/3 178/2/3
f 186/4/3 185/4/3 184/4/3
f 187/4/3 185/4/3 186/4/3
f 188/4/3 181/4/3 180/4/3
f 189/4/3 181/4/3 188/4/3
f 190/4/3 183/4/3 182/4/3
f 191/4/3 183/4/3 190/4/3
f 192/4/3 186/4/3 184/4/3
f 193/4/3 186/4/3 192/4/3
f 200/4/3 194/4/3 193/4/3
f 201/4/3 194/4/3 200/4/3
f 201/4/3 200/4/3 199/4/3
f 203/4/3 196/4/3 195/4/3
f 204/4/3 196/4/3 203/4/3
f 205/4/3 198/4/3 197/4/3
f 206/4/3 198/4/3 205/4/3
f 207/4/3 201/4/3 199/4/3
f 207/4/3 202/4/3 201/4/3
f 208/4/3 202/4/3 207/4/3
f 215/4/3 210/4/3 209/4/3
f 216/4/3 210/4/3 215/4/3
f 217/4/3 212/4/3 211/4/3
f 218/4/3 212/4/3 217/4/3
f 219/4/3 214/4/3 213/4/3
f 220/4/3 214/4/3 219/4/3
f 227/4/3 226/4/3 225/4/3
f 228/4/3 226/4/3 227/4/3
f 229/4/3 222/4/3 221/4/3
f 230/4/3 224/4/3 223/4/3
f 231/4/3 224/4/3 230/4/3
f 232/4/3 227/4/3 225/4/3
f 233/4/3 227/4/3 232/4/3
f 234/4/3 227/4/3 233/4/3
f 235/4/3 231/4/3 230/4/3
f 235/4/3 230/4/3 229/4/3
f 235/4/3 233/4/3 232/4/3
f 235/4/3 232/4/3 231/4/3
f 236/4/3 233/4/3 235/4/3
f 237/4/3 235/4/3 229/4/3
f 238/4/3 235/4/3 237/4/3
f 239/4/3 229/4/3 221/4/3
f 239/4/3 237/4/3 229/4/3
f 240/4/3 237/4/3 239/4/3
f 244/5/3 242/5/3 241/5/3
f 250/4/3 244/4/3 243/4/3
f 251/5/3 242/5/3 244/5/3
f 251/4/3 244/4/3 250/4/3
f 252/4/3 246/4/3 245/4/3
f 253/4/3 246/4/3 252/4/3
f 254/4/3 248/4/3 247/4/3
f 255/4/3 248/4/3 254/4/3
f 256/4/3 250/4/3 249/4/3
f 257/4/3 250/4/3 256/4/3
f 258/5/3 242/5/3 251/5/3
f 260/5/3 258/5/3 251/5/3
f 260/5/3 259/5/3 258/5/3
f 261/5/3 259/5/3 260/5/3
f 267/5/3 259/5/3 261/5/3
f 268/4/3 263/4/3 262/4/3
f 269/4/3 263/4/3 268/4/3
f 270/4/3 265/4/3 264/4/3
f 271/4/3 265/4/3 270/4/3
f 272/4/3 267/4/3 266/4/3
f 273/5/3 259/5/3 267/5/3
f 273/4/3 267/4/3 272/4/3
f 279/5/3 259/5/3 273/5/3
f 280/4/3 275/4/3 274/4/3
f 281/4/3 275/4/3 280/4/3
f 282/4/3 277/4/3 276/4/3
f 283/4/3 277/4/3 282/4/3
f 284/4/3 279/4/3 278/4/3
f 285/5/3 259/5/3 279/5/3
f 285/4/3 279/4/3 284/4/3
f 286/5/3 259/5/3 285/5/3
f 287/5/3 259/5/3 286/5/3
f 289/5/3 286/5/3 285/5/3
f 291/5/3 289/5/3 288/5/3
f 292/5/3 286/5/3 289/5/3
f 292/5/3 289/5/3 291/5/3
f 293/5/3 286/5/3 292/5/3
f 294/5/3 291/5/3 290/5/3
f 294/5/3 292/5/3 291/5/3
f 295/5/3 292/5/3 294/5/3
f 297/5/3 294/5/3 290/5/3
f 299/5/3 297/5/3 296/5/3
f 300/5/3 297/5/3 299/5/3
f 300/5/3 299/5/3 298/5/3
f 301/5/3 294/5/3 297/5/3
f 301/5/3 297/5/3 300/5/3
f 303/5/3 300/5/3 298/5/3
f 304/5/3 303/5/3 302/5/3
f 305/5/3 300/5/3 303/5/3
f 305/5/3 303/5/3 304/5/3
f 307/5/4 308/5/4 309/5/4
f 306/4/4 307/4/4 311/4/4
f 309/5/4 310/5/4 311/5/4
f 307/5/4 309/5/4 311/5/4
f 311/5/4 310/5/4 312/5/4
f 312/5/4 310/5/4 313/5/4
f 313/5/4 310/5/4 314/5/4
f 311/4/4 312/4/4 315/4/4
f 312/5/4 313/5/4 316/5/4
f 315/4/4 312/4/4 316/4/4
f 311/4/4 315/4/4 317/4/4
f 315/5/4 316/5/4 318/5/4
f 317/4/4 315/4/4 318/4/4
f 316/5/4 313/5/4 319/5/4
f 318/5/4 316/5/4 319/5/4
f 319/5/4 313/5/4 320/5/4
f 317/5/4 318/5/4 321/5/4
f 318/5/4 319/5/4 321/5/4
f 321/5/4 319/5/4 322/5/4
f 306/4/4 311/4/4 323/4/4
f 311/4/4 317/4/4 323/4/4
f 317/5/4 321/5/4 324/5/4
f 323/4/4 317/4/4 324/4/4
f 306/4/4 323/4/4 325/4/4
f 323/5/4 324/5/4 326/5/4
f 325/4/4 323/4/4 326/4/4
f 325/5/4 326/5/4 327/5/4
f 326/5/4 324/5/4 327/5/4
f 324/5/4 321/5/4 328/5/4
f 327/5/4 324/5/4 328/5/4
f 306/4/4 325/4/4 329/4/4
f 325/5/4 327/5/4 330/5/4
f 329/4/4 325/4/4 330/4/4
f 329/5/4 330/5/4 331/5/4
f 330/5/4 327/5/4 332/5/4
f 331/5/4 330/5/4 332/5/4
f 341/4/5 334/4/5 333/4/5
f 342/4/5 336/4/5 335/4/5
f 343/4/5 336/4/5 342/4/5
f 344/4/5 338/4/5 337/4/5
f 345/4/5 338/4/5 344/4/5
f 346/4/5 340/4/5 339/4/5
f 347/4/5 340/4/5 346/4/5
f 349/4/5 345/4/5 344/4/5
f 349/4/5 341/4/5 333/4/5
f 349/4/5 347/4/5 346/4/5
f 349/4/5 346/4/5 345/4/5
f 349/4/5 343/4/5 342/4/5
f 349/4/5 344/4/5 343/4/5
f 349/4/5 342/4/5 341/4/5
f 350/5/5 348/5/5 347/5/5
f 350/4/5 347/4/5 349/4/5
f 351/5/5 348/5/5 350/5/5
f 354/2/5 353/2/5 352/2/5
f 355/2/5 353/2/5 354/2/5
f 356/2/5 353/2/5 355/2/5
f 357/2/5 353/2/5 356/2/5
f 358/2/5 353/2/5 357/2/5
f 359/2/5 353/2/5 358/2/5
f 360/2/5 353/2/5 359/2/5
f 361/2/5 353/2/5 360/2/5
f 362/2/5 356/2/5 355/2/5
f 363/2/5 356/2/5 362/2/5
f 364/2/5 358/2/5 357/2/5
f 365/2/5 358/2/5 364/2/5
f 366/2/5 360/2/5 359/2/5
f 367/2/5 360/2/5 366/2/5
f 370/2/5 369/2/5 368/2/5
f 371/2/5 369/2/5 370/2/5
f 372/2/5 369/2/5 371/2/5
f 373/2/5 369/2/5 372/2/5
f 374/2/5 369/2/5 373/2/5
f 375/2/5 369/2/5 374/2/5
f 376/2/5 369/2/5 375/2/5
f 377/2/5 369/2/5 376/2/5
f 378/2/5 372/2/5 371/2/5
f 379/2/5 372/2/5 378/2/5
f 380/2/5 374/2/5 373/2/5
f 381/2/5 374/2/5 380/2/5
f 382/2/5 376/2/5 375/2/5
f 383/2/5 376/2/5 382/2/5
f 386/4/5 385/4/5 384/4/5
f 387/4/5 385/4/5 386/4/5
f 388/2/6 389/2/6 390/2/6
f 390/2/6 389/2/6 391/2/6
f 391/2/6 389/2/6 392/2/6
f 392/2/6 389/2/6 393/2/6
f 393/2/6 389/2/6 394/2/6
f 394/2/6 389/2/6 395/2/6
f 395/2/6 389/2/6 396/2/6
f 396/2/6 389/2/6 397/2/6
f 391/2/6 392/2/6 398/2/6
f 398/2/6 392/2/6 399/2/6
f 393/2/6 394/2/6 400/2/6
f 400/2/6 394/2/6 401/2/6
f 395/2/6 396/2/6 402/2/6
f 402/2/6 396/2/6 403/2/6
f 404/2/6 405/2/6 406/2/6
f 406/2/6 405/2/6 407/2/6
f 407/2/6 405/2/6 408/2/6
f 408/2/6 405/2/6 409/2/6
f 409/2/6 405/2/6 410/2/6
f 410/2/6 405/2/6 411/2/6
f 411/2/6 405/2/6 412/2/6
f 412/2/6 405/2/6 413/2/6
f 407/2/6 408/2/6 414/2/6
f 414/2/6 408/2/6 415/2/6
f 409/2/6 410/2/6 416/2/6
f 416/2/6 410/2/6 417/2/6
f 411/2/6 412/2/6 418/2/6
f 418/2/6 412/2/6 419/2/6
f 420/4/6 421/4/6 422/4/6
f 422/4/6 421/4/6 423/4/6
f 424/4/6 425/4/6 426/4/6
f 426/4/6 425/4/6 427/4/6
f 428/5/6 429/5/6 430/5/6
f 430/5/6 429/5/6 431/5/6
f 432/4/6 433/4/6 434/4/6
f 434/4/6 433/4/6 435/4/6
f 436/4/6 437/4/6 440/4/6
f 440/4/6 437/4/6 441/4/6
f 438/4/6 439/4/6 442/4/6
f 442/4/6 439/4/6 443/4/6
f 444/4/6 445/4/6 446/4/6
f 446/4/6 445/4/6 447/4/6
f 448/5/6 449/5/6 450/5/6
f 450/5/6 449/5/6 451/5/6
f 452/4/6 453/4/6 454/4/6
f 454/4/6 453/4/6 455/4/6
f 456/5/6 457/5/6 458/5/6
f 458/5/6 457/5/6 459/5/6
f 460/4/6 461/4/6 466/4/6
f 466/4/6 461/4/6 467/4/6
f 462/4/6 463/4/6 468/4/6
f 468/4/6 463/4/6 469/4/6
f 464/4/6 465/4/6 470/4/6
f 470/4/6 465/4/6 471/4/6
f 472/5/6 473/5/6 474/5/6
f 474/5/6 473/5/6 475/5/6
f 476/5/6 477/5/6 478/5/6
f 478/5/6 477/5/6 479/5/6
f 480/5/6 481/5/6 482/5/6
f 482/5/6 481/5/6 483/5/6
