# MagicaVoxel @ Ephtracy

# group
o 

# material
mtllib sign-2.mtl
usemtl palette

# normals
vn -1 0 0
vn 1 0 0
vn 0 0 1
vn 0 0 -1
vn 0 -1 0
vn 0 1 0

# texcoords
vt 0.970703 0.5
vt 0.974609 0.5
vt 0.978516 0.5

# verts
v -3.4 -2.2 0.2
v -3.4 -2.2 -0.2
v -3.4 2.2 0.2
v -3.4 2.2 -0.2
v 3 -2.2 0.2
v 3 -2.2 -0.2
v 3 -0.2 0.2
v 3 -0.2 -0.2
v -3 -2.2 0.2
v -3 -2.2 -0.2
v -3 -0.2 0.2
v -3 -0.2 -0.2
v 3.4 -2.2 0.2
v 3.4 -2.2 -0.2
v 3.4 2.2 0.2
v 3.4 2.2 -0.2
v -3.4 -2.2 0.2
v -3.4 2.2 0.2
v -3 -2.2 0.2
v -3 -0.2 0.2
v -3 0.2 0.2
v -3 1.8 0.2
v -3 2.2 0.2
v -2.6 -0.2 0.2
v -2.6 0.2 0.2
v -2.6 1.4 0.2
v -2.6 1.8 0.2
v -1.8 1 0.2
v -1.8 1.4 0.2
v -1.8 1.8 0.2
v -1.8 2.2 0.2
v -1.4 0.6 0.2
v -1.4 1 0.2
v -1 0.2 0.2
v -1 0.6 0.2
v -1 1.4 0.2
v -1 1.8 0.2
v -0.6 1 0.2
v -0.6 1.4 0.2
v -0.2 -0.2 0.2
v -0.2 0.2 0.2
v -0.2 0.6 0.2
v -0.2 1 0.2
v -0.2 1.8 0.2
v -0.2 2.2 0.2
v 0.6 0.2 0.2
v 0.6 0.6 0.2
v 0.6 1.4 0.2
v 0.6 1.8 0.2
v 1 -0.2 0.2
v 1 0.2 0.2
v 1.4 1 0.2
v 1.4 1.4 0.2
v 1.8 1.8 0.2
v 1.8 2.2 0.2
v 2.2 0.6 0.2
v 2.2 1 0.2
v 2.6 1.4 0.2
v 2.6 1.8 0.2
v 3 -2.2 0.2
v 3 -0.2 0.2
v 3 0.6 0.2
v 3 1.4 0.2
v 3 2.2 0.2
v 3.4 -2.2 0.2
v 3.4 2.2 0.2
v -3.4 -2.2 -0.2
v -3.4 2.2 -0.2
v -3 -2.2 -0.2
v -3 -0.2 -0.2
v -3 0.2 -0.2
v -3 1.8 -0.2
v -3 2.2 -0.2
v -2.6 -0.2 -0.2
v -2.6 0.2 -0.2
v -2.6 1.4 -0.2
v -2.6 1.8 -0.2
v -1.8 1 -0.2
v -1.8 1.4 -0.2
v -1.8 1.8 -0.2
v -1.8 2.2 -0.2
v -1.4 0.6 -0.2
v -1.4 1 -0.2
v -1 0.2 -0.2
v -1 0.6 -0.2
v -1 1.4 -0.2
v -1 1.8 -0.2
v -0.6 1 -0.2
v -0.6 1.4 -0.2
v -0.2 -0.2 -0.2
v -0.2 0.2 -0.2
v -0.2 0.6 -0.2
v -0.2 1 -0.2
v -0.2 1.8 -0.2
v -0.2 2.2 -0.2
v 0.6 0.2 -0.2
v 0.6 0.6 -0.2
v 0.6 1.4 -0.2
v 0.6 1.8 -0.2
v 1 -0.2 -0.2
v 1 0.2 -0.2
v 1.4 1 -0.2
v 1.4 1.4 -0.2
v 1.8 1.8 -0.2
v 1.8 2.2 -0.2
v 2.2 0.6 -0.2
v 2.2 1 -0.2
v 2.6 1.4 -0.2
v 2.6 1.8 -0.2
v 3 -2.2 -0.2
v 3 -0.2 -0.2
v 3 0.6 -0.2
v 3 1.4 -0.2
v 3 2.2 -0.2
v 3.4 -2.2 -0.2
v 3.4 2.2 -0.2
v -3.4 -2.2 0.2
v -3 -2.2 0.2
v 3 -2.2 0.2
v 3.4 -2.2 0.2
v -3.4 -2.2 -0.2
v -3 -2.2 -0.2
v 3 -2.2 -0.2
v 3.4 -2.2 -0.2
v -3 -0.2 0.2
v -2.6 -0.2 0.2
v -0.2 -0.2 0.2
v 1 -0.2 0.2
v 3 -0.2 0.2
v -3 -0.2 -0.2
v -2.6 -0.2 -0.2
v -0.2 -0.2 -0.2
v 1 -0.2 -0.2
v 3 -0.2 -0.2
v -3.4 2.2 0.2
v -3 2.2 0.2
v -1.8 2.2 0.2
v -0.2 2.2 0.2
v 1.8 2.2 0.2
v 3 2.2 0.2
v 3.4 2.2 0.2
v -3.4 2.2 -0.2
v -3 2.2 -0.2
v -1.8 2.2 -0.2
v -0.2 2.2 -0.2
v 1.8 2.2 -0.2
v 3 2.2 -0.2
v 3.4 2.2 -0.2

# faces
f 3/1/1 2/1/1 1/1/1
f 4/1/1 2/1/1 3/1/1
f 7/1/1 6/1/1 5/1/1
f 8/1/1 6/1/1 7/1/1
f 9/1/2 10/1/2 11/1/2
f 11/1/2 10/1/2 12/1/2
f 13/1/2 14/1/2 15/1/2
f 15/1/2 14/1/2 16/1/2
f 19/1/3 18/1/3 17/1/3
f 20/1/3 18/1/3 19/1/3
f 21/1/3 18/1/3 20/1/3
f 22/1/3 18/1/3 21/1/3
f 23/1/3 18/1/3 22/1/3
f 24/3/3 21/3/3 20/3/3
f 25/2/3 22/2/3 21/2/3
f 25/3/3 21/3/3 24/3/3
f 26/2/3 22/2/3 25/2/3
f 27/3/3 23/3/3 22/3/3
f 27/2/3 22/2/3 26/2/3
f 28/2/3 26/2/3 25/2/3
f 28/2/3 25/2/3 24/2/3
f 29/3/3 27/3/3 26/3/3
f 29/2/3 26/2/3 28/2/3
f 30/3/3 23/3/3 27/3/3
f 30/3/3 27/3/3 29/3/3
f 31/3/3 23/3/3 30/3/3
f 32/2/3 28/2/3 24/2/3
f 33/3/3 29/3/3 28/3/3
f 33/2/3 28/2/3 32/2/3
f 33/3/3 30/3/3 29/3/3
f 34/2/3 32/2/3 24/2/3
f 35/3/3 33/3/3 32/3/3
f 35/2/3 32/2/3 34/2/3
f 36/3/3 30/3/3 33/3/3
f 36/3/3 33/3/3 35/3/3
f 37/2/3 31/2/3 30/2/3
f 37/3/3 30/3/3 36/3/3
f 38/3/3 35/3/3 34/3/3
f 38/3/3 36/3/3 35/3/3
f 39/2/3 37/2/3 36/2/3
f 39/3/3 36/3/3 38/3/3
f 40/2/3 34/2/3 24/2/3
f 41/3/3 38/3/3 34/3/3
f 41/2/3 34/2/3 40/2/3
f 42/3/3 38/3/3 41/3/3
f 43/2/3 39/2/3 38/2/3
f 43/3/3 38/3/3 42/3/3
f 44/2/3 31/2/3 37/2/3
f 44/2/3 39/2/3 43/2/3
f 44/2/3 37/2/3 39/2/3
f 45/2/3 31/2/3 44/2/3
f 46/3/3 41/3/3 40/3/3
f 46/3/3 42/3/3 41/3/3
f 47/2/3 43/2/3 42/2/3
f 47/3/3 42/3/3 46/3/3
f 47/2/3 44/2/3 43/2/3
f 48/2/3 44/2/3 47/2/3
f 49/3/3 45/3/3 44/3/3
f 49/2/3 44/2/3 48/2/3
f 50/3/3 46/3/3 40/3/3
f 51/2/3 48/2/3 47/2/3
f 51/3/3 46/3/3 50/3/3
f 51/2/3 47/2/3 46/2/3
f 52/2/3 51/2/3 50/2/3
f 52/2/3 48/2/3 51/2/3
f 53/3/3 49/3/3 48/3/3
f 53/2/3 48/2/3 52/2/3
f 54/3/3 45/3/3 49/3/3
f 54/3/3 49/3/3 53/3/3
f 54/3/3 53/3/3 52/3/3
f 55/3/3 45/3/3 54/3/3
f 56/2/3 52/2/3 50/2/3
f 57/3/3 54/3/3 52/3/3
f 57/2/3 52/2/3 56/2/3
f 58/3/3 57/3/3 56/3/3
f 58/3/3 54/3/3 57/3/3
f 59/2/3 55/2/3 54/2/3
f 59/3/3 54/3/3 58/3/3
f 61/2/3 56/2/3 50/2/3
f 62/3/3 58/3/3 56/3/3
f 62/2/3 56/2/3 61/2/3
f 63/2/3 59/2/3 58/2/3
f 63/3/3 58/3/3 62/3/3
f 64/2/3 55/2/3 59/2/3
f 64/2/3 59/2/3 63/2/3
f 65/1/3 63/1/3 62/1/3
f 65/1/3 61/1/3 60/1/3
f 65/1/3 64/1/3 63/1/3
f 65/1/3 62/1/3 61/1/3
f 66/1/3 64/1/3 65/1/3
f 67/1/4 68/1/4 69/1/4
f 69/1/4 68/1/4 70/1/4
f 70/1/4 68/1/4 71/1/4
f 71/1/4 68/1/4 72/1/4
f 72/1/4 68/1/4 73/1/4
f 70/3/4 71/3/4 74/3/4
f 71/2/4 72/2/4 75/2/4
f 74/3/4 71/3/4 75/3/4
f 75/2/4 72/2/4 76/2/4
f 72/3/4 73/3/4 77/3/4
f 76/2/4 72/2/4 77/2/4
f 75/2/4 76/2/4 78/2/4
f 74/2/4 75/2/4 78/2/4
f 76/3/4 77/3/4 79/3/4
f 78/2/4 76/2/4 79/2/4
f 77/3/4 73/3/4 80/3/4
f 79/3/4 77/3/4 80/3/4
f 80/3/4 73/3/4 81/3/4
f 74/2/4 78/2/4 82/2/4
f 78/3/4 79/3/4 83/3/4
f 82/2/4 78/2/4 83/2/4
f 79/3/4 80/3/4 83/3/4
f 74/2/4 82/2/4 84/2/4
f 82/3/4 83/3/4 85/3/4
f 84/2/4 82/2/4 85/2/4
f 83/3/4 80/3/4 86/3/4
f 85/3/4 83/3/4 86/3/4
f 80/2/4 81/2/4 87/2/4
f 86/3/4 80/3/4 87/3/4
f 84/3/4 85/3/4 88/3/4
f 85/3/4 86/3/4 88/3/4
f 86/2/4 87/2/4 89/2/4
f 88/3/4 86/3/4 89/3/4
f 74/2/4 84/2/4 90/2/4
f 84/3/4 88/3/4 91/3/4
f 90/2/4 84/2/4 91/2/4
f 91/3/4 88/3/4 92/3/4
f 88/2/4 89/2/4 93/2/4
f 92/3/4 88/3/4 93/3/4
f 87/2/4 81/2/4 94/2/4
f 93/2/4 89/2/4 94/2/4
f 89/2/4 87/2/4 94/2/4
f 94/2/4 81/2/4 95/2/4
f 90/3/4 91/3/4 96/3/4
f 91/3/4 92/3/4 96/3/4
f 92/2/4 93/2/4 97/2/4
f 96/3/4 92/3/4 97/3/4
f 93/2/4 94/2/4 97/2/4
f 97/2/4 94/2/4 98/2/4
f 94/3/4 95/3/4 99/3/4
f 98/2/4 94/2/4 99/2/4
f 90/3/4 96/3/4 100/3/4
f 97/2/4 98/2/4 101/2/4
f 100/3/4 96/3/4 101/3/4
f 96/2/4 97/2/4 101/2/4
f 100/2/4 101/2/4 102/2/4
f 101/2/4 98/2/4 102/2/4
f 98/3/4 99/3/4 103/3/4
f 102/2/4 98/2/4 103/2/4
f 99/3/4 95/3/4 104/3/4
f 103/3/4 99/3/4 104/3/4
f 102/3/4 103/3/4 104/3/4
f 104/3/4 95/3/4 105/3/4
f 100/2/4 102/2/4 106/2/4
f 102/3/4 104/3/4 107/3/4
f 106/2/4 102/2/4 107/2/4
f 106/3/4 107/3/4 108/3/4
f 107/3/4 104/3/4 108/3/4
f 104/2/4 105/2/4 109/2/4
f 108/3/4 104/3/4 109/3/4
f 100/2/4 106/2/4 111/2/4
f 106/3/4 108/3/4 112/3/4
f 111/2/4 106/2/4 112/2/4
f 108/2/4 109/2/4 113/2/4
f 112/3/4 108/3/4 113/3/4
f 109/2/4 105/2/4 114/2/4
f 113/2/4 109/2/4 114/2/4
f 112/1/4 113/1/4 115/1/4
f 110/1/4 111/1/4 115/1/4
f 113/1/4 114/1/4 115/1/4
f 111/1/4 112/1/4 115/1/4
f 115/1/4 114/1/4 116/1/4
f 121/1/5 118/1/5 117/1/5
f 122/1/5 118/1/5 121/1/5
f 123/1/5 120/1/5 119/1/5
f 124/1/5 120/1/5 123/1/5
f 130/3/5 126/3/5 125/3/5
f 131/2/5 127/2/5 126/2/5
f 131/3/5 126/3/5 130/3/5
f 132/3/5 128/3/5 127/3/5
f 132/2/5 127/2/5 131/2/5
f 133/2/5 129/2/5 128/2/5
f 133/3/5 128/3/5 132/3/5
f 134/2/5 129/2/5 133/2/5
f 135/1/6 136/1/6 142/1/6
f 136/3/6 137/3/6 143/3/6
f 142/1/6 136/1/6 143/1/6
f 137/2/6 138/2/6 144/2/6
f 143/3/6 137/3/6 144/3/6
f 138/3/6 139/3/6 145/3/6
f 144/2/6 138/2/6 145/2/6
f 139/2/6 140/2/6 146/2/6
f 145/3/6 139/3/6 146/3/6
f 140/1/6 141/1/6 147/1/6
f 146/2/6 140/2/6 147/2/6
f 147/1/6 141/1/6 148/1/6
