# MagicaVoxel @ Ephtracy

# group
o 

# material
mtllib sign-1.mtl
usemtl palette

# normals
vn -1 0 0
vn 1 0 0
vn 0 0 1
vn 0 0 -1
vn 0 -1 0
vn 0 1 0

# texcoords
vt 0.939453 0.5
vt 0.982422 0.5
vt 0.986328 0.5
vt 0.990234 0.5

# verts
v -0.6 -4 0.4
v -0.6 -4 -0.4
v -0.6 -3.6 0.4
v -0.6 -3.6 -0.4
v -0.2 -4 0.8
v -0.2 -4 0.4
v -0.2 -4 -0.4
v -0.2 -4 -0.8
v -0.2 -3.6 0.8
v -0.2 -3.6 0.4
v -0.2 -3.6 -0.4
v -0.2 -3.6 -0.8
v -0.2 -0.4 2
v -0.2 -0.4 0.4
v -0.2 -0.4 -0.4
v -0.2 -0.4 -2
v -0.2 0 2.4
v -0.2 0 2
v -0.2 0 -2
v -0.2 0 -2.4
v -0.2 0.4 0.4
v -0.2 0.4 -0.4
v -0.2 0.8 2.4
v -0.2 0.8 2
v -0.2 0.8 1.6
v -0.2 0.8 0.4
v -0.2 0.8 -0.4
v -0.2 0.8 -1.6
v -0.2 0.8 -2
v -0.2 0.8 -2.4
v -0.2 1.2 0.4
v -0.2 1.2 -0.4
v -0.2 1.6 2
v -0.2 1.6 1.6
v -0.2 1.6 1.2
v -0.2 1.6 -1.2
v -0.2 1.6 -1.6
v -0.2 1.6 -2
v -0.2 2 1.6
v -0.2 2 1.2
v -0.2 2 0.8
v -0.2 2 -0.8
v -0.2 2 -1.2
v -0.2 2 -1.6
v -0.2 2.8 1.2
v -0.2 2.8 0.8
v -0.2 2.8 0.4
v -0.2 2.8 -0.4
v -0.2 2.8 -0.8
v -0.2 2.8 -1.2
v -0.2 3.2 0.4
v -0.2 3.2 -0.4
v -0.2 3.6 0.8
v -0.2 3.6 0.4
v -0.2 3.6 -0.4
v -0.2 3.6 -0.8
v -0.2 4 0.4
v -0.2 4 -0.4
v 0.2 -4 0.8
v 0.2 -4 0.4
v 0.2 -4 -0.4
v 0.2 -4 -0.8
v 0.2 -3.6 0.8
v 0.2 -3.6 0.4
v 0.2 -3.6 -0.4
v 0.2 -3.6 -0.8
v 0.2 -0.4 2
v 0.2 -0.4 0.4
v 0.2 -0.4 -0.4
v 0.2 -0.4 -2
v 0.2 0 2.4
v 0.2 0 2
v 0.2 0 -2
v 0.2 0 -2.4
v 0.2 0.4 0.4
v 0.2 0.4 -0.4
v 0.2 0.8 2.4
v 0.2 0.8 2
v 0.2 0.8 1.6
v 0.2 0.8 0.4
v 0.2 0.8 -0.4
v 0.2 0.8 -1.6
v 0.2 0.8 -2
v 0.2 0.8 -2.4
v 0.2 1.2 0.4
v 0.2 1.2 -0.4
v 0.2 1.6 2
v 0.2 1.6 1.6
v 0.2 1.6 1.2
v 0.2 1.6 -1.2
v 0.2 1.6 -1.6
v 0.2 1.6 -2
v 0.2 2 1.6
v 0.2 2 1.2
v 0.2 2 0.8
v 0.2 2 -0.8
v 0.2 2 -1.2
v 0.2 2 -1.6
v 0.2 2.8 1.2
v 0.2 2.8 0.8
v 0.2 2.8 0.4
v 0.2 2.8 -0.4
v 0.2 2.8 -0.8
v 0.2 2.8 -1.2
v 0.2 3.2 0.4
v 0.2 3.2 -0.4
v 0.2 3.6 0.8
v 0.2 3.6 0.4
v 0.2 3.6 -0.4
v 0.2 3.6 -0.8
v 0.2 4 0.4
v 0.2 4 -0.4
v 0.6 -4 0.4
v 0.6 -4 -0.4
v 0.6 -3.6 0.4
v 0.6 -3.6 -0.4
v -0.2 0 2.4
v -0.2 0.8 2.4
v 0.2 0 2.4
v 0.2 0.8 2.4
v -0.2 -0.4 2
v -0.2 0 2
v -0.2 0.8 2
v -0.2 1.6 2
v 0.2 -0.4 2
v 0.2 0 2
v 0.2 0.8 2
v 0.2 1.6 2
v -0.2 1.6 1.6
v -0.2 2 1.6
v 0.2 1.6 1.6
v 0.2 2 1.6
v -0.2 2 1.2
v -0.2 2.8 1.2
v 0.2 2 1.2
v 0.2 2.8 1.2
v -0.2 -4 0.8
v -0.2 -3.6 0.8
v -0.2 2.8 0.8
v -0.2 3.6 0.8
v 0.2 -4 0.8
v 0.2 -3.6 0.8
v 0.2 2.8 0.8
v 0.2 3.6 0.8
v -0.6 -4 0.4
v -0.6 -3.6 0.4
v -0.2 -4 0.4
v -0.2 -3.6 0.4
v -0.2 -0.4 0.4
v -0.2 3.6 0.4
v -0.2 4 0.4
v 0.2 -4 0.4
v 0.2 -3.6 0.4
v 0.2 -0.4 0.4
v 0.2 3.6 0.4
v 0.2 4 0.4
v 0.6 -4 0.4
v 0.6 -3.6 0.4
v -0.6 -4 -0.4
v -0.6 -3.6 -0.4
v -0.2 -4 -0.4
v -0.2 -3.6 -0.4
v -0.2 -0.4 -0.4
v -0.2 3.6 -0.4
v -0.2 4 -0.4
v 0.2 -4 -0.4
v 0.2 -3.6 -0.4
v 0.2 -0.4 -0.4
v 0.2 3.6 -0.4
v 0.2 4 -0.4
v 0.6 -4 -0.4
v 0.6 -3.6 -0.4
v -0.2 -4 -0.8
v -0.2 -3.6 -0.8
v -0.2 2.8 -0.8
v -0.2 3.6 -0.8
v 0.2 -4 -0.8
v 0.2 -3.6 -0.8
v 0.2 2.8 -0.8
v 0.2 3.6 -0.8
v -0.2 2 -1.2
v -0.2 2.8 -1.2
v 0.2 2 -1.2
v 0.2 2.8 -1.2
v -0.2 1.6 -1.6
v -0.2 2 -1.6
v 0.2 1.6 -1.6
v 0.2 2 -1.6
v -0.2 -0.4 -2
v -0.2 0 -2
v -0.2 0.8 -2
v -0.2 1.6 -2
v 0.2 -0.4 -2
v 0.2 0 -2
v 0.2 0.8 -2
v 0.2 1.6 -2
v -0.2 0 -2.4
v -0.2 0.8 -2.4
v 0.2 0 -2.4
v 0.2 0.8 -2.4
v -0.2 -4 0.8
v 0.2 -4 0.8
v -0.6 -4 0.4
v -0.2 -4 0.4
v 0.2 -4 0.4
v 0.6 -4 0.4
v -0.6 -4 -0.4
v -0.2 -4 -0.4
v 0.2 -4 -0.4
v 0.6 -4 -0.4
v -0.2 -4 -0.8
v 0.2 -4 -0.8
v -0.2 -0.4 2
v 0.2 -0.4 2
v -0.2 -0.4 0.4
v 0.2 -0.4 0.4
v -0.2 -0.4 -0.4
v 0.2 -0.4 -0.4
v -0.2 -0.4 -2
v 0.2 -0.4 -2
v -0.2 0 2.4
v 0.2 0 2.4
v -0.2 0 2
v 0.2 0 2
v -0.2 0 -2
v 0.2 0 -2
v -0.2 0 -2.4
v 0.2 0 -2.4
v -0.2 -3.6 0.8
v 0.2 -3.6 0.8
v -0.6 -3.6 0.4
v -0.2 -3.6 0.4
v 0.2 -3.6 0.4
v 0.6 -3.6 0.4
v -0.6 -3.6 -0.4
v -0.2 -3.6 -0.4
v 0.2 -3.6 -0.4
v 0.6 -3.6 -0.4
v -0.2 -3.6 -0.8
v 0.2 -3.6 -0.8
v -0.2 0.8 2.4
v 0.2 0.8 2.4
v -0.2 0.8 2
v 0.2 0.8 2
v -0.2 0.8 -2
v 0.2 0.8 -2
v -0.2 0.8 -2.4
v 0.2 0.8 -2.4
v -0.2 1.6 2
v 0.2 1.6 2
v -0.2 1.6 1.6
v 0.2 1.6 1.6
v -0.2 1.6 -1.6
v 0.2 1.6 -1.6
v -0.2 1.6 -2
v 0.2 1.6 -2
v -0.2 2 1.6
v 0.2 2 1.6
v -0.2 2 1.2
v 0.2 2 1.2
v -0.2 2 -1.2
v 0.2 2 -1.2
v -0.2 2 -1.6
v 0.2 2 -1.6
v -0.2 2.8 1.2
v 0.2 2.8 1.2
v -0.2 2.8 0.8
v 0.2 2.8 0.8
v -0.2 2.8 -0.8
v 0.2 2.8 -0.8
v -0.2 2.8 -1.2
v 0.2 2.8 -1.2
v -0.2 3.6 0.8
v 0.2 3.6 0.8
v -0.2 3.6 0.4
v 0.2 3.6 0.4
v -0.2 3.6 -0.4
v 0.2 3.6 -0.4
v -0.2 3.6 -0.8
v 0.2 3.6 -0.8
v -0.2 4 0.4
v 0.2 4 0.4
v -0.2 4 -0.4
v 0.2 4 -0.4

# faces
f 3/3/1 2/3/1 1/3/1
f 4/3/1 2/3/1 3/3/1
f 9/3/1 6/3/1 5/3/1
f 10/3/1 6/3/1 9/3/1
f 11/3/1 8/3/1 7/3/1
f 12/3/1 8/3/1 11/3/1
f 14/3/1 11/3/1 10/3/1
f 15/3/1 11/3/1 14/3/1
f 18/4/1 15/4/1 14/4/1
f 18/4/1 16/4/1 15/4/1
f 18/4/1 14/4/1 13/4/1
f 19/4/1 16/4/1 18/4/1
f 21/2/1 19/2/1 18/2/1
f 22/2/1 19/2/1 21/2/1
f 23/4/1 18/4/1 17/4/1
f 24/2/1 21/2/1 18/2/1
f 24/4/1 18/4/1 23/4/1
f 25/2/1 21/2/1 24/2/1
f 26/1/1 22/1/1 21/1/1
f 26/2/1 21/2/1 25/2/1
f 27/2/1 19/2/1 22/2/1
f 27/1/1 22/1/1 26/1/1
f 28/2/1 19/2/1 27/2/1
f 29/4/1 20/4/1 19/4/1
f 29/2/1 19/2/1 28/2/1
f 30/4/1 20/4/1 29/4/1
f 31/2/1 26/2/1 25/2/1
f 31/2/1 28/2/1 27/2/1
f 31/2/1 27/2/1 26/2/1
f 32/2/1 28/2/1 31/2/1
f 33/4/1 25/4/1 24/4/1
f 34/2/1 31/2/1 25/2/1
f 34/4/1 25/4/1 33/4/1
f 35/2/1 31/2/1 34/2/1
f 36/2/1 28/2/1 32/2/1
f 37/4/1 29/4/1 28/4/1
f 37/2/1 28/2/1 36/2/1
f 38/4/1 29/4/1 37/4/1
f 39/4/1 35/4/1 34/4/1
f 40/2/1 31/2/1 35/2/1
f 40/4/1 35/4/1 39/4/1
f 41/2/1 31/2/1 40/2/1
f 42/2/1 36/2/1 32/2/1
f 43/4/1 37/4/1 36/4/1
f 43/2/1 36/2/1 42/2/1
f 44/4/1 37/4/1 43/4/1
f 45/4/1 41/4/1 40/4/1
f 46/2/1 31/2/1 41/2/1
f 46/4/1 41/4/1 45/4/1
f 47/1/1 32/1/1 31/1/1
f 47/2/1 31/2/1 46/2/1
f 48/2/1 42/2/1 32/2/1
f 48/1/1 32/1/1 47/1/1
f 49/4/1 43/4/1 42/4/1
f 49/2/1 42/2/1 48/2/1
f 50/4/1 43/4/1 49/4/1
f 51/4/1 47/4/1 46/4/1
f 51/2/1 48/2/1 47/2/1
f 52/4/1 49/4/1 48/4/1
f 52/2/1 48/2/1 51/2/1
f 53/4/1 51/4/1 46/4/1
f 53/4/1 52/4/1 51/4/1
f 54/4/1 52/4/1 53/4/1
f 55/4/1 49/4/1 52/4/1
f 55/4/1 52/4/1 54/4/1
f 56/4/1 49/4/1 55/4/1
f 57/4/1 55/4/1 54/4/1
f 58/4/1 55/4/1 57/4/1
f 59/3/2 60/3/2 63/3/2
f 63/3/2 60/3/2 64/3/2
f 61/3/2 62/3/2 65/3/2
f 65/3/2 62/3/2 66/3/2
f 64/3/2 65/3/2 68/3/2
f 68/3/2 65/3/2 69/3/2
f 68/4/2 69/4/2 72/4/2
f 69/4/2 70/4/2 72/4/2
f 67/4/2 68/4/2 72/4/2
f 72/4/2 70/4/2 73/4/2
f 72/2/2 73/2/2 75/2/2
f 75/2/2 73/2/2 76/2/2
f 71/4/2 72/4/2 77/4/2
f 72/2/2 75/2/2 78/2/2
f 77/4/2 72/4/2 78/4/2
f 78/2/2 75/2/2 79/2/2
f 75/1/2 76/1/2 80/1/2
f 79/2/2 75/2/2 80/2/2
f 76/2/2 73/2/2 81/2/2
f 80/1/2 76/1/2 81/1/2
f 81/2/2 73/2/2 82/2/2
f 73/4/2 74/4/2 83/4/2
f 82/2/2 73/2/2 83/2/2
f 83/4/2 74/4/2 84/4/2
f 79/2/2 80/2/2 85/2/2
f 81/2/2 82/2/2 85/2/2
f 80/2/2 81/2/2 85/2/2
f 85/2/2 82/2/2 86/2/2
f 78/4/2 79/4/2 87/4/2
f 79/2/2 85/2/2 88/2/2
f 87/4/2 79/4/2 88/4/2
f 88/2/2 85/2/2 89/2/2
f 86/2/2 82/2/2 90/2/2
f 82/4/2 83/4/2 91/4/2
f 90/2/2 82/2/2 91/2/2
f 91/4/2 83/4/2 92/4/2
f 88/4/2 89/4/2 93/4/2
f 89/2/2 85/2/2 94/2/2
f 93/4/2 89/4/2 94/4/2
f 94/2/2 85/2/2 95/2/2
f 86/2/2 90/2/2 96/2/2
f 90/4/2 91/4/2 97/4/2
f 96/2/2 90/2/2 97/2/2
f 97/4/2 91/4/2 98/4/2
f 94/4/2 95/4/2 99/4/2
f 95/2/2 85/2/2 100/2/2
f 99/4/2 95/4/2 100/4/2
f 85/1/2 86/1/2 101/1/2
f 100/2/2 85/2/2 101/2/2
f 86/2/2 96/2/2 102/2/2
f 101/1/2 86/1/2 102/1/2
f 96/4/2 97/4/2 103/4/2
f 102/2/2 96/2/2 103/2/2
f 103/4/2 97/4/2 104/4/2
f 100/4/2 101/4/2 105/4/2
f 101/2/2 102/2/2 105/2/2
f 102/4/2 103/4/2 106/4/2
f 105/2/2 102/2/2 106/2/2
f 100/4/2 105/4/2 107/4/2
f 105/4/2 106/4/2 107/4/2
f 107/4/2 106/4/2 108/4/2
f 106/4/2 103/4/2 109/4/2
f 108/4/2 106/4/2 109/4/2
f 109/4/2 103/4/2 110/4/2
f 108/4/2 109/4/2 111/4/2
f 111/4/2 109/4/2 112/4/2
f 113/3/2 114/3/2 115/3/2
f 115/3/2 114/3/2 116/3/2
f 119/4/3 118/4/3 117/4/3
f 120/4/3 118/4/3 119/4/3
f 125/4/3 122/4/3 121/4/3
f 126/4/3 122/4/3 125/4/3
f 127/4/3 124/4/3 123/4/3
f 128/4/3 124/4/3 127/4/3
f 131/4/3 130/4/3 129/4/3
f 132/4/3 130/4/3 131/4/3
f 135/4/3 134/4/3 133/4/3
f 136/4/3 134/4/3 135/4/3
f 141/3/3 138/3/3 137/3/3
f 142/3/3 138/3/3 141/3/3
f 143/4/3 140/4/3 139/4/3
f 144/4/3 140/4/3 143/4/3
f 147/3/3 146/3/3 145/3/3
f 148/3/3 146/3/3 147/3/3
f 153/3/3 149/3/3 148/3/3
f 154/3/3 149/3/3 153/3/3
f 155/4/3 151/4/3 150/4/3
f 156/4/3 151/4/3 155/4/3
f 157/3/3 153/3/3 152/3/3
f 158/3/3 153/3/3 157/3/3
f 159/3/4 160/3/4 161/3/4
f 161/3/4 160/3/4 162/3/4
f 162/3/4 163/3/4 167/3/4
f 167/3/4 163/3/4 168/3/4
f 164/4/4 165/4/4 169/4/4
f 169/4/4 165/4/4 170/4/4
f 166/3/4 167/3/4 171/3/4
f 171/3/4 167/3/4 172/3/4
f 173/3/4 174/3/4 177/3/4
f 177/3/4 174/3/4 178/3/4
f 175/4/4 176/4/4 179/4/4
f 179/4/4 176/4/4 180/4/4
f 181/4/4 182/4/4 183/4/4
f 183/4/4 182/4/4 184/4/4
f 185/4/4 186/4/4 187/4/4
f 187/4/4 186/4/4 188/4/4
f 189/4/4 190/4/4 193/4/4
f 193/4/4 190/4/4 194/4/4
f 191/4/4 192/4/4 195/4/4
f 195/4/4 192/4/4 196/4/4
f 197/4/4 198/4/4 199/4/4
f 199/4/4 198/4/4 200/4/4
f 204/3/5 202/3/5 201/3/5
f 205/3/5 202/3/5 204/3/5
f 207/3/5 204/3/5 203/3/5
f 207/3/5 206/3/5 205/3/5
f 207/3/5 205/3/5 204/3/5
f 208/3/5 206/3/5 207/3/5
f 209/3/5 206/3/5 208/3/5
f 210/3/5 206/3/5 209/3/5
f 211/3/5 209/3/5 208/3/5
f 212/3/5 209/3/5 211/3/5
f 215/4/5 214/4/5 213/4/5
f 216/4/5 214/4/5 215/4/5
f 219/4/5 218/4/5 217/4/5
f 220/4/5 218/4/5 219/4/5
f 223/4/5 222/4/5 221/4/5
f 224/4/5 222/4/5 223/4/5
f 227/4/5 226/4/5 225/4/5
f 228/4/5 226/4/5 227/4/5
f 229/3/6 230/3/6 232/3/6
f 232/3/6 230/3/6 233/3/6
f 231/3/6 232/3/6 235/3/6
f 235/3/6 232/3/6 236/3/6
f 233/3/6 234/3/6 237/3/6
f 237/3/6 234/3/6 238/3/6
f 236/3/6 237/3/6 239/3/6
f 239/3/6 237/3/6 240/3/6
f 241/4/6 242/4/6 243/4/6
f 243/4/6 242/4/6 244/4/6
f 245/4/6 246/4/6 247/4/6
f 247/4/6 246/4/6 248/4/6
f 249/4/6 250/4/6 251/4/6
f 251/4/6 250/4/6 252/4/6
f 253/4/6 254/4/6 255/4/6
f 255/4/6 254/4/6 256/4/6
f 257/4/6 258/4/6 259/4/6
f 259/4/6 258/4/6 260/4/6
f 261/4/6 262/4/6 263/4/6
f 263/4/6 262/4/6 264/4/6
f 265/4/6 266/4/6 267/4/6
f 267/4/6 266/4/6 268/4/6
f 269/4/6 270/4/6 271/4/6
f 271/4/6 270/4/6 272/4/6
f 273/4/6 274/4/6 275/4/6
f 275/4/6 274/4/6 276/4/6
f 277/4/6 278/4/6 279/4/6
f 279/4/6 278/4/6 280/4/6
f 281/4/6 282/4/6 283/4/6
f 283/4/6 282/4/6 284/4/6
