# MagicaVoxel @ Ephtracy

# group
o 

# material
mtllib stingDrop.mtl
usemtl palette

# normals
vn -1 0 0
vn 1 0 0
vn 0 0 1
vn 0 0 -1
vn 0 -1 0
vn 0 1 0

# texcoords
vt 0.951172 0.5
vt 0.955078 0.5
vt 0.978516 0.5

# verts
v -0.3 0.3 0
v -0.3 0.3 -0.1
v -0.3 0.5 0
v -0.3 0.5 -0.1
v -0.2 0.2 0.1
v -0.2 0.2 -0.2
v -0.2 0.3 0.1
v -0.2 0.3 0
v -0.2 0.3 -0.1
v -0.2 0.4 -0.1
v -0.2 0.4 -0.2
v -0.2 0.5 0.1
v -0.2 0.5 0
v -0.2 0.5 -0.1
v -0.2 0.5 -0.2
v -0.2 0.6 0
v -0.2 0.6 -0.1
v -0.1 -0.5 0
v -0.1 -0.5 -0.1
v -0.1 -0.4 0
v -0.1 -0.4 -0.1
v -0.1 -0.1 0
v -0.1 -0.1 -0.1
v -0.1 0.1 0.2
v -0.1 0.1 0
v -0.1 0.1 -0.1
v -0.1 0.1 -0.3
v -0.1 0.2 0.2
v -0.1 0.2 0.1
v -0.1 0.2 -0.2
v -0.1 0.3 0.1
v -0.1 0.4 0.2
v -0.1 0.4 0.1
v -0.1 0.4 -0.2
v -0.1 0.4 -0.3
v 0 -0.4 0
v 0 -0.4 -0.1
v 0 -0.3 0.1
v 0 -0.3 0
v 0 -0.3 -0.1
v 0 -0.3 -0.2
v 0 -0.1 0
v 0 -0.1 -0.1
v 0 -0.1 -0.2
v 0 0.1 0.1
v 0 0.1 0
v 0 0.1 -0.1
v 0 0.1 -0.2
v -0.1 0.5 0
v -0.1 0.5 -0.1
v -0.1 0.6 0
v -0.1 0.6 -0.1
v 0 -0.5 0
v 0 -0.5 -0.1
v 0 -0.4 0
v 0 -0.4 -0.1
v 0 0.3 0.2
v 0 0.3 0.1
v 0 0.3 -0.2
v 0 0.3 -0.3
v 0 0.4 0.2
v 0 0.4 0.1
v 0 0.4 -0.2
v 0 0.4 -0.3
v 0 0.5 0.1
v 0 0.5 -0.2
v 0.1 -0.4 0
v 0.1 -0.4 -0.1
v 0.1 -0.3 0.1
v 0.1 -0.3 0
v 0.1 -0.3 -0.1
v 0.1 -0.3 -0.2
v 0.1 -0.1 0.1
v 0.1 -0.1 0
v 0.1 -0.1 -0.1
v 0.1 -0.1 -0.2
v 0.1 0.1 0.2
v 0.1 0.1 0.1
v 0.1 0.1 0
v 0.1 0.1 -0.1
v 0.1 0.1 -0.2
v 0.1 0.1 -0.3
v 0.1 0.2 0.2
v 0.1 0.2 0.1
v 0.1 0.3 0.2
v 0.1 0.3 0.1
v 0.1 0.3 0
v 0.1 0.3 -0.1
v 0.1 0.3 -0.2
v 0.1 0.3 -0.3
v 0.1 0.4 0.1
v 0.1 0.4 -0.2
v 0.2 -0.3 0
v 0.2 -0.3 -0.1
v 0.2 -0.1 0.1
v 0.2 -0.1 0
v 0.2 -0.1 -0.1
v 0.2 -0.1 -0.2
v 0.2 0 0.1
v 0.2 0 0
v 0.2 0.1 0.1
v 0.2 0.1 0
v 0.2 0.1 -0.1
v 0.2 0.1 -0.2
v 0.2 0.3 0
v 0.2 0.3 -0.1
v 0.3 -0.1 0
v 0.3 -0.1 -0.1
v 0.3 0.1 0
v 0.3 0.1 -0.1
v -0.1 0.1 0.2
v -0.1 0.2 0.2
v -0.1 0.4 0.2
v 0 0.2 0.2
v 0 0.3 0.2
v 0 0.4 0.2
v 0.1 0.1 0.2
v 0.1 0.2 0.2
v 0.1 0.3 0.2
v -0.2 0.2 0.1
v -0.2 0.3 0.1
v -0.2 0.5 0.1
v -0.1 0.2 0.1
v -0.1 0.3 0.1
v -0.1 0.4 0.1
v -0.1 0.5 0.1
v 0 -0.3 0.1
v 0 0.1 0.1
v 0 0.3 0.1
v 0 0.4 0.1
v 0 0.5 0.1
v 0.1 -0.3 0.1
v 0.1 -0.1 0.1
v 0.1 0 0.1
v 0.1 0.1 0.1
v 0.1 0.3 0.1
v 0.1 0.4 0.1
v 0.2 -0.1 0.1
v 0.2 0 0.1
v 0.2 0.1 0.1
v -0.3 0.3 0
v -0.3 0.5 0
v -0.2 0.3 0
v -0.2 0.5 0
v -0.2 0.6 0
v -0.1 -0.5 0
v -0.1 -0.4 0
v -0.1 -0.1 0
v -0.1 0.1 0
v -0.1 0.5 0
v -0.1 0.6 0
v 0 -0.5 0
v 0 -0.4 0
v 0 -0.3 0
v 0 -0.1 0
v 0 0.1 0
v 0.1 -0.4 0
v 0.1 -0.3 0
v 0.1 -0.1 0
v 0.1 0.1 0
v 0.1 0.3 0
v 0.2 -0.3 0
v 0.2 -0.1 0
v 0.2 0 0
v 0.2 0.1 0
v 0.2 0.3 0
v 0.3 -0.1 0
v 0.3 0.1 0
v -0.3 0.3 -0.1
v -0.3 0.5 -0.1
v -0.2 0.3 -0.1
v -0.2 0.4 -0.1
v -0.2 0.5 -0.1
v -0.2 0.6 -0.1
v -0.1 -0.5 -0.1
v -0.1 -0.4 -0.1
v -0.1 -0.1 -0.1
v -0.1 0.1 -0.1
v -0.1 0.5 -0.1
v -0.1 0.6 -0.1
v 0 -0.5 -0.1
v 0 -0.4 -0.1
v 0 -0.3 -0.1
v 0 -0.1 -0.1
v 0 0.1 -0.1
v 0.1 -0.4 -0.1
v 0.1 -0.3 -0.1
v 0.1 -0.1 -0.1
v 0.1 0.1 -0.1
v 0.1 0.3 -0.1
v 0.2 -0.3 -0.1
v 0.2 -0.1 -0.1
v 0.2 0.1 -0.1
v 0.2 0.3 -0.1
v 0.3 -0.1 -0.1
v 0.3 0.1 -0.1
v -0.2 0.2 -0.2
v -0.2 0.4 -0.2
v -0.2 0.5 -0.2
v -0.1 0.2 -0.2
v -0.1 0.4 -0.2
v -0.1 0.5 -0.2
v 0 -0.3 -0.2
v 0 -0.1 -0.2
v 0 0.1 -0.2
v 0 0.3 -0.2
v 0 0.4 -0.2
v 0 0.5 -0.2
v 0.1 -0.3 -0.2
v 0.1 -0.1 -0.2
v 0.1 0.1 -0.2
v 0.1 0.3 -0.2
v 0.1 0.4 -0.2
v 0.2 -0.1 -0.2
v 0.2 0.1 -0.2
v -0.1 0.1 -0.3
v -0.1 0.4 -0.3
v 0 0.3 -0.3
v 0 0.4 -0.3
v 0.1 0.1 -0.3
v 0.1 0.3 -0.3
v -0.1 -0.5 0
v 0 -0.5 0
v -0.1 -0.5 -0.1
v 0 -0.5 -0.1
v 0 -0.4 0
v 0.1 -0.4 0
v 0 -0.4 -0.1
v 0.1 -0.4 -0.1
v 0 -0.3 0.1
v 0.1 -0.3 0.1
v 0 -0.3 0
v 0.1 -0.3 0
v 0.2 -0.3 0
v 0 -0.3 -0.1
v 0.1 -0.3 -0.1
v 0.2 -0.3 -0.1
v 0 -0.3 -0.2
v 0.1 -0.3 -0.2
v 0.1 -0.1 0.1
v 0.2 -0.1 0.1
v -0.1 -0.1 0
v 0 -0.1 0
v 0.1 -0.1 0
v 0.2 -0.1 0
v 0.3 -0.1 0
v -0.1 -0.1 -0.1
v 0 -0.1 -0.1
v 0.1 -0.1 -0.1
v 0.2 -0.1 -0.1
v 0.3 -0.1 -0.1
v 0.1 -0.1 -0.2
v 0.2 -0.1 -0.2
v -0.1 0.1 0.2
v 0.1 0.1 0.2
v 0 0.1 0.1
v 0.1 0.1 0.1
v -0.1 0.1 0
v 0 0.1 0
v -0.1 0.1 -0.1
v 0 0.1 -0.1
v 0 0.1 -0.2
v 0.1 0.1 -0.2
v -0.1 0.1 -0.3
v 0.1 0.1 -0.3
v -0.2 0.2 0.1
v -0.1 0.2 0.1
v -0.2 0.2 -0.2
v -0.1 0.2 -0.2
v -0.3 0.3 0
v -0.2 0.3 0
v -0.3 0.3 -0.1
v -0.2 0.3 -0.1
v -0.1 -0.4 0
v 0 -0.4 0
v -0.1 -0.4 -0.1
v 0 -0.4 -0.1
v 0.1 0.1 0.1
v 0.2 0.1 0.1
v 0.1 0.1 0
v 0.2 0.1 0
v 0.3 0.1 0
v 0.1 0.1 -0.1
v 0.2 0.1 -0.1
v 0.3 0.1 -0.1
v 0.1 0.1 -0.2
v 0.2 0.1 -0.2
v 0 0.3 0.2
v 0.1 0.3 0.2
v 0 0.3 0.1
v 0.1 0.3 0.1
v 0.1 0.3 0
v 0.2 0.3 0
v 0.1 0.3 -0.1
v 0.2 0.3 -0.1
v 0 0.3 -0.2
v 0.1 0.3 -0.2
v 0 0.3 -0.3
v 0.1 0.3 -0.3
v -0.1 0.4 0.2
v 0 0.4 0.2
v -0.1 0.4 0.1
v 0 0.4 0.1
v 0.1 0.4 0.1
v -0.1 0.4 -0.2
v 0 0.4 -0.2
v 0.1 0.4 -0.2
v -0.1 0.4 -0.3
v 0 0.4 -0.3
v -0.2 0.5 0.1
v -0.1 0.5 0.1
v 0 0.5 0.1
v -0.3 0.5 0
v -0.2 0.5 0
v -0.1 0.5 0
v -0.3 0.5 -0.1
v -0.2 0.5 -0.1
v -0.1 0.5 -0.1
v -0.2 0.5 -0.2
v -0.1 0.5 -0.2
v 0 0.5 -0.2
v -0.2 0.6 0
v -0.1 0.6 0
v -0.2 0.6 -0.1
v -0.1 0.6 -0.1

# faces
f 3/1/1 2/1/1 1/1/1
f 4/1/1 2/1/1 3/1/1
f 7/3/1 6/3/1 5/3/1
f 8/3/1 6/3/1 7/3/1
f 9/3/1 6/3/1 8/3/1
f 10/3/1 6/3/1 9/3/1
f 11/3/1 6/3/1 10/3/1
f 12/1/1 8/1/1 7/1/1
f 13/1/1 8/1/1 12/1/1
f 14/1/1 11/1/1 10/1/1
f 15/1/1 11/1/1 14/1/1
f 16/1/1 14/1/1 13/1/1
f 17/1/1 14/1/1 16/1/1
f 20/1/1 19/1/1 18/1/1
f 21/1/1 19/1/1 20/1/1
f 25/3/1 23/3/1 22/3/1
f 26/3/1 23/3/1 25/3/1
f 28/3/1 26/3/1 25/3/1
f 28/3/1 27/3/1 26/3/1
f 28/3/1 25/3/1 24/3/1
f 29/3/1 27/3/1 28/3/1
f 30/3/1 27/3/1 29/3/1
f 31/1/1 29/1/1 28/1/1
f 32/1/1 31/1/1 28/1/1
f 33/1/1 31/1/1 32/1/1
f 34/3/1 27/3/1 30/3/1
f 35/3/1 27/3/1 34/3/1
f 39/3/1 37/3/1 36/3/1
f 40/3/1 37/3/1 39/3/1
f 42/3/1 39/3/1 38/3/1
f 42/3/1 40/3/1 39/3/1
f 43/2/1 41/2/1 40/2/1
f 43/3/1 40/3/1 42/3/1
f 44/2/1 41/2/1 43/2/1
f 45/3/1 42/3/1 38/3/1
f 46/3/1 42/3/1 45/3/1
f 47/3/1 44/3/1 43/3/1
f 48/3/1 44/3/1 47/3/1
f 49/1/2 50/1/2 51/1/2
f 51/1/2 50/1/2 52/1/2
f 53/1/2 54/1/2 55/1/2
f 55/1/2 54/1/2 56/1/2
f 57/1/2 58/1/2 61/1/2
f 61/1/2 58/1/2 62/1/2
f 59/3/2 60/3/2 63/3/2
f 63/3/2 60/3/2 64/3/2
f 62/2/2 63/2/2 65/2/2
f 65/2/2 63/2/2 66/2/2
f 67/3/2 68/3/2 70/3/2
f 70/3/2 68/3/2 71/3/2
f 69/3/2 70/3/2 73/3/2
f 73/3/2 70/3/2 74/3/2
f 71/2/2 72/2/2 75/2/2
f 75/2/2 72/2/2 76/2/2
f 77/3/2 78/3/2 83/3/2
f 78/2/2 79/2/2 84/2/2
f 83/3/2 78/3/2 84/3/2
f 83/2/2 84/2/2 85/2/2
f 84/2/2 79/2/2 86/2/2
f 85/2/2 84/2/2 86/2/2
f 86/2/2 79/2/2 87/2/2
f 80/2/2 81/2/2 88/2/2
f 81/3/2 82/3/2 89/3/2
f 88/2/2 81/2/2 89/2/2
f 89/3/2 82/3/2 90/3/2
f 86/2/2 87/2/2 91/2/2
f 87/2/2 88/2/2 91/2/2
f 88/2/2 89/2/2 91/2/2
f 91/2/2 89/2/2 92/2/2
f 93/2/2 94/2/2 96/2/2
f 96/2/2 94/2/2 97/2/2
f 95/3/2 96/3/2 99/3/2
f 99/3/2 96/3/2 100/3/2
f 99/2/2 100/2/2 101/2/2
f 101/2/2 100/2/2 102/2/2
f 97/2/2 98/2/2 103/2/2
f 103/2/2 98/2/2 104/2/2
f 102/2/2 103/2/2 105/2/2
f 105/2/2 103/2/2 106/2/2
f 107/2/2 108/2/2 109/2/2
f 109/2/2 108/2/2 110/2/2
f 114/3/3 112/3/3 111/3/3
f 114/1/3 113/1/3 112/1/3
f 115/1/3 113/1/3 114/1/3
f 116/1/3 113/1/3 115/1/3
f 117/3/3 114/3/3 111/3/3
f 118/2/3 115/2/3 114/2/3
f 118/3/3 114/3/3 117/3/3
f 119/2/3 115/2/3 118/2/3
f 123/3/3 121/3/3 120/3/3
f 124/1/3 122/1/3 121/1/3
f 124/3/3 121/3/3 123/3/3
f 125/1/3 122/1/3 124/1/3
f 126/1/3 122/1/3 125/1/3
f 130/2/3 126/2/3 125/2/3
f 131/2/3 126/2/3 130/2/3
f 132/3/3 128/3/3 127/3/3
f 133/3/3 128/3/3 132/3/3
f 134/3/3 128/3/3 133/3/3
f 135/3/3 128/3/3 134/3/3
f 136/2/3 130/2/3 129/2/3
f 137/2/3 130/2/3 136/2/3
f 138/3/3 134/3/3 133/3/3
f 139/2/3 135/2/3 134/2/3
f 139/3/3 134/3/3 138/3/3
f 140/2/3 135/2/3 139/2/3
f 143/1/3 142/1/3 141/1/3
f 144/1/3 142/1/3 143/1/3
f 150/1/3 145/1/3 144/1/3
f 151/1/3 145/1/3 150/1/3
f 152/1/3 147/1/3 146/1/3
f 153/1/3 147/1/3 152/1/3
f 155/3/3 149/3/3 148/3/3
f 156/3/3 149/3/3 155/3/3
f 157/3/3 154/3/3 153/3/3
f 158/3/3 154/3/3 157/3/3
f 162/2/3 159/2/3 158/2/3
f 163/2/3 159/2/3 162/2/3
f 165/2/3 161/2/3 160/2/3
f 166/2/3 161/2/3 165/2/3
f 167/2/3 164/2/3 163/2/3
f 167/2/3 165/2/3 164/2/3
f 168/2/3 165/2/3 167/2/3
f 169/1/4 170/1/4 171/1/4
f 171/1/4 170/1/4 172/1/4
f 172/1/4 170/1/4 173/1/4
f 173/1/4 174/1/4 179/1/4
f 179/1/4 174/1/4 180/1/4
f 175/1/4 176/1/4 181/1/4
f 181/1/4 176/1/4 182/1/4
f 177/3/4 178/3/4 184/3/4
f 184/3/4 178/3/4 185/3/4
f 182/3/4 183/3/4 186/3/4
f 186/3/4 183/3/4 187/3/4
f 187/2/4 188/2/4 191/2/4
f 191/2/4 188/2/4 192/2/4
f 189/2/4 190/2/4 193/2/4
f 193/2/4 190/2/4 194/2/4
f 192/2/4 193/2/4 195/2/4
f 195/2/4 193/2/4 196/2/4
f 197/3/4 198/3/4 200/3/4
f 198/1/4 199/1/4 201/1/4
f 200/3/4 198/3/4 201/3/4
f 201/1/4 199/1/4 202/1/4
f 201/2/4 202/2/4 207/2/4
f 207/2/4 202/2/4 208/2/4
f 203/2/4 204/2/4 209/2/4
f 204/3/4 205/3/4 210/3/4
f 209/2/4 204/2/4 210/2/4
f 210/3/4 205/3/4 211/3/4
f 206/2/4 207/2/4 212/2/4
f 212/2/4 207/2/4 213/2/4
f 210/2/4 211/2/4 214/2/4
f 214/2/4 211/2/4 215/2/4
f 216/3/4 217/3/4 218/3/4
f 218/3/4 217/3/4 219/3/4
f 216/3/4 218/3/4 220/3/4
f 220/3/4 218/3/4 221/3/4
f 224/1/5 223/1/5 222/1/5
f 225/1/5 223/1/5 224/1/5
f 228/3/5 227/3/5 226/3/5
f 229/3/5 227/3/5 228/3/5
f 232/3/5 231/3/5 230/3/5
f 233/3/5 231/3/5 232/3/5
f 236/2/5 234/2/5 233/2/5
f 237/2/5 234/2/5 236/2/5
f 238/2/5 236/2/5 235/2/5
f 239/2/5 236/2/5 238/2/5
f 244/3/5 241/3/5 240/3/5
f 245/3/5 241/3/5 244/3/5
f 247/3/5 243/3/5 242/3/5
f 248/3/5 243/3/5 247/3/5
f 250/2/5 246/2/5 245/2/5
f 251/2/5 246/2/5 250/2/5
f 252/2/5 250/2/5 249/2/5
f 253/2/5 250/2/5 252/2/5
f 256/3/5 255/3/5 254/3/5
f 257/3/5 255/3/5 256/3/5
f 258/3/5 256/3/5 254/3/5
f 259/3/5 256/3/5 258/3/5
f 262/3/5 261/3/5 260/3/5
f 264/3/5 262/3/5 260/3/5
f 264/3/5 263/3/5 262/3/5
f 265/3/5 263/3/5 264/3/5
f 268/3/5 267/3/5 266/3/5
f 269/3/5 267/3/5 268/3/5
f 272/1/5 271/1/5 270/1/5
f 273/1/5 271/1/5 272/1/5
f 274/1/6 275/1/6 276/1/6
f 276/1/6 275/1/6 277/1/6
f 278/2/6 279/2/6 280/2/6
f 280/2/6 279/2/6 281/2/6
f 281/2/6 282/2/6 284/2/6
f 284/2/6 282/2/6 285/2/6
f 283/2/6 284/2/6 286/2/6
f 286/2/6 284/2/6 287/2/6
f 288/2/6 289/2/6 290/2/6
f 290/2/6 289/2/6 291/2/6
f 292/2/6 293/2/6 294/2/6
f 294/2/6 293/2/6 295/2/6
f 296/3/6 297/3/6 298/3/6
f 298/3/6 297/3/6 299/3/6
f 300/1/6 301/1/6 302/1/6
f 302/1/6 301/1/6 303/1/6
f 303/2/6 304/2/6 306/2/6
f 306/2/6 304/2/6 307/2/6
f 305/3/6 306/3/6 308/3/6
f 308/3/6 306/3/6 309/3/6
f 310/1/6 311/1/6 314/1/6
f 311/2/6 312/2/6 315/2/6
f 314/1/6 311/1/6 315/1/6
f 313/1/6 314/1/6 316/1/6
f 316/1/6 314/1/6 317/1/6
f 315/2/6 312/2/6 318/2/6
f 317/1/6 318/1/6 319/1/6
f 318/2/6 312/2/6 320/2/6
f 319/1/6 318/1/6 320/1/6
f 320/2/6 312/2/6 321/2/6
f 322/1/6 323/1/6 324/1/6
f 324/1/6 323/1/6 325/1/6
