# MagicaVoxel @ Ephtracy

# group
o 

# material
mtllib ArmorNastiaVer-0.mtl
usemtl palette

# normals
vn -1 0 0
vn 1 0 0
vn 0 0 1
vn 0 0 -1
vn 0 -1 0
vn 0 1 0

# texcoords
vt 0.751953 0.5
vt 0.755859 0.5
vt 0.767578 0.5
vt 0.779297 0.5
vt 0.783203 0.5
vt 0.787109 0.5
vt 0.810547 0.5

# verts
v -0.6 -5.96046e-08 0.4
v -0.6 -5.96046e-08 -0.3
v -0.6 -5.96046e-08 -0.4
v -0.6 0.1 0.4
v -0.6 0.1 0.3
v -0.6 0.1 0
v -0.6 0.1 -0.1
v -0.6 0.2 0.4
v -0.6 0.2 0.3
v -0.6 0.2 0
v -0.6 0.2 -0.1
v -0.6 0.2 -0.3
v -0.6 0.2 -0.4
v -0.5 -5.96046e-08 0.5
v -0.5 -5.96046e-08 0.4
v -0.5 -5.96046e-08 -0.4
v -0.5 -5.96046e-08 -0.5
v -0.5 0.1 0.4
v -0.5 0.1 -0.4
v -0.5 0.1 -0.5
v -0.5 0.2 0.5
v -0.5 0.2 0.4
v -0.5 0.2 -0.4
v -0.5 0.2 -0.5
v 0.4 -5.96046e-08 0.4
v 0.4 -5.96046e-08 0.3
v 0.4 -5.96046e-08 -0.3
v 0.4 -5.96046e-08 -0.4
v 0.4 0.1 0.4
v 0.4 0.2 0.4
v 0.4 0.2 0.3
v 0.4 0.2 -0.3
v 0.4 0.2 -0.4
v 0.5 -0.6 0.1
v 0.5 -0.6 -0.1
v 0.5 -0.5 0.3
v 0.5 -0.5 0.1
v 0.5 -0.5 -0.1
v 0.5 -0.5 -0.3
v 0.5 -0.3 0.1
v 0.5 -0.3 -0.1
v 0.5 -0.3 -0.3
v 0.5 -0.3 -0.4
v 0.5 -0.2 0.4
v 0.5 -0.2 0.3
v 0.5 -0.2 0.2
v 0.5 -0.2 0.1
v 0.5 -0.2 -0.1
v 0.5 -0.2 -0.2
v 0.5 -5.96046e-08 0.4
v 0.5 -5.96046e-08 0.3
v 0.5 -5.96046e-08 0.2
v 0.5 -5.96046e-08 0.1
v 0.5 -5.96046e-08 -0.1
v 0.5 -5.96046e-08 -0.2
v 0.5 -5.96046e-08 -0.3
v 0.5 -5.96046e-08 -0.4
v 0.5 0.2 0.4
v 0.5 0.2 0.3
v 0.5 0.2 -0.3
v 0.5 0.2 -0.4
v 0.5 0.5 0.3
v 0.5 0.5 0.2
v 0.5 0.6 0.4
v 0.5 0.6 0.3
v 0.5 0.6 0.2
v 0.5 0.6 0.1
v 0.5 0.6 -0.3
v 0.5 0.6 -0.4
v 0.5 0.7 0.3
v 0.5 0.7 0.1
v 0.5 0.7 -0.3
v -0.5 -5.96046e-08 0.4
v -0.5 -5.96046e-08 -0.3
v -0.5 -5.96046e-08 -0.4
v -0.5 0.1 0.4
v -0.5 0.1 0.3
v -0.5 0.1 0
v -0.5 0.1 -0.1
v -0.5 0.1 -0.4
v -0.5 0.2 0.4
v -0.5 0.2 0.3
v -0.5 0.2 0
v -0.5 0.2 -0.1
v -0.5 0.2 -0.3
v -0.5 0.2 -0.4
v 0.4 -5.96046e-08 0.5
v 0.4 -5.96046e-08 0.4
v 0.4 -5.96046e-08 -0.4
v 0.4 -5.96046e-08 -0.5
v 0.4 0.1 0.5
v 0.4 0.1 0.4
v 0.4 0.2 0.5
v 0.4 0.2 0.4
v 0.4 0.2 -0.4
v 0.4 0.2 -0.5
v 0.6 -0.6 0.1
v 0.6 -0.6 -0.1
v 0.6 -0.5 0.3
v 0.6 -0.5 0.1
v 0.6 -0.5 -0.1
v 0.6 -0.5 -0.3
v 0.6 -0.3 0.1
v 0.6 -0.3 -0.1
v 0.6 -0.3 -0.3
v 0.6 -0.3 -0.4
v 0.6 -0.2 0.4
v 0.6 -0.2 0.3
v 0.6 -0.2 0.2
v 0.6 -0.2 0.1
v 0.6 -0.2 -0.1
v 0.6 -0.2 -0.2
v 0.6 -5.96046e-08 0.2
v 0.6 -5.96046e-08 0.1
v 0.6 -5.96046e-08 -0.1
v 0.6 -5.96046e-08 -0.2
v 0.6 0.2 0.4
v 0.6 0.2 0.3
v 0.6 0.2 0.1
v 0.6 0.3 -0.1
v 0.6 0.4 0.1
v 0.6 0.4 -0.1
v 0.6 0.5 0.3
v 0.6 0.5 0.2
v 0.6 0.6 0.4
v 0.6 0.6 0.3
v 0.6 0.6 0.2
v 0.6 0.6 0.1
v 0.6 0.6 -0.3
v 0.6 0.6 -0.4
v 0.6 0.7 0.3
v 0.6 0.7 0.1
v 0.6 0.7 -0.3
v 0.7 -0.2 0.1
v 0.7 -0.2 -0.1
v 0.7 0.2 0.1
v 0.7 0.2 0
v 0.7 0.3 0
v 0.7 0.3 -0.1
v 0.7 0.4 0.1
v 0.7 0.4 -0.1
v -0.5 -5.96046e-08 0.5
v -0.5 0.2 0.5
v -0.4 -5.96046e-08 0.5
v -0.4 0.2 0.5
v -0.3 -5.96046e-08 0.5
v -0.3 0.1 0.5
v -0.2 -5.96046e-08 0.5
v -0.2 0.1 0.5
v 0.2 -5.96046e-08 0.5
v 0.2 0.1 0.5
v 0.4 -5.96046e-08 0.5
v 0.4 0.1 0.5
v 0.4 0.2 0.5
v -0.6 -5.96046e-08 0.4
v -0.6 0.1 0.4
v -0.6 0.2 0.4
v -0.5 -5.96046e-08 0.4
v -0.5 0.1 0.4
v -0.5 0.2 0.4
v 0.4 -5.96046e-08 0.4
v 0.4 0.1 0.4
v 0.4 0.2 0.4
v 0.5 -0.2 0.4
v 0.5 -5.96046e-08 0.4
v 0.5 0.2 0.4
v 0.5 0.6 0.4
v 0.6 -0.2 0.4
v 0.6 0.2 0.4
v 0.6 0.6 0.4
v 0.5 -0.5 0.3
v 0.5 -0.2 0.3
v 0.5 0.6 0.3
v 0.5 0.7 0.3
v 0.6 -0.5 0.3
v 0.6 -0.2 0.3
v 0.6 0.6 0.3
v 0.6 0.7 0.3
v 0.5 -0.6 0.1
v 0.5 -0.5 0.1
v 0.6 -0.6 0.1
v 0.6 -0.5 0.1
v 0.6 -0.2 0.1
v 0.6 -5.96046e-08 0.1
v 0.6 0.2 0.1
v 0.6 0.4 0.1
v 0.7 -0.2 0.1
v 0.7 0.2 0.1
v 0.7 0.4 0.1
v 0.4 -5.96046e-08 -0.3
v 0.4 0.2 -0.3
v 0.5 -5.96046e-08 -0.3
v 0.5 0.2 -0.3
v -0.5 -5.96046e-08 -0.4
v -0.5 0.1 -0.4
v -0.5 0.2 -0.4
v -0.4 -5.96046e-08 -0.4
v -0.4 0.1 -0.4
v -5.96046e-08 -5.96046e-08 -0.4
v -5.96046e-08 0.1 -0.4
v 0.1 -5.96046e-08 -0.4
v 0.1 0.1 -0.4
v 0.1 0.2 -0.4
v 0.3 0.1 -0.4
v 0.3 0.2 -0.4
v 0.4 -5.96046e-08 -0.4
v 0.4 0.2 -0.4
v -0.5 -5.96046e-08 0.4
v -0.5 0.1 0.4
v -0.5 0.2 0.4
v -0.4 -5.96046e-08 0.4
v -0.4 0.2 0.4
v -0.3 -5.96046e-08 0.4
v -0.3 0.1 0.4
v -0.2 -5.96046e-08 0.4
v -0.2 0.1 0.4
v 0.2 -5.96046e-08 0.4
v 0.2 0.1 0.4
v 0.4 -5.96046e-08 0.4
v 0.4 0.1 0.4
v 0.4 0.2 0.4
v 0.4 -5.96046e-08 0.3
v 0.4 0.2 0.3
v 0.5 -5.96046e-08 0.3
v 0.5 0.2 0.3
v 0.5 -0.6 -0.1
v 0.5 -0.5 -0.1
v 0.6 -0.6 -0.1
v 0.6 -0.5 -0.1
v 0.6 -0.2 -0.1
v 0.6 -5.96046e-08 -0.1
v 0.6 0.3 -0.1
v 0.6 0.4 -0.1
v 0.7 -0.2 -0.1
v 0.7 0.3 -0.1
v 0.7 0.4 -0.1
v 0.5 -0.5 -0.3
v 0.5 -0.3 -0.3
v 0.5 0.6 -0.3
v 0.5 0.7 -0.3
v 0.6 -0.5 -0.3
v 0.6 -0.3 -0.3
v 0.6 0.6 -0.3
v 0.6 0.7 -0.3
v -0.6 -5.96046e-08 -0.4
v -0.6 0.2 -0.4
v -0.5 -5.96046e-08 -0.4
v -0.5 0.1 -0.4
v -0.5 0.2 -0.4
v 0.4 -5.96046e-08 -0.4
v 0.4 0.2 -0.4
v 0.5 -0.3 -0.4
v 0.5 -5.96046e-08 -0.4
v 0.5 0.2 -0.4
v 0.5 0.6 -0.4
v 0.6 -0.3 -0.4
v 0.6 0.6 -0.4
v -0.5 -5.96046e-08 -0.5
v -0.5 0.1 -0.5
v -0.5 0.2 -0.5
v -0.4 -5.96046e-08 -0.5
v -0.4 0.1 -0.5
v -5.96046e-08 -5.96046e-08 -0.5
v -5.96046e-08 0.1 -0.5
v 0.1 -5.96046e-08 -0.5
v 0.1 0.1 -0.5
v 0.1 0.2 -0.5
v 0.3 0.1 -0.5
v 0.3 0.2 -0.5
v 0.4 -5.96046e-08 -0.5
v 0.4 0.2 -0.5
v 0.5 -0.6 0.1
v 0.6 -0.6 0.1
v 0.5 -0.6 -0.1
v 0.6 -0.6 -0.1
v 0.5 -0.5 0.3
v 0.6 -0.5 0.3
v 0.5 -0.5 0.1
v 0.6 -0.5 0.1
v 0.5 -0.5 -0.1
v 0.6 -0.5 -0.1
v 0.5 -0.5 -0.3
v 0.6 -0.5 -0.3
v 0.5 -0.3 -0.3
v 0.6 -0.3 -0.3
v 0.5 -0.3 -0.4
v 0.6 -0.3 -0.4
v 0.5 -0.2 0.4
v 0.6 -0.2 0.4
v 0.5 -0.2 0.3
v 0.6 -0.2 0.3
v 0.6 -0.2 0.1
v 0.7 -0.2 0.1
v 0.6 -0.2 -0.1
v 0.7 -0.2 -0.1
v -0.5 -5.96046e-08 0.5
v -0.4 -5.96046e-08 0.5
v -0.3 -5.96046e-08 0.5
v -0.2 -5.96046e-08 0.5
v 0.2 -5.96046e-08 0.5
v 0.4 -5.96046e-08 0.5
v -0.6 -5.96046e-08 0.4
v -0.5 -5.96046e-08 0.4
v -0.4 -5.96046e-08 0.4
v -0.3 -5.96046e-08 0.4
v -0.2 -5.96046e-08 0.4
v 0.2 -5.96046e-08 0.4
v 0.4 -5.96046e-08 0.4
v 0.5 -5.96046e-08 0.4
v 0.4 -5.96046e-08 0.3
v 0.5 -5.96046e-08 0.3
v -0.6 -5.96046e-08 -0.3
v -0.5 -5.96046e-08 -0.3
v 0.4 -5.96046e-08 -0.3
v 0.5 -5.96046e-08 -0.3
v -0.6 -5.96046e-08 -0.4
v -0.5 -5.96046e-08 -0.4
v -0.4 -5.96046e-08 -0.4
v -5.96046e-08 -5.96046e-08 -0.4
v 0.1 -5.96046e-08 -0.4
v 0.4 -5.96046e-08 -0.4
v 0.5 -5.96046e-08 -0.4
v -0.5 -5.96046e-08 -0.5
v -0.4 -5.96046e-08 -0.5
v -5.96046e-08 -5.96046e-08 -0.5
v 0.1 -5.96046e-08 -0.5
v 0.4 -5.96046e-08 -0.5
v -0.5 0.2 0.5
v -0.4 0.2 0.5
v 0.4 0.2 0.5
v -0.6 0.2 0.4
v -0.5 0.2 0.4
v -0.4 0.2 0.4
v 0.4 0.2 0.4
v 0.5 0.2 0.4
v -0.6 0.2 0.3
v -0.5 0.2 0.3
v 0.4 0.2 0.3
v 0.5 0.2 0.3
v -0.6 0.2 0
v -0.5 0.2 0
v -0.6 0.2 -0.1
v -0.5 0.2 -0.1
v -0.6 0.2 -0.3
v -0.5 0.2 -0.3
v 0.4 0.2 -0.3
v 0.5 0.2 -0.3
v -0.6 0.2 -0.4
v -0.5 0.2 -0.4
v 0.1 0.2 -0.4
v 0.3 0.2 -0.4
v 0.4 0.2 -0.4
v 0.5 0.2 -0.4
v -0.5 0.2 -0.5
v 0.1 0.2 -0.5
v 0.3 0.2 -0.5
v 0.4 0.2 -0.5
v 0.6 0.4 0.1
v 0.7 0.4 0.1
v 0.6 0.4 -0.1
v 0.7 0.4 -0.1
v 0.5 0.6 0.4
v 0.6 0.6 0.4
v 0.5 0.6 0.3
v 0.6 0.6 0.3
v 0.5 0.6 -0.3
v 0.6 0.6 -0.3
v 0.5 0.6 -0.4
v 0.6 0.6 -0.4
v 0.5 0.7 0.3
v 0.6 0.7 0.3
v 0.5 0.7 0.1
v 0.6 0.7 0.1
v 0.5 0.7 -0.3
v 0.6 0.7 -0.3

# faces
f 4/7/1 2/7/1 1/7/1
f 5/7/1 2/7/1 4/7/1
f 6/7/1 2/7/1 5/7/1
f 7/7/1 2/7/1 6/7/1
f 8/4/1 5/4/1 4/4/1
f 9/7/1 6/7/1 5/7/1
f 9/4/1 5/4/1 8/4/1
f 10/4/1 7/4/1 6/4/1
f 10/7/1 6/7/1 9/7/1
f 11/7/1 2/7/1 7/7/1
f 11/4/1 7/4/1 10/4/1
f 12/4/1 3/4/1 2/4/1
f 12/7/1 2/7/1 11/7/1
f 13/4/1 3/4/1 12/4/1
f 18/4/1 15/4/1 14/4/1
f 19/4/1 17/4/1 16/4/1
f 20/4/1 17/4/1 19/4/1
f 21/4/1 18/4/1 14/4/1
f 22/4/1 18/4/1 21/4/1
f 23/7/1 20/7/1 19/7/1
f 24/7/1 20/7/1 23/7/1
f 29/7/1 26/7/1 25/7/1
f 30/7/1 26/7/1 29/7/1
f 31/7/1 26/7/1 30/7/1
f 32/7/1 28/7/1 27/7/1
f 33/7/1 28/7/1 32/7/1
f 37/5/1 35/5/1 34/5/1
f 38/5/1 35/5/1 37/5/1
f 40/5/1 37/5/1 36/5/1
f 40/5/1 39/5/1 38/5/1
f 40/5/1 38/5/1 37/5/1
f 41/5/1 39/5/1 40/5/1
f 42/5/1 39/5/1 41/5/1
f 45/5/1 40/5/1 36/5/1
f 46/5/1 40/5/1 45/5/1
f 47/3/1 41/3/1 40/3/1
f 47/5/1 40/5/1 46/5/1
f 48/5/1 43/5/1 42/5/1
f 48/3/1 41/3/1 47/3/1
f 48/5/1 42/5/1 41/5/1
f 49/5/1 43/5/1 48/5/1
f 50/5/1 46/5/1 45/5/1
f 50/5/1 45/5/1 44/5/1
f 51/5/1 46/5/1 50/5/1
f 52/3/1 47/3/1 46/3/1
f 52/5/1 46/5/1 51/5/1
f 53/5/1 48/5/1 47/5/1
f 53/3/1 47/3/1 52/3/1
f 54/3/1 49/3/1 48/3/1
f 54/5/1 48/5/1 53/5/1
f 55/5/1 43/5/1 49/5/1
f 55/3/1 49/3/1 54/3/1
f 56/5/1 43/5/1 55/5/1
f 57/5/1 43/5/1 56/5/1
f 59/5/1 54/5/1 53/5/1
f 59/5/1 56/5/1 55/5/1
f 59/5/1 55/5/1 54/5/1
f 59/5/1 53/5/1 52/5/1
f 59/5/1 52/5/1 51/5/1
f 60/5/1 56/5/1 59/5/1
f 62/6/1 59/6/1 58/6/1
f 62/5/1 61/5/1 60/5/1
f 62/5/1 60/5/1 59/5/1
f 63/5/1 61/5/1 62/5/1
f 64/6/1 62/6/1 58/6/1
f 64/6/1 63/6/1 62/6/1
f 65/6/1 63/6/1 64/6/1
f 66/5/1 61/5/1 63/5/1
f 66/6/1 63/6/1 65/6/1
f 67/5/1 61/5/1 66/5/1
f 68/5/1 61/5/1 67/5/1
f 69/5/1 61/5/1 68/5/1
f 70/6/1 66/6/1 65/6/1
f 70/6/1 67/6/1 66/6/1
f 71/5/1 68/5/1 67/5/1
f 71/6/1 67/6/1 70/6/1
f 72/5/1 68/5/1 71/5/1
f 73/7/2 74/7/2 76/7/2
f 76/7/2 74/7/2 77/7/2
f 77/7/2 74/7/2 78/7/2
f 78/7/2 74/7/2 79/7/2
f 74/4/2 75/4/2 80/4/2
f 76/4/2 77/4/2 81/4/2
f 77/7/2 78/7/2 82/7/2
f 81/4/2 77/4/2 82/4/2
f 78/4/2 79/4/2 83/4/2
f 82/7/2 78/7/2 83/7/2
f 79/7/2 74/7/2 84/7/2
f 83/4/2 79/4/2 84/4/2
f 74/4/2 80/4/2 85/4/2
f 84/7/2 74/7/2 85/7/2
f 85/4/2 80/4/2 86/4/2
f 87/4/2 88/4/2 91/4/2
f 91/4/2 88/4/2 92/4/2
f 91/7/2 92/7/2 93/7/2
f 93/7/2 92/7/2 94/7/2
f 89/7/2 90/7/2 95/7/2
f 95/7/2 90/7/2 96/7/2
f 97/5/2 98/5/2 100/5/2
f 100/5/2 98/5/2 101/5/2
f 99/5/2 100/5/2 103/5/2
f 101/5/2 102/5/2 103/5/2
f 100/5/2 101/5/2 103/5/2
f 103/5/2 102/5/2 104/5/2
f 104/5/2 102/5/2 105/5/2
f 99/5/2 103/5/2 108/5/2
f 108/5/2 103/5/2 109/5/2
f 103/3/2 104/3/2 110/3/2
f 109/5/2 103/5/2 110/5/2
f 105/5/2 106/5/2 111/5/2
f 110/3/2 104/3/2 111/3/2
f 104/5/2 105/5/2 111/5/2
f 111/5/2 106/5/2 112/5/2
f 109/3/2 110/3/2 113/3/2
f 108/5/2 109/5/2 113/5/2
f 107/5/2 108/5/2 113/5/2
f 113/3/2 110/3/2 114/3/2
f 111/3/2 112/3/2 115/3/2
f 112/5/2 106/5/2 116/5/2
f 115/3/2 112/3/2 116/3/2
f 113/5/2 114/5/2 117/5/2
f 107/5/2 113/5/2 117/5/2
f 117/5/2 114/5/2 118/5/2
f 118/5/2 114/5/2 119/5/2
f 115/5/2 116/5/2 120/5/2
f 118/5/2 119/5/2 121/5/2
f 120/5/2 116/5/2 122/5/2
f 118/5/2 121/5/2 123/5/2
f 121/5/2 122/5/2 123/5/2
f 117/6/2 118/6/2 123/6/2
f 123/5/2 122/5/2 124/5/2
f 117/6/2 123/6/2 125/6/2
f 123/6/2 124/6/2 125/6/2
f 125/6/2 124/6/2 126/6/2
f 124/5/2 122/5/2 127/5/2
f 126/6/2 124/6/2 127/6/2
f 127/5/2 122/5/2 128/5/2
f 116/5/2 106/5/2 129/5/2
f 128/5/2 122/5/2 129/5/2
f 122/5/2 116/5/2 129/5/2
f 129/5/2 106/5/2 130/5/2
f 127/6/2 128/6/2 131/6/2
f 126/6/2 127/6/2 131/6/2
f 128/5/2 129/5/2 132/5/2
f 131/6/2 128/6/2 132/6/2
f 132/5/2 129/5/2 133/5/2
f 134/1/2 135/1/2 136/1/2
f 136/1/2 135/1/2 137/1/2
f 136/2/2 137/2/2 138/2/2
f 137/1/2 135/1/2 138/1/2
f 138/1/2 135/1/2 139/1/2
f 136/2/2 138/2/2 140/2/2
f 138/2/2 139/2/2 140/2/2
f 140/2/2 139/2/2 141/2/2
f 144/4/3 143/4/3 142/4/3
f 145/4/3 143/4/3 144/4/3
f 146/7/3 145/7/3 144/7/3
f 147/7/3 145/7/3 146/7/3
f 148/4/3 147/4/3 146/4/3
f 149/7/3 145/7/3 147/7/3
f 149/4/3 147/4/3 148/4/3
f 150/7/3 149/7/3 148/7/3
f 151/7/3 145/7/3 149/7/3
f 151/7/3 149/7/3 150/7/3
f 152/4/3 151/4/3 150/4/3
f 153/7/3 145/7/3 151/7/3
f 153/4/3 151/4/3 152/4/3
f 154/7/3 145/7/3 153/7/3
f 158/7/3 156/7/3 155/7/3
f 159/4/3 157/4/3 156/4/3
f 159/7/3 156/7/3 158/7/3
f 160/4/3 157/4/3 159/4/3
f 165/7/3 162/7/3 161/7/3
f 165/7/3 163/7/3 162/7/3
f 166/7/3 163/7/3 165/7/3
f 168/5/3 166/5/3 165/5/3
f 168/5/3 165/5/3 164/5/3
f 169/6/3 167/6/3 166/6/3
f 169/5/3 166/5/3 168/5/3
f 170/6/3 167/6/3 169/6/3
f 175/5/3 172/5/3 171/5/3
f 176/5/3 172/5/3 175/5/3
f 177/6/3 174/6/3 173/6/3
f 178/6/3 174/6/3 177/6/3
f 181/5/3 180/5/3 179/5/3
f 182/5/3 180/5/3 181/5/3
f 187/1/3 184/1/3 183/1/3
f 187/1/3 185/1/3 184/1/3
f 188/2/3 186/2/3 185/2/3
f 188/1/3 185/1/3 187/1/3
f 189/2/3 186/2/3 188/2/3
f 192/7/3 191/7/3 190/7/3
f 193/7/3 191/7/3 192/7/3
f 197/4/3 195/4/3 194/4/3
f 198/7/3 196/7/3 195/7/3
f 198/4/3 195/4/3 197/4/3
f 199/7/3 198/7/3 197/7/3
f 200/7/3 196/7/3 198/7/3
f 200/7/3 198/7/3 199/7/3
f 201/4/3 200/4/3 199/4/3
f 202/7/3 196/7/3 200/7/3
f 202/4/3 200/4/3 201/4/3
f 203/7/3 196/7/3 202/7/3
f 204/7/3 202/7/3 201/7/3
f 204/4/3 203/4/3 202/4/3
f 205/4/3 203/4/3 204/4/3
f 206/7/3 204/7/3 201/7/3
f 206/7/3 205/7/3 204/7/3
f 207/7/3 205/7/3 206/7/3
f 208/4/4 209/4/4 211/4/4
f 209/4/4 210/4/4 211/4/4
f 211/4/4 210/4/4 212/4/4
f 211/7/4 212/7/4 213/7/4
f 213/7/4 212/7/4 214/7/4
f 213/4/4 214/4/4 215/4/4
f 214/7/4 212/7/4 216/7/4
f 215/4/4 214/4/4 216/4/4
f 215/7/4 216/7/4 217/7/4
f 216/7/4 212/7/4 218/7/4
f 217/7/4 216/7/4 218/7/4
f 217/4/4 218/4/4 219/4/4
f 218/7/4 212/7/4 220/7/4
f 219/4/4 218/4/4 220/4/4
f 220/7/4 212/7/4 221/7/4
f 222/7/4 223/7/4 224/7/4
f 224/7/4 223/7/4 225/7/4
f 226/5/4 227/5/4 228/5/4
f 228/5/4 227/5/4 229/5/4
f 230/1/4 231/1/4 234/1/4
f 231/1/4 232/1/4 234/1/4
f 232/2/4 233/2/4 235/2/4
f 234/1/4 232/1/4 235/1/4
f 235/2/4 233/2/4 236/2/4
f 237/5/4 238/5/4 241/5/4
f 241/5/4 238/5/4 242/5/4
f 239/5/4 240/5/4 243/5/4
f 243/5/4 240/5/4 244/5/4
f 245/4/4 246/4/4 247/4/4
f 247/4/4 246/4/4 248/4/4
f 248/4/4 246/4/4 249/4/4
f 250/7/4 251/7/4 253/7/4
f 253/7/4 251/7/4 254/7/4
f 253/5/4 254/5/4 256/5/4
f 254/5/4 255/5/4 256/5/4
f 252/5/4 253/5/4 256/5/4
f 256/5/4 255/5/4 257/5/4
f 258/4/4 259/4/4 261/4/4
f 259/7/4 260/7/4 262/7/4
f 261/4/4 259/4/4 262/4/4
f 261/7/4 262/7/4 263/7/4
f 262/7/4 260/7/4 264/7/4
f 263/7/4 262/7/4 264/7/4
f 263/4/4 264/4/4 265/4/4
f 264/7/4 260/7/4 266/7/4
f 265/4/4 264/4/4 266/4/4
f 266/7/4 260/7/4 267/7/4
f 265/7/4 266/7/4 268/7/4
f 266/4/4 267/4/4 268/4/4
f 268/4/4 267/4/4 269/4/4
f 265/7/4 268/7/4 270/7/4
f 268/7/4 269/7/4 270/7/4
f 270/7/4 269/7/4 271/7/4
f 274/5/5 273/5/5 272/5/5
f 275/5/5 273/5/5 274/5/5
f 278/5/5 277/5/5 276/5/5
f 279/5/5 277/5/5 278/5/5
f 282/5/5 281/5/5 280/5/5
f 283/5/5 281/5/5 282/5/5
f 286/5/5 285/5/5 284/5/5
f 287/5/5 285/5/5 286/5/5
f 290/5/5 289/5/5 288/5/5
f 291/5/5 289/5/5 290/5/5
f 294/1/5 293/1/5 292/1/5
f 295/1/5 293/1/5 294/1/5
f 303/4/5 297/4/5 296/4/5
f 304/7/5 298/7/5 297/7/5
f 304/4/5 297/4/5 303/4/5
f 305/4/5 299/4/5 298/4/5
f 305/7/5 298/7/5 304/7/5
f 306/7/5 300/7/5 299/7/5
f 306/4/5 299/4/5 305/4/5
f 307/4/5 301/4/5 300/4/5
f 307/7/5 300/7/5 306/7/5
f 308/4/5 301/4/5 307/4/5
f 310/7/5 309/7/5 308/7/5
f 311/7/5 309/7/5 310/7/5
f 312/7/5 303/7/5 302/7/5
f 313/7/5 303/7/5 312/7/5
f 316/4/5 313/4/5 312/4/5
f 317/4/5 313/4/5 316/4/5
f 321/7/5 315/7/5 314/7/5
f 322/7/5 315/7/5 321/7/5
f 323/4/5 318/4/5 317/4/5
f 324/7/5 319/7/5 318/7/5
f 324/4/5 318/4/5 323/4/5
f 325/4/5 320/4/5 319/4/5
f 325/7/5 319/7/5 324/7/5
f 326/7/5 321/7/5 320/7/5
f 326/4/5 320/4/5 325/4/5
f 327/7/5 321/7/5 326/7/5
f 328/4/6 329/4/6 332/4/6
f 329/7/6 330/7/6 333/7/6
f 332/4/6 329/4/6 333/4/6
f 333/7/6 330/7/6 334/7/6
f 331/4/6 332/4/6 336/4/6
f 336/4/6 332/4/6 337/4/6
f 334/7/6 335/7/6 338/7/6
f 338/7/6 335/7/6 339/7/6
f 336/7/6 337/7/6 340/7/6
f 340/7/6 337/7/6 341/7/6
f 340/4/6 341/4/6 342/4/6
f 342/4/6 341/4/6 343/4/6
f 342/7/6 343/7/6 344/7/6
f 344/7/6 343/7/6 345/7/6
f 344/4/6 345/4/6 348/4/6
f 348/4/6 345/4/6 349/4/6
f 346/7/6 347/7/6 352/7/6
f 352/7/6 347/7/6 353/7/6
f 349/7/6 350/7/6 354/7/6
f 350/4/6 351/4/6 355/4/6
f 354/7/6 350/7/6 355/7/6
f 351/7/6 352/7/6 356/7/6
f 355/4/6 351/4/6 356/4/6
f 356/7/6 352/7/6 357/7/6
f 358/2/6 359/2/6 360/2/6
f 360/2/6 359/2/6 361/2/6
f 362/6/6 363/6/6 364/6/6
f 364/6/6 363/6/6 365/6/6
f 366/5/6 367/5/6 368/5/6
f 368/5/6 367/5/6 369/5/6
f 370/6/6 371/6/6 372/6/6
f 372/6/6 371/6/6 373/6/6
f 372/5/6 373/5/6 374/5/6
f 374/5/6 373/5/6 375/5/6
