# MagicaVoxel @ Ephtracy

# group
o 

# material
mtllib maxim-2.mtl
usemtl palette

# normals
vn -1 0 0
vn 1 0 0
vn 0 0 1
vn 0 0 -1
vn 0 -1 0
vn 0 1 0

# texcoords
vt 0.306641 0.5
vt 0.939453 0.5
vt 0.943359 0.5
vt 0.947266 0.5
vt 0.970703 0.5

# verts
v -0.4 0.6 0.3
v -0.4 0.6 -0.2
v -0.4 0.7 0.3
v -0.4 0.7 -0.2
v -0.3 -1.2 0.2
v -0.3 -1.2 -0.1
v -0.3 -1.1 0.3
v -0.3 -1.1 0.2
v -0.3 -1.1 -0.1
v -0.3 -1.1 -0.2
v -0.3 -1 0.3
v -0.3 -1 0.2
v -0.3 -1 0.1
v -0.3 -0.8 0.3
v -0.3 -0.8 0.2
v -0.3 -0.8 0.1
v -0.3 0.6 0.3
v -0.3 0.6 -0.2
v -0.3 0.6 -0.3
v -0.3 0.7 0.3
v -0.3 0.7 -0.2
v -0.3 0.7 -0.3
v -0.3 1 -0.1
v -0.3 1 -0.2
v -0.3 1.1 0
v -0.3 1.1 -0.1
v -0.3 1.2 0.3
v -0.3 1.2 0
v -0.2 -1.2 0.3
v -0.2 -1.2 0.2
v -0.2 -1.2 -0.1
v -0.2 -1.2 -0.2
v -0.2 -1.1 0.3
v -0.2 -1.1 0.2
v -0.2 -1.1 -0.1
v -0.2 -1.1 -0.2
v -0.2 1 -0.1
v -0.2 1 -0.2
v -0.2 1.1 0
v -0.2 1.1 -0.1
v -0.2 1.1 -0.2
v -0.2 1.2 0
v -0.2 1.2 -0.1
v 0.3 -1 0.3
v 0.3 -1 0.2
v 0.3 -0.7 0.3
v 0.3 -0.7 0.2
v -0.1 -0.8 0.3
v -0.1 -0.8 0.2
v -0.1 -0.7 0.3
v -0.1 -0.7 0.2
v 0.3 -1.2 0.3
v 0.3 -1.2 0.2
v 0.3 -1.2 -0.1
v 0.3 -1.2 -0.2
v 0.3 -1.1 0.3
v 0.3 -1.1 0.2
v 0.3 -1.1 -0.1
v 0.3 -1.1 -0.2
v 0.3 1 -0.1
v 0.3 1 -0.2
v 0.3 1.1 0
v 0.3 1.1 -0.1
v 0.3 1.1 -0.2
v 0.3 1.2 0
v 0.3 1.2 -0.1
v 0.4 -1.2 0.2
v 0.4 -1.2 -0.1
v 0.4 -1.1 0.2
v 0.4 -1.1 -0.1
v 0.4 -1.1 -0.2
v 0.4 -0.9 0.2
v 0.4 -0.9 0.1
v 0.4 -0.8 0.3
v 0.4 -0.8 0.1
v 0.4 0.6 0.3
v 0.4 0.6 -0.2
v 0.4 0.6 -0.3
v 0.4 0.7 0.3
v 0.4 0.7 -0.2
v 0.4 0.7 -0.3
v 0.4 1 -0.1
v 0.4 1 -0.2
v 0.4 1.1 0
v 0.4 1.1 -0.1
v 0.4 1.2 0.3
v 0.4 1.2 0
v 0.5 -1.1 0.3
v 0.5 -1.1 0.2
v 0.5 -0.9 0.2
v 0.5 -0.9 0.1
v 0.5 -0.8 0.3
v 0.5 -0.8 0.1
v 0.5 0.6 0.3
v 0.5 0.6 -0.2
v 0.5 0.7 0.3
v 0.5 0.7 -0.2
v -0.4 0.6 0.3
v -0.4 0.7 0.3
v -0.3 -1.1 0.3
v -0.3 -1 0.3
v -0.3 -0.8 0.3
v -0.3 0.6 0.3
v -0.3 0.7 0.3
v -0.3 1.2 0.3
v -0.2 -1.2 0.3
v -0.2 -1.1 0.3
v -0.1 -0.8 0.3
v -0.1 -0.7 0.3
v 0.3 -1.2 0.3
v 0.3 -1.1 0.3
v 0.3 -1 0.3
v 0.3 -0.7 0.3
v 0.4 -0.8 0.3
v 0.4 0.6 0.3
v 0.4 0.7 0.3
v 0.4 1.2 0.3
v 0.5 -1.1 0.3
v 0.5 -0.8 0.3
v 0.5 0.6 0.3
v 0.5 0.7 0.3
v -0.3 -1.2 0.2
v -0.3 -1.1 0.2
v -0.3 -1 0.2
v -0.3 -0.8 0.2
v -0.2 -1.2 0.2
v -0.2 -1.1 0.2
v -0.1 -0.8 0.2
v -0.1 -0.7 0.2
v 0.3 -1.2 0.2
v 0.3 -1.1 0.2
v 0.3 -1 0.2
v 0.3 -0.7 0.2
v 0.4 -1.2 0.2
v 0.4 -1.1 0.2
v 0.4 -1.1 0.2
v 0.4 -0.9 0.2
v 0.5 -1.1 0.2
v 0.5 -0.9 0.2
v 0.4 -0.9 0.1
v 0.4 -0.8 0.1
v 0.5 -0.9 0.1
v 0.5 -0.8 0.1
v -0.3 1.1 0
v -0.3 1.2 0
v -0.2 1.1 0
v -0.2 1.2 0
v 0.3 1.1 0
v 0.3 1.2 0
v 0.4 1.1 0
v 0.4 1.2 0
v -0.3 -1.2 -0.1
v -0.3 -1.1 -0.1
v -0.3 1 -0.1
v -0.3 1.1 -0.1
v -0.2 -1.2 -0.1
v -0.2 -1.1 -0.1
v -0.2 1 -0.1
v -0.2 1.1 -0.1
v -0.2 1.2 -0.1
v 0.3 -1.2 -0.1
v 0.3 -1.1 -0.1
v 0.3 1 -0.1
v 0.3 1.1 -0.1
v 0.3 1.2 -0.1
v 0.4 -1.2 -0.1
v 0.4 -1.1 -0.1
v 0.4 1 -0.1
v 0.4 1.1 -0.1
v -0.4 0.6 -0.2
v -0.4 0.7 -0.2
v -0.3 -1.1 -0.2
v -0.3 0.6 -0.2
v -0.3 0.7 -0.2
v -0.3 1 -0.2
v -0.2 -1.2 -0.2
v -0.2 -1.1 -0.2
v -0.2 1 -0.2
v -0.2 1.1 -0.2
v -0.1 -0.2 -0.2
v -0.1 -0.1 -0.2
v 0 -0.3 -0.2
v 0 -0.2 -0.2
v 0 -0.1 -0.2
v 0.1 -0.3 -0.2
v 0.1 -0.2 -0.2
v 0.1 -0.1 -0.2
v 0.2 -0.2 -0.2
v 0.2 -0.1 -0.2
v 0.3 -1.2 -0.2
v 0.3 -1.1 -0.2
v 0.3 1 -0.2
v 0.3 1.1 -0.2
v 0.4 -1.1 -0.2
v 0.4 0.6 -0.2
v 0.4 0.7 -0.2
v 0.4 1 -0.2
v 0.5 0.6 -0.2
v 0.5 0.7 -0.2
v -0.3 0.6 -0.3
v -0.3 0.7 -0.3
v 0.4 0.6 -0.3
v 0.4 0.7 -0.3
v -0.2 -1.2 0.3
v 0.3 -1.2 0.3
v -0.3 -1.2 0.2
v -0.2 -1.2 0.2
v 0.3 -1.2 0.2
v 0.4 -1.2 0.2
v -0.3 -1.2 -0.1
v -0.2 -1.2 -0.1
v 0.3 -1.2 -0.1
v 0.4 -1.2 -0.1
v -0.2 -1.2 -0.2
v 0.3 -1.2 -0.2
v -0.3 -1.1 0.3
v -0.2 -1.1 0.3
v 0.3 -1.1 0.3
v 0.5 -1.1 0.3
v -0.3 -1.1 0.2
v -0.2 -1.1 0.2
v 0.3 -1.1 0.2
v 0.4 -1.1 0.2
v 0.5 -1.1 0.2
v -0.3 -1.1 -0.1
v -0.2 -1.1 -0.1
v 0.3 -1.1 -0.1
v 0.4 -1.1 -0.1
v -0.3 -1.1 -0.2
v -0.2 -1.1 -0.2
v 0.3 -1.1 -0.2
v 0.4 -1.1 -0.2
v 0.4 -0.9 0.2
v 0.5 -0.9 0.2
v 0.4 -0.9 0.1
v 0.5 -0.9 0.1
v -0.3 -0.8 0.3
v -0.1 -0.8 0.3
v -0.3 -0.8 0.2
v -0.1 -0.8 0.2
v -0.1 -0.7 0.3
v 0.3 -0.7 0.3
v -0.1 -0.7 0.2
v 0.3 -0.7 0.2
v -0.4 0.6 0.3
v -0.3 0.6 0.3
v 0.4 0.6 0.3
v 0.5 0.6 0.3
v -0.4 0.6 -0.2
v -0.3 0.6 -0.2
v 0.4 0.6 -0.2
v 0.5 0.6 -0.2
v -0.3 0.6 -0.3
v 0.4 0.6 -0.3
v -0.3 -1 0.3
v 0.3 -1 0.3
v -0.3 -1 0.2
v 0.3 -1 0.2
v 0.4 -0.8 0.3
v 0.5 -0.8 0.3
v 0.4 -0.8 0.1
v 0.5 -0.8 0.1
v -0.4 0.7 0.3
v -0.3 0.7 0.3
v 0.4 0.7 0.3
v 0.5 0.7 0.3
v -0.4 0.7 -0.2
v -0.3 0.7 -0.2
v 0.4 0.7 -0.2
v 0.5 0.7 -0.2
v -0.3 0.7 -0.3
v 0.4 0.7 -0.3
v -0.3 1 -0.1
v -0.2 1 -0.1
v 0.3 1 -0.1
v 0.4 1 -0.1
v -0.3 1 -0.2
v -0.2 1 -0.2
v 0.3 1 -0.2
v 0.4 1 -0.2
v -0.3 1.1 0
v -0.2 1.1 0
v 0.3 1.1 0
v 0.4 1.1 0
v -0.3 1.1 -0.1
v -0.2 1.1 -0.1
v 0.3 1.1 -0.1
v 0.4 1.1 -0.1
v -0.2 1.1 -0.2
v 0.3 1.1 -0.2
v -0.3 1.2 0.3
v 0.4 1.2 0.3
v -0.3 1.2 0
v -0.2 1.2 0
v 0.3 1.2 0
v 0.4 1.2 0
v -0.2 1.2 -0.1
v 0.3 1.2 -0.1

# faces
f 3/4/1 2/4/1 1/4/1
f 4/4/1 2/4/1 3/4/1
f 8/5/1 6/5/1 5/5/1
f 9/5/1 6/5/1 8/5/1
f 11/5/1 8/5/1 7/5/1
f 11/5/1 10/5/1 9/5/1
f 11/5/1 9/5/1 8/5/1
f 12/5/1 10/5/1 11/5/1
f 13/5/1 10/5/1 12/5/1
f 15/2/1 13/2/1 12/2/1
f 16/5/1 10/5/1 13/5/1
f 16/2/1 13/2/1 15/2/1
f 17/5/1 15/5/1 14/5/1
f 17/5/1 16/5/1 15/5/1
f 18/5/1 10/5/1 16/5/1
f 18/5/1 16/5/1 17/5/1
f 21/4/1 19/4/1 18/4/1
f 22/4/1 19/4/1 21/4/1
f 23/3/1 21/3/1 20/3/1
f 24/3/1 21/3/1 23/3/1
f 25/3/1 23/3/1 20/3/1
f 26/3/1 23/3/1 25/3/1
f 27/3/1 25/3/1 20/3/1
f 28/3/1 25/3/1 27/3/1
f 33/5/1 30/5/1 29/5/1
f 34/5/1 30/5/1 33/5/1
f 35/5/1 32/5/1 31/5/1
f 36/5/1 32/5/1 35/5/1
f 40/3/1 38/3/1 37/3/1
f 41/3/1 38/3/1 40/3/1
f 42/3/1 40/3/1 39/3/1
f 43/3/1 40/3/1 42/3/1
f 46/5/1 45/5/1 44/5/1
f 47/5/1 45/5/1 46/5/1
f 48/5/2 49/5/2 50/5/2
f 50/5/2 49/5/2 51/5/2
f 52/5/2 53/5/2 56/5/2
f 56/5/2 53/5/2 57/5/2
f 54/5/2 55/5/2 58/5/2
f 58/5/2 55/5/2 59/5/2
f 60/3/2 61/3/2 63/3/2
f 63/3/2 61/3/2 64/3/2
f 62/3/2 63/3/2 65/3/2
f 65/3/2 63/3/2 66/3/2
f 67/5/2 68/5/2 69/5/2
f 69/5/2 68/5/2 70/5/2
f 69/5/2 70/5/2 72/5/2
f 70/5/2 71/5/2 72/5/2
f 72/5/2 71/5/2 73/5/2
f 73/5/2 71/5/2 75/5/2
f 74/5/2 75/5/2 76/5/2
f 75/5/2 71/5/2 77/5/2
f 76/5/2 75/5/2 77/5/2
f 77/4/2 78/4/2 80/4/2
f 80/4/2 78/4/2 81/4/2
f 79/3/2 80/3/2 82/3/2
f 82/3/2 80/3/2 83/3/2
f 79/3/2 82/3/2 84/3/2
f 84/3/2 82/3/2 85/3/2
f 79/3/2 84/3/2 86/3/2
f 86/3/2 84/3/2 87/3/2
f 88/5/2 89/5/2 90/5/2
f 88/5/2 90/5/2 92/5/2
f 90/5/2 91/5/2 92/5/2
f 92/5/2 91/5/2 93/5/2
f 94/4/2 95/4/2 96/4/2
f 96/4/2 95/4/2 97/4/2
f 103/4/3 99/4/3 98/4/3
f 104/4/3 99/4/3 103/4/3
f 107/5/3 101/5/3 100/5/3
f 108/5/3 103/5/3 102/5/3
f 109/5/3 103/5/3 108/5/3
f 110/5/3 107/5/3 106/5/3
f 111/5/3 101/5/3 107/5/3
f 111/5/3 107/5/3 110/5/3
f 112/5/3 101/5/3 111/5/3
f 113/5/3 103/5/3 109/5/3
f 114/5/3 112/5/3 111/5/3
f 114/5/3 113/5/3 112/5/3
f 115/5/3 103/5/3 113/5/3
f 115/5/3 113/5/3 114/5/3
f 115/4/3 104/4/3 103/4/3
f 116/3/3 105/3/3 104/3/3
f 116/4/3 104/4/3 115/4/3
f 117/3/3 105/3/3 116/3/3
f 118/5/3 114/5/3 111/5/3
f 119/5/3 114/5/3 118/5/3
f 120/4/3 116/4/3 115/4/3
f 121/4/3 116/4/3 120/4/3
f 126/5/3 123/5/3 122/5/3
f 127/5/3 123/5/3 126/5/3
f 128/2/3 125/2/3 124/2/3
f 132/2/3 128/2/3 124/2/3
f 132/2/3 129/2/3 128/2/3
f 133/2/3 129/2/3 132/2/3
f 134/5/3 131/5/3 130/5/3
f 135/5/3 131/5/3 134/5/3
f 136/5/4 137/5/4 138/5/4
f 138/5/4 137/5/4 139/5/4
f 140/5/4 141/5/4 142/5/4
f 142/5/4 141/5/4 143/5/4
f 144/3/4 145/3/4 146/3/4
f 146/3/4 145/3/4 147/3/4
f 148/3/4 149/3/4 150/3/4
f 150/3/4 149/3/4 151/3/4
f 152/5/4 153/5/4 156/5/4
f 156/5/4 153/5/4 157/5/4
f 154/3/4 155/3/4 158/3/4
f 158/3/4 155/3/4 159/3/4
f 159/3/4 160/3/4 164/3/4
f 164/3/4 160/3/4 165/3/4
f 161/5/4 162/5/4 166/5/4
f 166/5/4 162/5/4 167/5/4
f 163/3/4 164/3/4 168/3/4
f 168/3/4 164/3/4 169/3/4
f 170/4/4 171/4/4 173/4/4
f 173/4/4 171/4/4 174/4/4
f 172/5/4 173/5/4 177/5/4
f 174/3/4 175/3/4 178/3/4
f 176/5/4 177/5/4 180/5/4
f 177/5/4 173/5/4 180/5/4
f 180/5/4 173/5/4 181/5/4
f 176/5/4 180/5/4 182/5/4
f 180/2/4 181/2/4 183/2/4
f 182/5/4 180/5/4 183/5/4
f 181/5/4 173/5/4 184/5/4
f 183/2/4 181/2/4 184/2/4
f 182/2/4 183/2/4 185/2/4
f 176/5/4 182/5/4 185/5/4
f 183/5/4 184/5/4 186/5/4
f 185/2/4 183/2/4 186/2/4
f 184/5/4 173/5/4 187/5/4
f 186/5/4 184/5/4 187/5/4
f 185/5/4 186/5/4 188/5/4
f 186/2/4 187/2/4 188/2/4
f 187/5/4 173/5/4 189/5/4
f 188/2/4 187/2/4 189/2/4
f 185/5/4 188/5/4 190/5/4
f 176/5/4 185/5/4 190/5/4
f 188/5/4 189/5/4 190/5/4
f 190/5/4 189/5/4 191/5/4
f 178/3/4 179/3/4 192/3/4
f 174/3/4 178/3/4 192/3/4
f 192/3/4 179/3/4 193/3/4
f 191/5/4 189/5/4 194/5/4
f 189/5/4 173/5/4 195/5/4
f 194/5/4 189/5/4 195/5/4
f 174/3/4 192/3/4 196/3/4
f 196/3/4 192/3/4 197/3/4
f 195/4/4 196/4/4 198/4/4
f 198/4/4 196/4/4 199/4/4
f 200/4/4 201/4/4 202/4/4
f 202/4/4 201/4/4 203/4/4
f 207/5/5 205/5/5 204/5/5
f 208/5/5 205/5/5 207/5/5
f 210/5/5 207/5/5 206/5/5
f 210/5/5 209/5/5 208/5/5
f 210/5/5 208/5/5 207/5/5
f 211/5/5 209/5/5 210/5/5
f 212/5/5 209/5/5 211/5/5
f 213/5/5 209/5/5 212/5/5
f 214/5/5 212/5/5 211/5/5
f 215/5/5 212/5/5 214/5/5
f 220/5/5 217/5/5 216/5/5
f 221/5/5 217/5/5 220/5/5
f 222/5/5 219/5/5 218/5/5
f 223/5/5 219/5/5 222/5/5
f 224/5/5 219/5/5 223/5/5
f 229/5/5 226/5/5 225/5/5
f 230/5/5 226/5/5 229/5/5
f 231/5/5 228/5/5 227/5/5
f 232/5/5 228/5/5 231/5/5
f 235/5/5 234/5/5 233/5/5
f 236/5/5 234/5/5 235/5/5
f 239/5/5 238/5/5 237/5/5
f 240/5/5 238/5/5 239/5/5
f 243/5/5 242/5/5 241/5/5
f 244/5/5 242/5/5 243/5/5
f 249/4/5 246/4/5 245/4/5
f 250/4/5 246/4/5 249/4/5
f 251/4/5 248/4/5 247/4/5
f 252/4/5 248/4/5 251/4/5
f 253/4/5 251/4/5 250/4/5
f 254/4/5 251/4/5 253/4/5
f 255/5/6 256/5/6 257/5/6
f 257/5/6 256/5/6 258/5/6
f 259/5/6 260/5/6 261/5/6
f 261/5/6 260/5/6 262/5/6
f 263/4/6 264/4/6 267/4/6
f 267/4/6 264/4/6 268/4/6
f 265/4/6 266/4/6 269/4/6
f 269/4/6 266/4/6 270/4/6
f 268/4/6 269/4/6 271/4/6
f 271/4/6 269/4/6 272/4/6
f 273/3/6 274/3/6 277/3/6
f 277/3/6 274/3/6 278/3/6
f 275/3/6 276/3/6 279/3/6
f 279/3/6 276/3/6 280/3/6
f 281/3/6 282/3/6 285/3/6
f 285/3/6 282/3/6 286/3/6
f 283/3/6 284/3/6 287/3/6
f 287/3/6 284/3/6 288/3/6
f 286/3/6 287/3/6 289/3/6
f 289/3/6 287/3/6 290/3/6
f 291/3/6 292/3/6 293/3/6
f 293/3/6 292/3/6 294/3/6
f 294/3/6 292/3/6 295/3/6
f 295/3/6 292/3/6 296/3/6
f 294/3/6 295/3/6 297/3/6
f 297/3/6 295/3/6 298/3/6
