# MagicaVoxel @ Ephtracy

# group
o 

# material
mtllib bear_tank-0.mtl
usemtl palette

# normals
vn -1 0 0
vn 1 0 0
vn 0 0 1
vn 0 0 -1
vn 0 -1 0
vn 0 1 0

# texcoords
vt 0.876953 0.5
vt 0.884766 0.5
vt 0.888672 0.5
vt 0.966797 0.5
vt 0.974609 0.5
vt 0.990234 0.5

# verts
v -0.6 -0.9 0.4
v -0.6 -0.9 -0.4
v -0.6 0.1 0.4
v -0.6 0.1 -0.4
v -0.6 0.4 0.2
v -0.6 0.4 -0.2
v -0.6 0.5 0.2
v -0.6 0.5 -0.2
v -0.6 0.8 0.4
v -0.6 0.8 -0.4
v -0.6 0.9 0.4
v -0.6 0.9 -0.4
v 0.3 -0.6 0.4
v 0.3 -0.6 -0.4
v 0.3 0 0.2
v 0.3 0 0.1
v 0.3 0 -0.1
v 0.3 0 -0.2
v 0.3 0.1 0.4
v 0.3 0.1 0.2
v 0.3 0.1 0.1
v 0.3 0.1 -0.1
v 0.3 0.1 -0.2
v 0.3 0.1 -0.4
v 0.3 0.4 0.2
v 0.3 0.4 0.1
v 0.3 0.4 -0.1
v 0.3 0.4 -0.2
v 0.3 0.5 0.2
v 0.3 0.5 0.1
v 0.3 0.5 -0.1
v 0.3 0.5 -0.2
v 0.3 0.8 0.4
v 0.3 0.8 -0.4
v 0.3 0.9 0.4
v 0.3 0.9 -0.4
v 0.4 0 0.1
v 0.4 0 -0.1
v 0.4 0.1 0.2
v 0.4 0.1 0.1
v 0.4 0.1 -0.1
v 0.4 0.1 -0.2
v 0.4 0.4 0.2
v 0.4 0.4 0.1
v 0.4 0.4 -0.1
v 0.4 0.4 -0.2
v 0.4 0.5 0.1
v 0.4 0.5 -0.1
v 0.5 -0.7 0.4
v 0.5 -0.7 0.2
v 0.5 -0.7 0.1
v 0.5 -0.7 -0.1
v 0.5 -0.7 -0.2
v 0.5 -0.7 -0.4
v 0.5 -0.6 0.4
v 0.5 -0.6 -0.4
v 0.6 -0.9 0.4
v 0.6 -0.9 -0.4
v 0.6 -0.8 0.2
v 0.6 -0.8 0.1
v 0.6 -0.8 -0.1
v 0.6 -0.8 -0.2
v 0.6 -0.7 0.4
v 0.6 -0.7 0.2
v 0.6 -0.7 0.1
v 0.6 -0.7 -0.1
v 0.6 -0.7 -0.2
v 0.6 -0.7 -0.4
v -0.6 -0.9 0.4
v -0.6 0.1 0.4
v -0.6 0.8 0.4
v -0.6 0.9 0.4
v 0.3 -0.6 0.4
v 0.3 0.1 0.4
v 0.3 0.8 0.4
v 0.3 0.9 0.4
v 0.5 -0.7 0.4
v 0.5 -0.6 0.4
v 0.6 -0.9 0.4
v 0.6 -0.7 0.4
v 0.3 0.1 0.2
v 0.3 0.4 0.2
v 0.4 0.1 0.2
v 0.4 0.4 0.2
v 0.3 0 0.1
v 0.3 0.1 0.1
v 0.3 0.4 0.1
v 0.3 0.5 0.1
v 0.4 0 0.1
v 0.4 0.1 0.1
v 0.4 0.4 0.1
v 0.4 0.5 0.1
v 0.3 0 -0.1
v 0.3 0.1 -0.1
v 0.3 0.4 -0.1
v 0.3 0.5 -0.1
v 0.4 0 -0.1
v 0.4 0.1 -0.1
v 0.4 0.4 -0.1
v 0.4 0.5 -0.1
v 0.3 0.1 -0.2
v 0.3 0.4 -0.2
v 0.4 0.1 -0.2
v 0.4 0.4 -0.2
v -0.6 -0.9 -0.4
v -0.6 0.1 -0.4
v -0.6 0.8 -0.4
v -0.6 0.9 -0.4
v 0.3 -0.6 -0.4
v 0.3 0.1 -0.4
v 0.3 0.8 -0.4
v 0.3 0.9 -0.4
v 0.5 -0.7 -0.4
v 0.5 -0.6 -0.4
v 0.6 -0.9 -0.4
v 0.6 -0.7 -0.4
v -0.6 -0.9 0.4
v 0.6 -0.9 0.4
v -0.6 -0.9 -0.4
v 0.6 -0.9 -0.4
v 0.3 0 0.1
v 0.4 0 0.1
v 0.3 0 -0.1
v 0.4 0 -0.1
v 0.3 0.1 0.2
v 0.4 0.1 0.2
v 0.3 0.1 0.1
v 0.4 0.1 0.1
v 0.3 0.1 -0.1
v 0.4 0.1 -0.1
v 0.3 0.1 -0.2
v 0.4 0.1 -0.2
v 0.5 -0.7 0.4
v 0.6 -0.7 0.4
v 0.5 -0.7 0.2
v 0.6 -0.7 0.2
v 0.5 -0.7 0.1
v 0.6 -0.7 0.1
v 0.5 -0.7 -0.1
v 0.6 -0.7 -0.1
v 0.5 -0.7 -0.2
v 0.6 -0.7 -0.2
v 0.5 -0.7 -0.4
v 0.6 -0.7 -0.4
v 0.3 -0.6 0.4
v 0.5 -0.6 0.4
v 0.3 -0.6 -0.4
v 0.5 -0.6 -0.4
v 0.3 0.4 0.2
v 0.4 0.4 0.2
v 0.3 0.4 0.1
v 0.4 0.4 0.1
v 0.3 0.4 -0.1
v 0.4 0.4 -0.1
v 0.3 0.4 -0.2
v 0.4 0.4 -0.2
v 0.3 0.5 0.1
v 0.4 0.5 0.1
v 0.3 0.5 -0.1
v 0.4 0.5 -0.1
v -0.6 0.9 0.4
v 0.3 0.9 0.4
v -0.3 0.9 0.3
v 0.2 0.9 0.3
v -0.3 0.9 -0.3
v 0.2 0.9 -0.3
v -0.6 0.9 -0.4
v 0.3 0.9 -0.4

# faces
f 3/1/1 2/1/1 1/1/1
f 4/1/1 2/1/1 3/1/1
f 5/2/1 4/2/1 3/2/1
f 6/2/1 4/2/1 5/2/1
f 7/2/1 5/2/1 3/2/1
f 7/3/1 6/3/1 5/3/1
f 8/2/1 4/2/1 6/2/1
f 8/3/1 6/3/1 7/3/1
f 9/2/1 7/2/1 3/2/1
f 9/2/1 8/2/1 7/2/1
f 10/2/1 4/2/1 8/2/1
f 10/2/1 8/2/1 9/2/1
f 11/4/1 10/4/1 9/4/1
f 12/4/1 10/4/1 11/4/1
f 13/1/2 14/1/2 15/1/2
f 15/1/2 14/1/2 16/1/2
f 16/1/2 14/1/2 17/1/2
f 17/1/2 14/1/2 18/1/2
f 13/1/2 15/1/2 19/1/2
f 15/6/2 16/6/2 20/6/2
f 19/1/2 15/1/2 20/1/2
f 20/6/2 16/6/2 21/6/2
f 17/6/2 18/6/2 22/6/2
f 18/1/2 14/1/2 23/1/2
f 22/6/2 18/6/2 23/6/2
f 23/1/2 14/1/2 24/1/2
f 19/2/2 20/2/2 25/2/2
f 23/2/2 24/2/2 28/2/2
f 25/3/2 26/3/2 29/3/2
f 19/2/2 25/2/2 29/2/2
f 29/3/2 26/3/2 30/3/2
f 27/3/2 28/3/2 31/3/2
f 28/2/2 24/2/2 32/2/2
f 31/3/2 28/3/2 32/3/2
f 29/2/2 30/2/2 33/2/2
f 30/2/2 31/2/2 33/2/2
f 31/2/2 32/2/2 33/2/2
f 19/2/2 29/2/2 33/2/2
f 32/2/2 24/2/2 34/2/2
f 33/2/2 32/2/2 34/2/2
f 33/4/2 34/4/2 35/4/2
f 35/4/2 34/4/2 36/4/2
f 37/1/2 38/1/2 40/1/2
f 40/1/2 38/1/2 41/1/2
f 39/2/2 40/2/2 43/2/2
f 41/2/2 42/2/2 43/2/2
f 40/2/2 41/2/2 43/2/2
f 43/2/2 42/2/2 44/2/2
f 44/2/2 42/2/2 45/2/2
f 45/2/2 42/2/2 46/2/2
f 44/2/2 45/2/2 47/2/2
f 47/2/2 45/2/2 48/2/2
f 49/1/2 50/1/2 55/1/2
f 53/1/2 54/1/2 55/1/2
f 52/1/2 53/1/2 55/1/2
f 51/1/2 52/1/2 55/1/2
f 50/1/2 51/1/2 55/1/2
f 55/1/2 54/1/2 56/1/2
f 57/1/2 58/1/2 59/1/2
f 59/1/2 58/1/2 60/1/2
f 60/1/2 58/1/2 61/1/2
f 61/1/2 58/1/2 62/1/2
f 57/1/2 59/1/2 63/1/2
f 59/5/2 60/5/2 64/5/2
f 63/1/2 59/1/2 64/1/2
f 60/1/2 61/1/2 65/1/2
f 64/5/2 60/5/2 65/5/2
f 61/5/2 62/5/2 66/5/2
f 65/1/2 61/1/2 66/1/2
f 62/1/2 58/1/2 67/1/2
f 66/5/2 62/5/2 67/5/2
f 67/1/2 58/1/2 68/1/2
f 73/1/3 70/1/3 69/1/3
f 74/2/3 71/2/3 70/2/3
f 74/1/3 70/1/3 73/1/3
f 75/4/3 72/4/3 71/4/3
f 75/2/3 71/2/3 74/2/3
f 76/4/3 72/4/3 75/4/3
f 77/1/3 73/1/3 69/1/3
f 78/1/3 73/1/3 77/1/3
f 79/1/3 77/1/3 69/1/3
f 80/1/3 77/1/3 79/1/3
f 83/2/3 82/2/3 81/2/3
f 84/2/3 82/2/3 83/2/3
f 89/1/3 86/1/3 85/1/3
f 90/1/3 86/1/3 89/1/3
f 91/2/3 88/2/3 87/2/3
f 92/2/3 88/2/3 91/2/3
f 93/1/4 94/1/4 97/1/4
f 97/1/4 94/1/4 98/1/4
f 95/2/4 96/2/4 99/2/4
f 99/2/4 96/2/4 100/2/4
f 101/2/4 102/2/4 103/2/4
f 103/2/4 102/2/4 104/2/4
f 105/1/4 106/1/4 109/1/4
f 106/2/4 107/2/4 110/2/4
f 109/1/4 106/1/4 110/1/4
f 107/4/4 108/4/4 111/4/4
f 110/2/4 107/2/4 111/2/4
f 111/4/4 108/4/4 112/4/4
f 105/1/4 109/1/4 113/1/4
f 113/1/4 109/1/4 114/1/4
f 105/1/4 113/1/4 115/1/4
f 115/1/4 113/1/4 116/1/4
f 119/1/5 118/1/5 117/1/5
f 120/1/5 118/1/5 119/1/5
f 123/1/5 122/1/5 121/1/5
f 124/1/5 122/1/5 123/1/5
f 127/2/5 126/2/5 125/2/5
f 128/2/5 126/2/5 127/2/5
f 131/2/5 130/2/5 129/2/5
f 132/2/5 130/2/5 131/2/5
f 133/1/6 134/1/6 135/1/6
f 135/1/6 134/1/6 136/1/6
f 135/5/6 136/5/6 137/5/6
f 137/5/6 136/5/6 138/5/6
f 137/1/6 138/1/6 139/1/6
f 139/1/6 138/1/6 140/1/6
f 139/5/6 140/5/6 141/5/6
f 141/5/6 140/5/6 142/5/6
f 141/1/6 142/1/6 143/1/6
f 143/1/6 142/1/6 144/1/6
f 145/1/6 146/1/6 147/1/6
f 147/1/6 146/1/6 148/1/6
f 149/2/6 150/2/6 151/2/6
f 151/2/6 150/2/6 152/2/6
f 153/2/6 154/2/6 155/2/6
f 155/2/6 154/2/6 156/2/6
f 157/2/6 158/2/6 159/2/6
f 159/2/6 158/2/6 160/2/6
f 161/4/6 162/4/6 163/4/6
f 163/4/6 162/4/6 164/4/6
f 161/4/6 163/4/6 165/4/6
f 163/2/6 164/2/6 165/2/6
f 164/4/6 162/4/6 166/4/6
f 165/2/6 164/2/6 166/2/6
f 161/4/6 165/4/6 167/4/6
f 165/4/6 166/4/6 167/4/6
f 166/4/6 162/4/6 168/4/6
f 167/4/6 166/4/6 168/4/6
