# MagicaVoxel @ Ephtracy

# group
o 

# material
mtllib merchant-2.mtl
usemtl palette

# normals
vn -1 0 0
vn 1 0 0
vn 0 0 1
vn 0 0 -1
vn 0 -1 0
vn 0 1 0

# texcoords
vt 0.916016 0.5
vt 0.923828 0.5
vt 0.939453 0.5
vt 0.970703 0.5

# verts
v -0.4 -1.2 0.1
v -0.4 -1.2 -0.2
v -0.4 -1.1 0.2
v -0.4 -1.1 0.1
v -0.4 -1.1 -0.2
v -0.4 -1.1 -0.3
v -0.4 -1 0.2
v -0.4 -1 0.1
v -0.4 -1 0
v -0.4 -0.8 0.2
v -0.4 -0.8 0.1
v -0.4 -0.8 0
v -0.4 -0.5 0.2
v -0.4 -0.5 -0.3
v -0.4 -0.4 0.2
v -0.4 -0.4 -0.3
v -0.4 1 -0.2
v -0.4 1 -0.3
v -0.4 1.1 -0.1
v -0.4 1.1 -0.2
v -0.4 1.2 0.2
v -0.4 1.2 -0.1
v -0.3 -1.2 0.2
v -0.3 -1.2 0.1
v -0.3 -1.2 -0.2
v -0.3 -1.2 -0.3
v -0.3 -1.1 0.2
v -0.3 -1.1 0.1
v -0.3 -1.1 -0.2
v -0.3 -1.1 -0.3
v -0.3 1 -0.2
v -0.3 1 -0.3
v -0.3 1.1 -0.1
v -0.3 1.1 -0.2
v -0.3 1.1 -0.3
v -0.3 1.2 -0.1
v -0.3 1.2 -0.2
v 0.2 -1 0.2
v 0.2 -1 0.1
v 0.2 -0.7 0.2
v 0.2 -0.7 0.1
v -0.2 -0.8 0.2
v -0.2 -0.8 0.1
v -0.2 -0.7 0.2
v -0.2 -0.7 0.1
v 0.2 -1.2 0.2
v 0.2 -1.2 0.1
v 0.2 -1.2 -0.2
v 0.2 -1.2 -0.3
v 0.2 -1.1 0.2
v 0.2 -1.1 0.1
v 0.2 -1.1 -0.2
v 0.2 -1.1 -0.3
v 0.2 1 -0.2
v 0.2 1 -0.3
v 0.2 1.1 -0.1
v 0.2 1.1 -0.2
v 0.2 1.1 -0.3
v 0.2 1.2 -0.1
v 0.2 1.2 -0.2
v 0.3 -1.2 0.1
v 0.3 -1.2 -0.2
v 0.3 -1.1 0.1
v 0.3 -1.1 -0.2
v 0.3 -1.1 -0.3
v 0.3 -0.9 0.1
v 0.3 -0.9 0
v 0.3 -0.8 0.2
v 0.3 -0.8 0
v 0.3 -0.5 0.2
v 0.3 -0.5 -0.3
v 0.3 -0.4 0.2
v 0.3 -0.4 -0.3
v 0.3 1 -0.2
v 0.3 1 -0.3
v 0.3 1.1 -0.1
v 0.3 1.1 -0.2
v 0.3 1.2 0.2
v 0.3 1.2 -0.1
v 0.4 -1.1 0.2
v 0.4 -1.1 0.1
v 0.4 -0.9 0.1
v 0.4 -0.9 0
v 0.4 -0.8 0.2
v 0.4 -0.8 0
v -0.4 -1.1 0.2
v -0.4 -1 0.2
v -0.4 -0.8 0.2
v -0.4 -0.5 0.2
v -0.4 -0.4 0.2
v -0.4 1.2 0.2
v -0.3 -1.2 0.2
v -0.3 -1.1 0.2
v -0.2 -0.8 0.2
v -0.2 -0.7 0.2
v 0.2 -1.2 0.2
v 0.2 -1.1 0.2
v 0.2 -1 0.2
v 0.2 -0.7 0.2
v 0.3 -0.8 0.2
v 0.3 -0.5 0.2
v 0.3 -0.4 0.2
v 0.3 1.2 0.2
v 0.4 -1.1 0.2
v 0.4 -0.8 0.2
v -0.4 -1.2 0.1
v -0.4 -1.1 0.1
v -0.4 -1 0.1
v -0.4 -0.8 0.1
v -0.3 -1.2 0.1
v -0.3 -1.1 0.1
v -0.2 -0.8 0.1
v -0.2 -0.7 0.1
v 0.2 -1.2 0.1
v 0.2 -1.1 0.1
v 0.2 -1 0.1
v 0.2 -0.7 0.1
v 0.3 -1.2 0.1
v 0.3 -1.1 0.1
v 0.3 -1.1 0.1
v 0.3 -0.9 0.1
v 0.4 -1.1 0.1
v 0.4 -0.9 0.1
v 0.3 -0.9 0
v 0.3 -0.8 0
v 0.4 -0.9 0
v 0.4 -0.8 0
v -0.4 1.1 -0.1
v -0.4 1.2 -0.1
v -0.3 1.1 -0.1
v -0.3 1.2 -0.1
v 0.2 1.1 -0.1
v 0.2 1.2 -0.1
v 0.3 1.1 -0.1
v 0.3 1.2 -0.1
v -0.4 -1.2 -0.2
v -0.4 -1.1 -0.2
v -0.4 1 -0.2
v -0.4 1.1 -0.2
v -0.3 -1.2 -0.2
v -0.3 -1.1 -0.2
v -0.3 1 -0.2
v -0.3 1.1 -0.2
v -0.3 1.2 -0.2
v 0.2 -1.2 -0.2
v 0.2 -1.1 -0.2
v 0.2 1 -0.2
v 0.2 1.1 -0.2
v 0.2 1.2 -0.2
v 0.3 -1.2 -0.2
v 0.3 -1.1 -0.2
v 0.3 1 -0.2
v 0.3 1.1 -0.2
v -0.4 -1.1 -0.3
v -0.4 -0.5 -0.3
v -0.4 -0.4 -0.3
v -0.4 1 -0.3
v -0.3 -1.2 -0.3
v -0.3 -1.1 -0.3
v -0.3 0.4 -0.3
v -0.3 0.5 -0.3
v -0.3 1 -0.3
v -0.3 1.1 -0.3
v -0.2 0.3 -0.3
v -0.2 0.4 -0.3
v -0.2 0.5 -0.3
v 0.1 0.3 -0.3
v 0.1 0.4 -0.3
v 0.1 0.5 -0.3
v 0.2 -1.2 -0.3
v 0.2 -1.1 -0.3
v 0.2 0.4 -0.3
v 0.2 0.5 -0.3
v 0.2 1 -0.3
v 0.2 1.1 -0.3
v 0.3 -1.1 -0.3
v 0.3 -0.5 -0.3
v 0.3 -0.4 -0.3
v 0.3 1 -0.3
v -0.3 -1.2 0.2
v 0.2 -1.2 0.2
v -0.4 -1.2 0.1
v -0.3 -1.2 0.1
v 0.2 -1.2 0.1
v 0.3 -1.2 0.1
v -0.4 -1.2 -0.2
v -0.3 -1.2 -0.2
v 0.2 -1.2 -0.2
v 0.3 -1.2 -0.2
v -0.3 -1.2 -0.3
v 0.2 -1.2 -0.3
v -0.4 -1.1 0.2
v -0.3 -1.1 0.2
v 0.2 -1.1 0.2
v 0.4 -1.1 0.2
v -0.4 -1.1 0.1
v -0.3 -1.1 0.1
v 0.2 -1.1 0.1
v 0.3 -1.1 0.1
v 0.4 -1.1 0.1
v -0.4 -1.1 -0.2
v -0.3 -1.1 -0.2
v 0.2 -1.1 -0.2
v 0.3 -1.1 -0.2
v -0.4 -1.1 -0.3
v -0.3 -1.1 -0.3
v 0.2 -1.1 -0.3
v 0.3 -1.1 -0.3
v 0.3 -0.9 0.1
v 0.4 -0.9 0.1
v 0.3 -0.9 0
v 0.4 -0.9 0
v -0.4 -0.8 0.2
v -0.2 -0.8 0.2
v -0.4 -0.8 0.1
v -0.2 -0.8 0.1
v -0.2 -0.7 0.2
v 0.2 -0.7 0.2
v -0.2 -0.7 0.1
v 0.2 -0.7 0.1
v -0.4 -1 0.2
v 0.2 -1 0.2
v -0.4 -1 0.1
v 0.2 -1 0.1
v 0.3 -0.8 0.2
v 0.4 -0.8 0.2
v 0.3 -0.8 0
v 0.4 -0.8 0
v -0.4 1 -0.2
v -0.3 1 -0.2
v 0.2 1 -0.2
v 0.3 1 -0.2
v -0.4 1 -0.3
v -0.3 1 -0.3
v 0.2 1 -0.3
v 0.3 1 -0.3
v -0.4 1.1 -0.1
v -0.3 1.1 -0.1
v 0.2 1.1 -0.1
v 0.3 1.1 -0.1
v -0.4 1.1 -0.2
v -0.3 1.1 -0.2
v 0.2 1.1 -0.2
v 0.3 1.1 -0.2
v -0.3 1.1 -0.3
v 0.2 1.1 -0.3
v -0.4 1.2 0.2
v 0.3 1.2 0.2
v -0.4 1.2 -0.1
v -0.3 1.2 -0.1
v 0.2 1.2 -0.1
v 0.3 1.2 -0.1
v -0.3 1.2 -0.2
v 0.2 1.2 -0.2

# faces
f 4/4/1 2/4/1 1/4/1
f 5/4/1 2/4/1 4/4/1
f 7/4/1 4/4/1 3/4/1
f 7/4/1 6/4/1 5/4/1
f 7/4/1 5/4/1 4/4/1
f 8/4/1 6/4/1 7/4/1
f 9/4/1 6/4/1 8/4/1
f 11/3/1 9/3/1 8/3/1
f 12/4/1 6/4/1 9/4/1
f 12/3/1 9/3/1 11/3/1
f 13/4/1 11/4/1 10/4/1
f 13/4/1 12/4/1 11/4/1
f 14/4/1 6/4/1 12/4/1
f 14/4/1 12/4/1 13/4/1
f 15/2/1 14/2/1 13/2/1
f 16/2/1 14/2/1 15/2/1
f 17/1/1 16/1/1 15/1/1
f 18/1/1 16/1/1 17/1/1
f 19/1/1 17/1/1 15/1/1
f 20/1/1 17/1/1 19/1/1
f 21/1/1 19/1/1 15/1/1
f 22/1/1 19/1/1 21/1/1
f 27/4/1 24/4/1 23/4/1
f 28/4/1 24/4/1 27/4/1
f 29/4/1 26/4/1 25/4/1
f 30/4/1 26/4/1 29/4/1
f 34/1/1 32/1/1 31/1/1
f 35/1/1 32/1/1 34/1/1
f 36/1/1 34/1/1 33/1/1
f 37/1/1 34/1/1 36/1/1
f 40/4/1 39/4/1 38/4/1
f 41/4/1 39/4/1 40/4/1
f 42/4/2 43/4/2 44/4/2
f 44/4/2 43/4/2 45/4/2
f 46/4/2 47/4/2 50/4/2
f 50/4/2 47/4/2 51/4/2
f 48/4/2 49/4/2 52/4/2
f 52/4/2 49/4/2 53/4/2
f 54/1/2 55/1/2 57/1/2
f 57/1/2 55/1/2 58/1/2
f 56/1/2 57/1/2 59/1/2
f 59/1/2 57/1/2 60/1/2
f 61/4/2 62/4/2 63/4/2
f 63/4/2 62/4/2 64/4/2
f 63/4/2 64/4/2 66/4/2
f 64/4/2 65/4/2 66/4/2
f 66/4/2 65/4/2 67/4/2
f 67/4/2 65/4/2 69/4/2
f 68/4/2 69/4/2 70/4/2
f 69/4/2 65/4/2 71/4/2
f 70/4/2 69/4/2 71/4/2
f 70/2/2 71/2/2 72/2/2
f 72/2/2 71/2/2 73/2/2
f 72/1/2 73/1/2 74/1/2
f 74/1/2 73/1/2 75/1/2
f 72/1/2 74/1/2 76/1/2
f 76/1/2 74/1/2 77/1/2
f 72/1/2 76/1/2 78/1/2
f 78/1/2 76/1/2 79/1/2
f 80/4/2 81/4/2 82/4/2
f 80/4/2 82/4/2 84/4/2
f 82/4/2 83/4/2 84/4/2
f 84/4/2 83/4/2 85/4/2
f 93/4/3 87/4/3 86/4/3
f 94/4/3 89/4/3 88/4/3
f 95/4/3 89/4/3 94/4/3
f 96/4/3 93/4/3 92/4/3
f 97/4/3 87/4/3 93/4/3
f 97/4/3 93/4/3 96/4/3
f 98/4/3 87/4/3 97/4/3
f 99/4/3 89/4/3 95/4/3
f 100/4/3 98/4/3 97/4/3
f 100/4/3 99/4/3 98/4/3
f 101/4/3 89/4/3 99/4/3
f 101/4/3 99/4/3 100/4/3
f 101/2/3 90/2/3 89/2/3
f 102/1/3 91/1/3 90/1/3
f 102/2/3 90/2/3 101/2/3
f 103/1/3 91/1/3 102/1/3
f 104/4/3 100/4/3 97/4/3
f 105/4/3 100/4/3 104/4/3
f 110/4/3 107/4/3 106/4/3
f 111/4/3 107/4/3 110/4/3
f 112/3/3 109/3/3 108/3/3
f 116/3/3 112/3/3 108/3/3
f 116/3/3 113/3/3 112/3/3
f 117/3/3 113/3/3 116/3/3
f 118/4/3 115/4/3 114/4/3
f 119/4/3 115/4/3 118/4/3
f 120/4/4 121/4/4 122/4/4
f 122/4/4 121/4/4 123/4/4
f 124/4/4 125/4/4 126/4/4
f 126/4/4 125/4/4 127/4/4
f 128/1/4 129/1/4 130/1/4
f 130/1/4 129/1/4 131/1/4
f 132/1/4 133/1/4 134/1/4
f 134/1/4 133/1/4 135/1/4
f 136/4/4 137/4/4 140/4/4
f 140/4/4 137/4/4 141/4/4
f 138/1/4 139/1/4 142/1/4
f 142/1/4 139/1/4 143/1/4
f 143/1/4 144/1/4 148/1/4
f 148/1/4 144/1/4 149/1/4
f 145/4/4 146/4/4 150/4/4
f 150/4/4 146/4/4 151/4/4
f 147/1/4 148/1/4 152/1/4
f 152/1/4 148/1/4 153/1/4
f 154/4/4 155/4/4 159/4/4
f 156/1/4 157/1/4 160/1/4
f 160/1/4 157/1/4 161/1/4
f 161/1/4 157/1/4 162/1/4
f 156/1/4 160/1/4 164/1/4
f 160/2/4 161/2/4 165/2/4
f 164/1/4 160/1/4 165/1/4
f 162/1/4 163/1/4 166/1/4
f 165/2/4 161/2/4 166/2/4
f 161/1/4 162/1/4 166/1/4
f 164/2/4 165/2/4 167/2/4
f 156/1/4 164/1/4 167/1/4
f 165/1/4 166/1/4 168/1/4
f 167/2/4 165/2/4 168/2/4
f 166/1/4 163/1/4 169/1/4
f 168/1/4 166/1/4 169/1/4
f 158/4/4 159/4/4 170/4/4
f 159/4/4 155/4/4 171/4/4
f 170/4/4 159/4/4 171/4/4
f 167/1/4 168/1/4 172/1/4
f 168/2/4 169/2/4 172/2/4
f 169/1/4 163/1/4 173/1/4
f 172/2/4 169/2/4 173/2/4
f 173/1/4 163/1/4 174/1/4
f 174/1/4 163/1/4 175/1/4
f 171/4/4 155/4/4 176/4/4
f 155/2/4 156/2/4 177/2/4
f 176/4/4 155/4/4 177/4/4
f 167/1/4 172/1/4 178/1/4
f 177/2/4 156/2/4 178/2/4
f 156/1/4 167/1/4 178/1/4
f 172/1/4 173/1/4 178/1/4
f 173/1/4 174/1/4 178/1/4
f 178/1/4 174/1/4 179/1/4
f 183/4/5 181/4/5 180/4/5
f 184/4/5 181/4/5 183/4/5
f 186/4/5 183/4/5 182/4/5
f 186/4/5 185/4/5 184/4/5
f 186/4/5 184/4/5 183/4/5
f 187/4/5 185/4/5 186/4/5
f 188/4/5 185/4/5 187/4/5
f 189/4/5 185/4/5 188/4/5
f 190/4/5 188/4/5 187/4/5
f 191/4/5 188/4/5 190/4/5
f 196/4/5 193/4/5 192/4/5
f 197/4/5 193/4/5 196/4/5
f 198/4/5 195/4/5 194/4/5
f 199/4/5 195/4/5 198/4/5
f 200/4/5 195/4/5 199/4/5
f 205/4/5 202/4/5 201/4/5
f 206/4/5 202/4/5 205/4/5
f 207/4/5 204/4/5 203/4/5
f 208/4/5 204/4/5 207/4/5
f 211/4/5 210/4/5 209/4/5
f 212/4/5 210/4/5 211/4/5
f 215/4/5 214/4/5 213/4/5
f 216/4/5 214/4/5 215/4/5
f 219/4/5 218/4/5 217/4/5
f 220/4/5 218/4/5 219/4/5
f 221/4/6 222/4/6 223/4/6
f 223/4/6 222/4/6 224/4/6
f 225/4/6 226/4/6 227/4/6
f 227/4/6 226/4/6 228/4/6
f 229/1/6 230/1/6 233/1/6
f 233/1/6 230/1/6 234/1/6
f 231/1/6 232/1/6 235/1/6
f 235/1/6 232/1/6 236/1/6
f 237/1/6 238/1/6 241/1/6
f 241/1/6 238/1/6 242/1/6
f 239/1/6 240/1/6 243/1/6
f 243/1/6 240/1/6 244/1/6
f 242/1/6 243/1/6 245/1/6
f 245/1/6 243/1/6 246/1/6
f 247/1/6 248/1/6 249/1/6
f 249/1/6 248/1/6 250/1/6
f 250/1/6 248/1/6 251/1/6
f 251/1/6 248/1/6 252/1/6
f 250/1/6 251/1/6 253/1/6
f 253/1/6 251/1/6 254/1/6
